<svg xmlns="http://www.w3.org/2000/svg" fill="none" viewBox="0 0 156 78"><path fill="currentColor" d="M73.996 26.332 62.842 42.368l-2.059-1.979L75.6 16.5h5.015l14.804 23.89-2.072 1.978h-.037L82.143 26.32v8.03l7.945 8.031H80.16V22.666s-.417-1.916-2.11-1.916c-1.68 0-2.134 1.916-2.134 1.916V42.38h-9.878l7.945-8.03v-8.019zm3.057 7.041s.454-.33 1.023-.33c.568 0 1.086.305 1.086.305v9.033h-2.11zm12.884 23.014V45.578h3.373v10.81zm-15.423-8.069H65.38v1.27h9.133v2.765H65.38v1.268h9.133v2.766H62.046V45.578h12.468zm-22.649 1.624h5.798v-1.624h-5.798zm7.756-4.377 1.377 1.37v9.44h-3.335V50.64l-1.705 2.055h-4.093v3.68h-3.334v-9.452l1.376-1.37h9.714zm28.838 9.858-.973.951H77.04l-1.061-1.053v-8.703l1.061-1.065h10.434l.972.977v1.788h-9.132v5.304h5.798v-1.27h-4.409v-2.765h7.743zm17.533.964H94.585V53.61h9.044V52.34h-9.044V46.48l.922-.914h11.962v.026l-2.21 2.74h-7.377V49.6h9.044v5.848zm-15.209 5.088v-2.538h.644v2.538zM49.2 60.739V59.71a.163.163 0 0 0-.139-.165h-2.046v1.332h2.033c.064-.012.14-.076.152-.14m.594-1.066v1.053a.765.765 0 0 1-.758.736H46.42v-2.537h2.653a.78.78 0 0 1 .72.748m8.097-.736h.77l-1.39 1.738v.812h-.606v-.812l-1.39-1.75h.771l.91 1.154zm9.056 0h.594v2.056s-.013.177-.177.342-.328.152-.328.152-.228 0-.329-.025c-.1-.038-.151-.102-.151-.102l-1.806-1.814V61.5h-.594v-2.055s.012-.178.177-.343.366-.152.366-.152.202 0 .303.038a.4.4 0 0 1 .126.063l1.794 1.802zm7.352 1.256h.657l-.29-.609h-.064c-.013-.012-.303.61-.303.61m.884-.875 1.023 2.157h-.657l-.315-.673h-1.226l-.315.673h-.657l1.023-2.157s.164-.38.556-.38c.404 0 .568.38.568.38m10.105.076v2.08h-.593V59.61l-.594 1.446s-.164.406-.581.406-.594-.406-.594-.406l-.593-1.446v1.865h-.594v-2.081c.013-.05.038-.19.177-.317.164-.165.366-.152.366-.152s.202.012.303.038a.43.43 0 0 1 .228.215l.682 1.637h.075l.683-1.637s.063-.165.227-.215c.101-.038.303-.038.303-.038s.202-.013.367.152c.088.127.113.266.138.317m13.592 1.484h1.402v.597h-2.653c-.391-.013-.707-.343-.732-.736v-1.066a.765.765 0 0 1 .758-.736h2.627v.597h-2.627a.163.163 0 0 0-.165.14V60.7c0 .076.051.152.14.165zm10.699-.19a.767.767 0 0 1-.771.774h-2.993v-.596h2.993a.173.173 0 0 0 .177-.178.173.173 0 0 0-.177-.178h-2.463c-.429 0-.77-.367-.77-.811 0-.432.353-.774.77-.774h2.994v.596h-2.994a.173.173 0 0 0-.177.178c0 .101.076.19.177.19h2.463c.43.012.771.368.771.799"/></svg>