<svg xmlns="http://www.w3.org/2000/svg" fill="none" viewBox="0 0 156 78"><path fill="#C22323" d="M64.077 59.643q0-.172.094-.298a.67.67 0 0 1 .269-.203.55.55 0 0 1 .247-.053q.135 0 .263.058a1 1 0 0 1 .246.168l1.66 1.55v-1.723h.621v1.688a.7.7 0 0 1-.076.347.62.62 0 0 1-.39.28.6.6 0 0 1-.41-.037.9.9 0 0 1-.246-.168l-1.66-1.538v1.739l-.618-.01z"/><path fill="#C22323" fill-rule="evenodd" d="M46.259 59.137v2.308h.001l2.598.01q.204-.001.347-.055a.8.8 0 0 0 .273-.189.8.8 0 0 0 .166-.229.6.6 0 0 0 .052-.263v-.857a.6.6 0 0 0-.048-.247.8.8 0 0 0-.144-.219.7.7 0 0 0-.277-.202q-.15-.057-.36-.057zm2.8.583v1.155h-2.173V59.72z" clip-rule="evenodd"/><path fill="#C22323" d="m55.194 59.137 1.387 1.625v.683h.611v-.683l1.35-1.625h-.77l-.9 1.051-.895-1.051z"/><path fill="#C22323" fill-rule="evenodd" d="m72.925 61.454.697-.01.337-.604h1.208l.367.605.673.009-.948-1.73q-.206-.368-.352-.478a.53.53 0 0 0-.332-.11.6.6 0 0 0-.34.101q-.168.115-.363.472zm1.928-1.205h-.577l.29-.489z" clip-rule="evenodd"/><path fill="#C22323" d="m82.295 61.46-.59-.016v-1.735a.575.575 0 0 1 .595-.573q.222 0 .396.14a.9.9 0 0 1 .258.357l.55 1.287.605-1.356a.77.77 0 0 1 .235-.315.58.58 0 0 1 .365-.114q.271 0 .44.19a.66.66 0 0 1 .168.452v1.667h-.591v-1.698l-.584 1.211q-.151.316-.276.419a.54.54 0 0 1-.352.124.54.54 0 0 1-.386-.166 1.3 1.3 0 0 1-.258-.379l-.575-1.187zM91.526 61.463v-2.326h-.683v2.326zM100.501 59.137v.58h-2.832v1.152h2.832v.577h-2.667a.9.9 0 0 1-.319-.049.7.7 0 0 1-.254-.164.9.9 0 0 1-.17-.21.55.55 0 0 1-.06-.257v-.776q0-.243.053-.385a.7.7 0 0 1 .234-.307.7.7 0 0 1 .297-.138q.11-.021.34-.021h2.545zM109.494 60.214a.87.87 0 0 0-.582-.213h-2.243v-.279l2.909-.003v-.582l-2.66.016q-.366 0-.63.194a.64.64 0 0 0-.284.523q0 .307.247.513a.88.88 0 0 0 .584.207h2.277v.275h-2.955v.589l2.762-.01a.87.87 0 0 0 .579-.202.63.63 0 0 0 .243-.508.66.66 0 0 0-.247-.52"/><path fill="#fff" d="M79.668 22.675q.002 4.512.016 9.019c.01 3.612.02 7.217.016 10.808h9.875l-7.919-8.112v-8.083l11.225 16.195 2.091-2.2L80.094 16.5h-5.05l-14.88 23.996 2.091 2.004 11.226-16.194v8.083L65.56 42.5h9.876c-.004-3.589.005-7.194.016-10.806.008-3.004.016-6.012.016-9.02.89-2.464 3.368-2.546 4.196 0z"/><path fill="#fff" d="M76.524 42.502v-9.126c.576-.486 1.585-.47 2.092 0v9.126zM87.14 45.747H76.652l-.499.502-.5.504v8.894l1 1.002H87.14l1.008-1.002v-5.828h-7.813l-.003 2.741 4.49.016v1.318h-5.847v-5.391h9.172v-1.748zM92.876 45.746h-3.323V56.65h3.323zM61.64 45.746h12.496v2.757h-9.172v1.318h9.172v2.756h-9.172v1.317h9.172v2.756H61.64zM107.33 45.746H95.247l-.941.863v5.968h9.14v1.317h-9.174l-.01 2.785 11.53-.029.979-.891V49.82h-9.172v-1.318h7.504z"/><path fill="#fff" fill-rule="evenodd" d="M58.98 45.748h-9.74l-1.374 1.38v9.53l3.33.018-.004-3.719h4.106l1.738-2.15c0 .596-.002 1.162-.003 1.717-.001 1.36-.003 2.652-.003 4.134h3.33l.002-1.049c.002-2.529.007-8.474-.007-8.487zm-1.942 3.046v1.408h-5.847v-1.39l.29-.291 5.195-.016z" clip-rule="evenodd"/></svg>