<svg xmlns="http://www.w3.org/2000/svg" fill="none" viewBox="0 0 156 78"><path fill="#54ADF7" d="M83.669 65.1h2.04v-.002c.312 0 .591-.183.703-.461l6.958-17.258h.888l.16 1.076a.05.05 0 0 0 .05.041h.576c.029 0 .05-.02.05-.047v-2.187h3.556c1.213 0 2.329-.63 2.912-1.645l1.505-2.566a.14.14 0 0 0-.028-.176l-.683-.616c-.005-.005.005-.013.005-.013l4.481-.343a18 18 0 0 0 1.755-.222l4.734-.843a.794.794 0 0 0 .669-.77v-1.094c0-.377-.281-.7-.669-.77l-4.699-.836a18 18 0 0 0-1.827-.232l-4.489-.342c-.007 0-.003-.012-.003-.012l.721-.639a.14.14 0 0 0 .027-.182l-1.548-2.444c-.557-.881-1.558-1.419-2.635-1.419h-3.785V29.55c0-.027-.022-.048-.05-.048h-.576a.05.05 0 0 0-.05.041l-.16 1.076h-.889l-6.957-17.258a.75.75 0 0 0-.703-.461h-2.04c-.43 0-.773.343-.752.752l.604 12.319-3.141-3.155a.62.62 0 0 0-.437-.178h-1.777c-.448 0-.74.45-.538.831l4.539 8.664-8.133 3.057-1.481-.6-.2-.08a.7.7 0 0 0-.187-.013l-4.01.273v1.117h2.844s2.008.16 2.008.798c0 0 0 .462-.882.683l-3.64.241a.345.345 0 0 0-.33.337v1.298c0 .177.144.324.33.337l3.583.238h.004c.935.214.935.686.935.686 0 .639-2.008.798-2.008.798h-2.844v1.118l4.01.273q.096.007.186-.013l.2-.081L74.034 42l8.488 3.19-4.894 9.34c-.201.381.09.831.538.831h1.777a.62.62 0 0 0 .437-.178l3.14-3.155-.603 12.319c-.02.409.323.752.752.752M62.5 35.068 42 38.148l20.5 3.08c1.951.293 3.797-1.041 3.887-2.889q.006-.094.005-.19 0-.096-.005-.191c-.088-1.847-1.934-3.183-3.888-2.89"/></svg>