<svg xmlns="http://www.w3.org/2000/svg" fill="none" viewBox="0 0 156 78"><path fill="#DEDED3" d="m43.065 43.544-.377 1.886H40.87l2.572-12h2.16l2.573 12h-1.817l-.378-1.886zM45.655 42l-1.08-5.332-.05-.43-.052.43L43.393 42h2.265zM53.73 45.43l-2.795-7.904-.051-.223v8.127h-1.645v-12h1.852l2.452 7.115.05.24v-7.354h1.646v12H53.73zM58.872 45.43l-2.572-12h1.817l1.782 8.76.051.429.051-.43 1.783-8.76H63.6L61.011 45.43h-2.143zM64.668 45.43v-12h1.714v12zM68.096 45.43v-12h1.715v10.458h3.43v1.544h-5.144zM82.413 43.544h-2.915l-.378 1.886h-1.816l2.572-12h2.16l2.573 12H82.79zM82.087 42l-1.08-5.332-.05-.43-.05.43L79.826 42h2.264zM85.67 33.43h5.143v1.543h-3.43v3.343h2.572v1.544h-2.572v4.03h3.43v1.543H85.67zM96.659 45.43l-1.286-4.885h-1.354v4.885h-1.715v-12h4.2c1.063 0 1.8.736 1.8 1.799v3.514c0 .909-.515 1.56-1.337 1.75l1.509 4.937h-1.819zM94.019 39h2.486c.05 0 .086-.033.086-.086v-3.856c0-.051-.034-.087-.086-.087h-2.486zM104.22 45.464h-2.399c-1.063 0-1.8-.737-1.8-1.8v-8.47c0-1.062.737-1.799 1.8-1.799h2.399c1.063 0 1.8.737 1.8 1.8v8.47c0 1.062-.737 1.799-1.8 1.799m0-10.493h-2.399c-.051 0-.087.034-.087.087V43.8c0 .051.034.087.087.087h2.399c.051 0 .086-.034.086-.087v-8.743c0-.051-.034-.087-.086-.087M111.935 41.52l-3.377-3.36c-.566-.549-.823-1.115-.823-1.816v-1.15c0-1.062.737-1.799 1.799-1.799h2.4c1.062 0 1.799.737 1.799 1.8v1.662h-1.714v-1.8c0-.05-.034-.086-.087-.086h-2.399c-.051 0-.087.034-.087.087v1.628c0 .086.034.137.087.188l3.377 3.36c.566.55.823 1.115.823 1.817v1.612c0 1.062-.737 1.8-1.799 1.8h-2.4c-1.062 0-1.799-.738-1.799-1.8V42h1.714v1.8c0 .05.034.086.087.086h2.399c.051 0 .087-.034.087-.086v-2.11c0-.068-.034-.12-.087-.17M119.651 40.543h-2.486v4.885h-1.715v-12h4.201c1.062 0 1.799.737 1.799 1.8v3.514c0 1.062-.72 1.8-1.799 1.8m0-5.572h-2.486v4.03h2.486c.05 0 .086-.034.086-.087v-3.856c0-.051-.034-.087-.086-.087M126.885 43.544h-2.915l-.378 1.886h-1.818l2.572-12h2.161l2.572 12h-1.818l-.378-1.886zM126.559 42l-1.079-5.332-.051-.43-.051.43L124.299 42h2.263zM134.342 45.43h-2.399c-1.029 0-1.8-.771-1.8-1.8v-8.435c0-1.029.771-1.8 1.8-1.8h2.399c1.029 0 1.8.771 1.8 1.8v1.662h-1.715v-1.8c0-.05-.034-.086-.086-.086h-2.4c-.051 0-.086.034-.086.087V43.8c0 .051.034.087.086.087h2.4c.051 0 .086-.034.086-.087v-1.8h1.715v1.63c0 1.028-.771 1.799-1.8 1.799M137.857 33.43H143v1.543h-3.43v3.343h2.573v1.544h-2.573v4.03H143v1.543h-5.143z"/><path fill="#DEDED3" fill-rule="evenodd" d="m24.342 20.853 3.757 8.648a11.31 11.31 0 0 1 7.586 10.687c0 4.826-3.314 9.429-8.087 10.848l-3.248 6.111-3.255-6.111C16.314 49.616 13 45.182 13 40.188c0-4.993 3.041-9.09 7.586-10.687zm9.14 23.454a10 10 0 0 1-1.332 2.096l-5.17-12.127h-.045v9.73l-.051 6.067-2.033 3.758v-23.8l.008-5.236 8.625 19.51zM21.287 49.64l-.008-1.817a8.4 8.4 0 0 1-3.6-2.721l-.744 1.758a10.2 10.2 0 0 0 4.353 2.78zm7.755-16.533-1.082-2.465c3.778 1.464 6.473 5.119 6.466 9.392 0 1.317-.258 2.566-.714 3.714l-1.09-2.479q.101-.606.103-1.235a8.37 8.37 0 0 0-3.683-6.927m-9.397 0a8.36 8.36 0 0 0-3.683 6.927q0 .631.11 1.228l-1.09 2.478a9.9 9.9 0 0 1-.721-3.708c0-4.28 2.688-7.935 6.466-9.391l-1.082 2.464zm7.755 16.533.008-1.817a8.4 8.4 0 0 0 3.6-2.721l.744 1.758a10.1 10.1 0 0 1-4.354 2.78zm-5.694-15.357h.045v9.731l.05 6.069 2.041 3.765V30.804l-.008-6.008-8.55 19.511c.362.75.804 1.464 1.333 2.096z" clip-rule="evenodd"/></svg>