<svg xmlns="http://www.w3.org/2000/svg" fill="none" viewBox="0 0 156 78"><path fill="currentColor" d="m78.1 9-9.947 29.627 9.747 14.57 9.947-14.57zm-.114 22.227c4.097 0 7.418 3.286 7.418 7.34H70.566c0-4.054 3.322-7.34 7.419-7.34M66.27 64.87a3.29 3.29 0 0 1-1.712-2.88c0-1.817 1.494-3.295 3.33-3.295s3.331 1.478 3.331 3.295a3.29 3.29 0 0 1-1.712 2.88h2.715a5.1 5.1 0 0 0 .887-2.88c0-2.852-2.337-5.164-5.22-5.164s-5.22 2.312-5.22 5.164c0 1.067.326 2.057.886 2.88zM75.528 57.077a8 8 0 0 0-.912-.054q-.462.001-.912.054V67.36L75.529 69V58.865a6.13 6.13 0 0 1 4.935 4.19h-3.119l-1.212 1.805h6.404c0-4.015-3.07-7.333-7.008-7.783M61.17 57.024q-.465.002-.913.054c-3.938.449-7.007 3.767-7.007 7.782h1.793c0-3.035 2.267-5.556 5.214-5.994v4.19h-2.95l-1.211 1.805h5.986v-7.783a8 8 0 0 0-.913-.054M84.764 62.196c0 1.093.542 2.065 1.375 2.664h-2.516a5.1 5.1 0 0 1-.748-2.664c0-2.853 2.337-5.165 5.22-5.165s5.22 2.312 5.22 5.165a5.1 5.1 0 0 1-.749 2.664h-2.515a3.28 3.28 0 0 0 1.375-2.664c0-1.817-1.495-3.296-3.331-3.296-1.837 0-3.331 1.479-3.331 3.296M94.83 57.023q.462.001.912.054v.001c3.94.45 7.008 3.768 7.008 7.783h-6.498l1.212-1.806h3.214a6.13 6.13 0 0 0-4.935-4.189v5.994h-1.826v-7.783q.45-.052.912-.054"/></svg>