<svg xmlns="http://www.w3.org/2000/svg" fill="none" viewBox="0 0 156 78"><path fill="currentColor" d="M32.517 31.398v4.948a.887.887 0 0 1-.885.884.876.876 0 0 1-.885-.884V34.07H19.77v2.31a.876.876 0 0 1-.885.885.887.887 0 0 1-.885-.885v-4.947c0-1.283 1.03-2.31 2.31-2.31h9.912c1.264-.036 2.293.993 2.293 2.274zm-1.77.885v-.885a.525.525 0 0 0-.525-.524H20.31a.524.524 0 0 0-.524.524v.885zM65.505 34.056l1.714 1.715c.325.324.325.92 0 1.245-.324.325-.92.325-1.245 0l-2.203-2.203c-.398-.398-1.245-.758-1.77-.758h-7.24v2.31a.887.887 0 0 1-.884.885.876.876 0 0 1-.885-.885v-6.356c0-.505.398-.885.885-.885h11.339c1.282 0 2.31 1.03 2.31 2.31v.36c-.035 1.139-.902 2.077-2.023 2.257zm.198-2.619a.524.524 0 0 0-.525-.524H54.743v1.408h10.437a.503.503 0 0 0 .524-.525v-.36zM135.67 29.122a2.303 2.303 0 0 1 2.311 2.31v3.558c0 1.282-1.03 2.274-2.311 2.274h-9.912c-1.283 0-2.31-1.029-2.31-2.274v-3.558a2.303 2.303 0 0 1 2.31-2.31zm-9.912 6.392h9.912a.55.55 0 0 0 .525-.524v-3.558a.55.55 0 0 0-.525-.524h-9.912a.55.55 0 0 0-.524.524v3.558c-.018.27.235.524.524.524M92.263 33.194c0-.253.091-.47.254-.632a.9.9 0 0 1 .631-.253h7.168a2.4 2.4 0 0 1 .885.163c.271.108.505.27.723.469.198.198.36.451.469.722s.162.578.162.885v.416c0 .307-.053.614-.162.885a2.2 2.2 0 0 1-.469.722c-.198.198-.452.36-.723.505-.271.109-.56.162-.885.162h-9.714c-.505 0-.975-.108-1.354-.36a3.5 3.5 0 0 1-1.03-.976c-.27-.398-.504-.831-.63-1.3a5 5 0 0 1-.217-1.408c0-.47.091-.938.216-1.408.163-.469.398-.92.687-1.3a4 4 0 0 1 1.083-.976c.416-.253.92-.36 1.445-.36h10.888c.253 0 .469.09.631.253a.9.9 0 0 1 .254.632c0 .253-.091.469-.254.631a.9.9 0 0 1-.631.253H91.218c-.452 0-.776.091-1.047.216-.272.163-.47.325-.632.578-.163.216-.253.47-.307.758a4 4 0 0 0-.09.759c0 .216.035.469.09.758s.162.505.307.758c.162.216.36.416.632.578.27.163.613.216 1.047.216h9.046c.145 0 .272-.053.398-.198.127-.144.163-.307.163-.505s-.054-.36-.163-.47a.49.49 0 0 0-.415-.197H93.15a.87.87 0 0 1-.632-.254c-.18-.27-.253-.469-.253-.722zM18.018 48.85l2.672-4.893h.885l2.726 4.893h-.885l-.631-1.191H19.48l-.632 1.191zm1.77-1.823h2.636l-1.336-2.492zM30.369 44.616v1.354h3.088c.451 0 .722.091.885.253.162.163.253.47.253.921v.56c0 .452-.091.758-.253.92-.163.163-.452.254-.885.254h-2.853c-.451 0-.758-.09-.92-.253s-.254-.47-.254-.92v-.145l.758-.163v.776h3.666v-1.48h-3.05c-.452 0-.758-.091-.92-.254-.163-.162-.254-.469-.254-.92v-.416c0-.451.09-.758.253-.92s.47-.254.92-.254h2.6c.451 0 .723.091.885.253.162.163.253.452.253.832v.109l-.687.198-.017-.705zM42.755 44.624v4.225h-.812v-4.225h-2.257v-.667h5.31v.667zM50.175 48.85v-4.893h3.935c.36 0 .632.09.812.216.163.144.254.398.254.722v1.083c0 .325-.091.578-.254.723-.162.144-.415.216-.812.216h-.722l2.257 1.914h-1.228l-2.003-1.914h-1.445v1.914l-.794.018zm3.61-4.242h-2.798v1.714h2.799c.198 0 .324-.035.415-.108s.11-.198.11-.398v-.723c0-.198-.037-.307-.11-.397-.09-.054-.216-.091-.415-.091zM61.118 45.113c0-.452.09-.758.253-.92.162-.163.47-.254.92-.254h3.396c.451 0 .758.09.885.253.162.163.253.47.253.92v2.582c0 .452-.091.759-.254.921-.162.162-.469.253-.884.253h-3.395c-.452 0-.759-.09-.92-.253-.163-.162-.254-.47-.254-.92zm.794 3.05h4.062v-3.521h-4.062zM73.053 48.868v-4.893h.524l3.666 3.286.272.271c.09.109.198.216.27.325a2.3 2.3 0 0 1-.053-.505c0-.163-.036-.416-.036-.723v-2.69h.759v4.894h-.452l-3.755-3.395c-.036-.036-.054-.036-.091-.091a1.9 1.9 0 0 1-.416-.47c.036.145.036.307.036.47v3.466h-.722v.054zM83.868 48.85l2.672-4.893h.885l2.726 4.893h-.885l-.631-1.191H85.33l-.632 1.191zm1.734-1.823h2.636l-1.336-2.492zM95.912 43.957v4.224h3.557v-4.224h.812v3.72c0 .45-.091.758-.254.92-.162.162-.469.253-.885.253h-2.925c-.452 0-.758-.09-.92-.253-.163-.162-.254-.47-.254-.92v-3.72zM108.514 44.624v4.225h-.812v-4.225h-2.221v-.667h5.272v.667zM116.187 48.85h-.758v-4.893h.758zM126.299 44.624h-3.395v3.557h3.395v-1.227l.831.162v.578c0 .452-.091.759-.253.921-.163.162-.469.253-.921.253h-2.744c-.451 0-.758-.09-.92-.253-.163-.162-.254-.47-.254-.92v-2.582c0-.452.091-.758.254-.92.162-.163.469-.254.92-.254h2.744c.452 0 .758.09.921.253.162.163.253.47.253.92v.47l-.831.162zM137.24 44.616h-3.466v1.354h3.088c.451 0 .722.091.885.253.162.163.253.47.253.921v.56c0 .452-.091.758-.253.92-.163.163-.452.254-.885.254h-2.853c-.451 0-.758-.09-.92-.253s-.254-.47-.254-.92v-.145l.759-.163v.776h3.628v-1.48h-3.088c-.451 0-.758-.091-.92-.254-.163-.162-.254-.469-.254-.92v-.416c0-.451.091-.758.254-.92.162-.163.469-.254.92-.254h2.619c.451 0 .723.091.885.253.162.163.253.452.253.832v.109l-.687.198v-.723h.036zM137.998 40.047H18.018v1.119h119.98z"/></svg>