<svg xmlns="http://www.w3.org/2000/svg" fill="none" viewBox="0 0 156 78"><path fill="#fff" d="M72.546 25.994a8.1 8.1 0 0 0-4.506-4.35l-.6 1.53a6.46 6.46 0 0 1 4.128 6.054c0 3.303-2.48 6.033-5.675 6.439V20.062a9.22 9.22 0 0 1 7.363 4.953q-.4.454-.71.979m3.017 22.78a6.52 6.52 0 0 1-2.099 4.782l-.606.558 1.818 1.966a9.14 9.14 0 0 1-4.788 1.86v-4.02a5.22 5.22 0 0 0 4.389-5.147 5.22 5.22 0 0 0-5.212-5.211 5.22 5.22 0 0 0-5.146 4.39h-1.293c.406-3.196 3.136-5.677 6.44-5.677a6.505 6.505 0 0 1 6.497 6.498m11.524 6.497a6.505 6.505 0 0 1-6.498-6.498c0-2.412 1.3-4.569 3.371-5.7l.46 1.22a5.19 5.19 0 0 0-2.544 4.48 5.217 5.217 0 0 0 5.21 5.211 5.22 5.22 0 0 0 5.148-4.389h1.298a6.506 6.506 0 0 1-6.445 5.676M64.249 35.667c-3.195-.406-5.675-3.136-5.675-6.439s2.48-6.034 5.675-6.44zm35.091-10.19 1.502-.67a10.87 10.87 0 0 0-9.913-6.431c-3.914 0-7.512 2.12-9.429 5.48a6.37 6.37 0 0 0-6.976.048 10.87 10.87 0 0 0-9.453-5.528 10.87 10.87 0 0 0-9.913 6.43l1.502.67a9.22 9.22 0 0 1 7.589-5.414v1.065c-4.105.414-7.32 3.89-7.32 8.101s3.215 7.686 7.32 8.1v1.07a9.15 9.15 0 0 1-7.45-5.122L55.323 34a10.77 10.77 0 0 0 7.568 5.859 10.84 10.84 0 0 0-3.739 4.493l1.502.67a9.22 9.22 0 0 1 8.411-5.456c2.168 0 4.216.768 5.832 2.09l-.76.759a8.1 8.1 0 0 0-5.072-1.784c-4.49 0-8.142 3.653-8.142 8.142a8.1 8.1 0 0 0 5.175 7.584l.6-1.531a6.45 6.45 0 0 1-4.075-5.23h2.875v-.823a3.57 3.57 0 0 1 3.567-3.567 3.57 3.57 0 0 1 3.568 3.567 3.57 3.57 0 0 1-3.568 3.567h-.822v5.6a9.14 9.14 0 0 1-7.45-5.119l-1.476.724a10.79 10.79 0 0 0 9.748 6.08c3.676 0 7.011-1.806 9.011-4.797 2 2.99 5.335 4.796 9.01 4.796 4.175 0 7.91-2.33 9.749-6.08l-1.476-.723A9.3 9.3 0 0 1 93.877 55l-.767-.767a8.1 8.1 0 0 0 2.118-5.459 8.1 8.1 0 0 0-5.174-7.584l-.6 1.531a6.46 6.46 0 0 1 4.08 5.231h-2.88v.822a3.57 3.57 0 0 1-3.567 3.567 3.57 3.57 0 0 1-3.566-3.567c0-1.465.877-2.765 2.236-3.31l.745-.3-1.607-4.278-.776.304a8.1 8.1 0 0 0-5.174 7.584c0 4.49 3.652 8.142 8.142 8.142a8.1 8.1 0 0 0 4.8-1.58l.773.773a9.17 9.17 0 0 1-5.573 1.872 9.15 9.15 0 0 1-8.272-5.159l-.739-1.505-.738 1.505a9.3 9.3 0 0 1-1.451 2.146l-.731-.79a8.17 8.17 0 0 0 2.051-5.404c0-1.98-.712-3.797-1.892-5.21l.76-.76a9.2 9.2 0 0 1 1.403 2.219l1.502-.67a10.87 10.87 0 0 0-9.915-6.43c-1.092 0-2.159.166-3.172.476v-1.07c2.988-.301 5.5-2.225 6.65-4.873a6.39 6.39 0 0 0 5.501 3.16h.823v-4.31h-.823a2.08 2.08 0 0 1-2.076-2.077 2.08 2.08 0 0 1 2.076-2.078 2.08 2.08 0 0 1 1.909 2.9h1.712c.062-.27.102-.544.102-.822a3.727 3.727 0 0 0-3.723-3.722 3.726 3.726 0 0 0-3.721 3.722 3.73 3.73 0 0 0 2.9 3.63V33.9a4.75 4.75 0 0 1-3.921-4.671 4.75 4.75 0 0 1 4.742-4.743c1.183 0 2.314.437 3.187 1.23l.837.761.465-1.03a9.2 9.2 0 0 1 1.389-2.186l.758.757a8.1 8.1 0 0 0-1.893 5.211 8.1 8.1 0 0 0 5.174 7.584l.6-1.531a6.45 6.45 0 0 1-4.074-5.23h2.875v-.823c0-1.967 1.6-3.567 3.567-3.567a3.57 3.57 0 0 1 3.566 3.567 3.57 3.57 0 0 1-3.566 3.567h-.822v5.604a9.15 9.15 0 0 1-7.45-5.123L81.181 34a10.79 10.79 0 0 0 9.748 6.08h.822v-5.706a5.22 5.22 0 0 0 4.389-5.146 5.217 5.217 0 0 0-5.211-5.212 5.22 5.22 0 0 0-5.147 4.39H84.49c.406-3.195 3.135-5.676 6.439-5.676a6.505 6.505 0 0 1 6.497 6.498c0 2.695-1.62 5.07-4.129 6.053l.6 1.53a8.1 8.1 0 0 0 5.174-7.583c0-4.49-3.653-8.142-8.142-8.142-1.917 0-3.68.67-5.072 1.783l-.757-.757a9.2 9.2 0 0 1 5.829-2.092 9.22 9.22 0 0 1 8.411 5.457"/></svg>