<svg xmlns="http://www.w3.org/2000/svg" fill="none" viewBox="0 0 156 78"><path fill="#fff" d="M80.777 21.353c3.14 2.663 8.335 7.066 11.98 10.674.273.313.544.605.8.88 2.152 2.313 3.192 3.43-5.423 6.303-6.46 2.108-8.257 2.621-10.065 3.11v-.994l1.252-.76c1.88-1.139 4.71-2.853 6.154-3.79 1.78-1.148 1.504-1.618.92-2.611-.14-.24-.299-.509-.45-.825-1.407-2.309-3.302-5.237-4.923-7.743-1.28-1.977-2.388-3.69-2.953-4.63V19c.155.19 1.192 1.068 2.707 2.352zM74.818 21.353c-3.14 2.663-8.335 7.066-11.98 10.674-.273.313-.544.605-.8.88-2.152 2.313-3.192 3.43 5.422 6.303 6.462 2.108 8.258 2.621 10.066 3.11v-.994l-1.249-.758-.004-.002c-1.88-1.14-4.709-2.853-6.153-3.79-1.78-1.148-1.504-1.618-.92-2.611.14-.24.299-.509.45-.825 1.406-2.309 3.301-5.237 4.923-7.743v-.001c1.28-1.977 2.388-3.69 2.953-4.629V19c-.155.19-1.192 1.069-2.708 2.353"/><path fill="#fff" fill-rule="evenodd" d="M41.607 53.446a.9.9 0 0 0-.073.344l.018 3.726q0 .144.073.325.22.579.882.832.66.235 2.019.235h3.34q2.974 0 2.974-1.41V53.79q0-1.392-2.955-1.393h-3.36q-2.46 0-2.918 1.05m2.79 3.6-.018-2.804q0-.452.954-.452h1.744q.936 0 .936.452V57.1q0 .398-.936.398h-1.744q-.936 0-.936-.452" clip-rule="evenodd"/><path fill="#fff" d="M52.471 57.28v-4.883h2.846v4.848q.073.252.972.253h1.928q.863 0 .954-.235l.019-.055v-4.81h2.845v4.883q0 .633-.294.904-.753.723-2.661.723h-3.653q-2.038 0-2.735-.777-.22-.254-.22-.85M63 52.397v1.393h2.826v5.118h2.846V53.79h2.845v-1.393zM72.483 57.317v-4.92h2.845v4.811q0 .29.716.29h5.03l-.019 1.41h-5.268q-.257 0-.477-.018-1.506-.054-2.166-.416-.66-.38-.661-1.157"/><path fill="#fff" fill-rule="evenodd" d="m84.883 53.193-3.653 5.715h2.974l.899-1.41h4.02l.9 1.41h2.973l-3.653-5.715q-.55-.867-2.22-.868-1.69 0-2.24.868m3.396 2.984h-2.332l.992-2.116z" clip-rule="evenodd"/><path fill="#fff" d="M93.677 58.909v-5.227q0-.597.661-.977.68-.38 1.689-.38.459 0 .936.072 1.175.218 1.579.995l2.001 3.762v-4.757h2.698v5.39q0 .507-.661.85-.66.344-1.652.362-1.908.036-2.515-1.103l-2.019-3.744v4.756z"/><path fill="#fff" fill-rule="evenodd" d="M104.866 52.397v6.511h6.865q2.406 0 2.699-1.193.037-.145.037-.235v-3.654q0-1.428-2.846-1.429zm5.764 5.1h-2.919V53.79h2.901q.881 0 1.009.307v2.84q0 .072-.018.09-.055.344-.349.435-.147.036-.624.036M67.503 47.726q0-.1.045-.211.282-.645 1.794-.645h2.065q1.816 0 1.816.856v2.28q0 .867-1.827.867h-2.054q-.834 0-1.241-.145-.405-.156-.542-.511a.5.5 0 0 1-.045-.2zm1.749.278.011 1.724q0 .277.576.277h1.071q.576 0 .576-.244v-1.757q0-.278-.576-.278H69.84q-.587 0-.587.278" clip-rule="evenodd"/><path fill="#fff" d="M74.195 46.87v3.024q0 .478.406.712.406.222 1.332.255.135.012.293.012h3.238l.011-.867h-3.091q-.44 0-.44-.178V46.87zM80.116 50.873V46.87h1.749v4.003z"/><path fill="#fff" fill-rule="evenodd" d="M82.82 46.87v4.003h4.22q1.476 0 1.658-.734a.6.6 0 0 0 .022-.145v-2.246q0-.878-1.749-.878zm3.542 3.136h-1.794v-2.28h1.783q.541 0 .62.19v1.745q0 .045-.01.055-.035.212-.215.267a2 2 0 0 1-.384.023M89.112 50.873l2.246-3.514q.338-.533 1.376-.533 1.027 0 1.365.533l2.245 3.514h-1.827l-.553-.868h-2.471l-.553.868zm2.9-1.68h1.433l-.824-1.3z" clip-rule="evenodd"/><path fill="#fff" d="M96.326 46.87v.856h1.738v3.147h1.749v-3.147h1.748v-.856zM102.124 50.039v-2.302q0-.077.034-.178.225-.69 1.659-.689h3.61v.856h-3.148a1 1 0 0 1-.113.022q-.293.056-.293.234v.445h3.554v.867h-3.554v.445q0 .244.451.267h3.103v.867h-3.362q-1.941 0-1.941-.834"/><path fill="#fff" fill-rule="evenodd" d="M108.309 46.87v4.003h4.22q1.477 0 1.659-.734a.6.6 0 0 0 .022-.145v-2.246q0-.878-1.749-.878zm3.543 3.136h-1.794v-2.28h1.783q.542 0 .62.19v1.745q0 .045-.011.055-.033.212-.214.267a2 2 0 0 1-.384.023" clip-rule="evenodd"/><path fill="#fff" d="M41.815 49.983v-2.201q0-.523.406-.712.417-.2 1.5-.2h3.408v.856h-3.16q-.337.022-.406.178v1.757q0 .222.158.3.09.044.361.044h3.047v.868h-3.667q-.294 0-.61-.067-1.037-.2-1.037-.823"/><path fill="#fff" fill-rule="evenodd" d="M47.979 47.515a.6.6 0 0 0-.045.211l.011 2.29q0 .09.045.2.135.356.542.512.405.145 1.24.145h2.054q1.828 0 1.828-.867v-2.28q0-.856-1.816-.856h-2.065q-1.512 0-1.794.645m1.715 2.212-.011-1.723q0-.278.586-.278h1.072q.576 0 .576.278v1.757q0 .244-.576.244H50.27q-.575 0-.575-.278" clip-rule="evenodd"/><path fill="#fff" d="M54.626 50.873V47.66q0-.367.406-.6.417-.235 1.038-.234.282 0 .575.044.723.133.97.612l1.23 2.312V46.87h1.66v3.313q0 .312-.407.523-.406.21-1.015.222-1.174.023-1.546-.678l-1.241-2.301v2.924zM61.438 47.46a.5.5 0 0 0-.045.2v.845q0 .233.27.433.486.356 1.366.356h1.455q.373.023.373.189v.289q0 .167-.406.233h-3.047v.868h3.453q.63 0 1.083-.145.666-.222.666-.7v-.812q0-.444-.644-.645a3.1 3.1 0 0 0-.992-.144h-1.377q-.383-.023-.44-.178-.011-.012-.011-.056v-.267q0-.177.383-.189l3.08-.01v-.857h-3.554q-1.308 0-1.613.59"/></svg>