<svg xmlns="http://www.w3.org/2000/svg" fill="none" viewBox="0 0 156 78"><path fill="#fff" d="M76.757 13.062A2.16 2.16 0 0 1 78 12.667v-.002a2.161 2.161 0 0 1 1.371 3.833v7.917h6.841l-3.505 2.217h-2.476v.923a10.3 10.3 0 0 0-4.65 0v-.923h-2.477l-3.307-2.217h6.835v-7.917a2.162 2.162 0 0 1 .125-3.436M78 28.195c-.782 0-1.562.089-2.324.266v14.203a5.65 5.65 0 0 0 4.65 0V28.461A10.2 10.2 0 0 0 78 28.195M81.705 34.032v-5.193a10.22 10.22 0 0 1 6.366 7.162h-4.823a5.66 5.66 0 0 0-1.543-1.97"/><path fill="#fff" d="M70.34 31.836a10.2 10.2 0 0 1 4.258-2.99v5.183a5.647 5.647 0 1 0 8.652 6.81h4.824a10.218 10.218 0 1 1-17.734-9.003M77.566 53.485v-.829c0-1.573-.826-2.639-1.992-2.639s-2.013 1.032-2.013 2.64c0 1.458.253 1.913.843 2.97q.09.163.19.345l1.145 1.81c.295.484.452 1.04.451 1.608 0 .693-.275 1.082-.615 1.082s-.617-.356-.617-1.082v-1.1h-1.386v1.234c0 1.693.891 2.657 2.002 2.657 1.112 0 2.036-.948 2.036-2.657 0-1.4-.342-2.046-.892-3.015l-1.378-2.415a2.6 2.6 0 0 1-.385-1.455c0-.538.264-.93.616-.93.33 0 .616.456.616 1.285v.491zM61.828 52.679v1.407l-1.386.006v-1.413c0-.36-.231-.97-.628-.97-.483 0-.692.614-.692.97v6.829c0 .355.209.964.692.964.397 0 .628-.609.628-.964v-1.42h1.386v1.425c0 1.201-.627 2.656-2.014 2.656-1.517 0-2.09-1.455-2.09-2.64v-6.85c0-1.202.573-2.657 2.09-2.657 1.387 0 2.014 1.455 2.014 2.657M75.99 65.269q.165.052.338.057v.009q.188.003.372-.037a.8.8 0 0 0 .271-.113.55.55 0 0 0 .168-.174.41.41 0 0 0-.073-.514 1.263 1.263 0 0 0-.195-.131 2 2 0 0 0-.135-.074l-.148-.07-.126-.057-.034-.016-.032-.017-.021-.01-.018-.01-.01-.004-.096-.05a1 1 0 0 1-.066-.043.2.2 0 0 1-.05-.072.3.3 0 0 1-.019-.094q0-.054.03-.097a.3.3 0 0 1 .079-.079.6.6 0 0 1 .323-.074.7.7 0 0 1 .215.039q.13.045.248.118l.232-.215a1.6 1.6 0 0 0-.332-.15 1.3 1.3 0 0 0-.34-.058 1.3 1.3 0 0 0-.331.04.9.9 0 0 0-.264.107.45.45 0 0 0-.235.378.43.43 0 0 0 .119.292q.222.185.494.286.148.065.25.119.079.038.15.09a.24.24 0 0 1 .072.165.21.21 0 0 1-.121.188.73.73 0 0 1-.351.064.7.7 0 0 1-.215-.038 1.2 1.2 0 0 1-.246-.12l-.232.216q.155.093.33.149M58.526 63.356v1.938h-.372v-1.938zM63.114 65.297l-1.379-1.386v1.386h-.372v-1.938h.283l1.366 1.38v-1.378h.375v1.938z"/><path fill="#fff" fill-rule="evenodd" d="M66.21 63.359v1.938l.67.003q.629 0 .994-.276a.87.87 0 0 0 .363-.719.81.81 0 0 0-.336-.705q-.339-.24-.985-.241zm.372 1.672v-1.409l.308.004q.969-.001.969.682a.67.67 0 0 1-.253.539 1 1 0 0 1-.145.074 1 1 0 0 1-.178.058 1.7 1.7 0 0 1-.426.052z" clip-rule="evenodd"/><path fill="#fff" d="M72.89 64.505q0 .822-.956.823-.918 0-.917-.795v-1.178h.373v1.161q0 .546.575.545c.383 0 .554-.176.554-.528v-1.178h.37zM81.022 63.623v1.674h-.373v-1.674h-.694v-.267h1.757v.267z"/><path fill="#fff" fill-rule="evenodd" d="m85.13 64.5.605.797.42.004-.023-.027-.028-.036-.029-.04-.023-.03-.02-.025-.03-.039-.048-.066-.116-.15-.108-.146-.027-.033-.024-.032-.016-.02-.03-.041-.017-.022-.06-.082-.016-.018-.014-.02-.015-.016-.013-.017q.099-.025.19-.067a.8.8 0 0 0 .153-.1.47.47 0 0 0 .172-.373.45.45 0 0 0-.053-.22.5.5 0 0 0-.156-.174 1 1 0 0 0-.575-.148h-.769v1.938h.373V64.5zm-.297-.265v-.612l.343-.008a.63.63 0 0 1 .343.075.24.24 0 0 1 .118.216.26.26 0 0 1-.036.135.3.3 0 0 1-.09.108.6.6 0 0 1-.161.064 1 1 0 0 1-.206.022z" clip-rule="evenodd"/><path fill="#fff" d="M89.311 63.356v1.938h-.372v-1.938zM92.143 63.359v1.938l1.386.003v-.266h-1.013v-.58h.89v-.265h-.89v-.563h.957v-.267zM96.93 65.326a1.2 1.2 0 0 1-.337-.057 1.6 1.6 0 0 1-.33-.149l.233-.215q.117.073.245.12.105.035.216.037a.7.7 0 0 0 .35-.064.21.21 0 0 0 .121-.188.24.24 0 0 0-.07-.166 1 1 0 0 0-.151-.09 4 4 0 0 0-.25-.118 1.7 1.7 0 0 1-.494-.286.42.42 0 0 1-.119-.292.45.45 0 0 1 .235-.378.9.9 0 0 1 .264-.107q.163-.042.33-.04.174.005.34.058.174.052.332.142l-.233.215a1.2 1.2 0 0 0-.247-.118.7.7 0 0 0-.215-.039.6.6 0 0 0-.324.075.3.3 0 0 0-.08.078.17.17 0 0 0-.028.097q0 .049.018.095.019.04.05.072.033.023.066.042a2 2 0 0 0 .125.064l.039.02.015.008.02.01.012.006.126.057q.075.034.149.07a2 2 0 0 1 .33.204.4.4 0 0 1 .132.3.4.4 0 0 1-.06.215.5.5 0 0 1-.167.173.8.8 0 0 1-.272.113q-.184.041-.372.037z"/><path fill="#fff" fill-rule="evenodd" d="M67.502 62.012 66.05 56.95c.66-.508 1.156-1.641 1.156-3.4 0-1.895-.628-3.384-1.949-3.384h-2.3v11.845h1.364v-4.77h.44l1.309 4.77zm-3.18-10.151h.896c.538 0 .681.745.681 1.692 0 1.723-.242 1.894-1.133 1.894h-.44z" clip-rule="evenodd"/><path fill="#fff" d="M71.058 59.508v-9.34h1.375v9.356c0 1.202-.616 2.64-1.99 2.64-1.507 0-2.068-1.438-2.068-2.64V50.17h1.374v9.339c0 .355.21.964.693.964.401 0 .616-.609.616-.964"/><path fill="#fff" fill-rule="evenodd" d="M82.809 62.012H81.43l-.276-2.758h-1.327l-.264 2.758h-1.298l1.584-11.845h1.376zm-2.32-8.713-.43 4.246h.88l-.417-4.246zM87.918 52.132c-.175-1.134-.825-1.963-1.606-1.963h-2.486v11.845h2.486c1.185 0 1.716-1.574 1.716-3.384v-5.077a10 10 0 0 0-.108-1.421zm-2.717 8.184V51.86h.825c.55 0 .694.745.694 1.692v5.075c0 .948-.144 1.692-.694 1.692z" clip-rule="evenodd"/><path fill="#fff" d="M92.569 50.169v1.692l-1.953.003v2.907h1.4v1.692h-1.4v3.861h2.101v1.69h-3.476V50.169z"/><path fill="#fff" fill-rule="evenodd" d="m98.276 62.012-1.453-5.061c.66-.508 1.156-1.641 1.156-3.4 0-1.895-.628-3.384-1.948-3.384h-2.298v11.845h1.364v-4.77h.44l1.309 4.77zM95.097 51.86h.892c.538 0 .681.745.681 1.692 0 1.723-.242 1.894-1.132 1.894h-.44z" clip-rule="evenodd"/></svg>