<svg xmlns="http://www.w3.org/2000/svg" fill="none" viewBox="0 0 156 78"><path fill="#C6021D" d="M63.424 42.83h.89v3.306h-.89zM68.747 42.83h.89v3.306h-.89zM78.992 42.83h.89v3.306h-.89zM99.365 42.83h.891v3.306h-.89zM104.725 42.83h.891v3.306h-.891z"/><path fill="#C6021D" fill-rule="evenodd" d="M42.17 53V40.083h71.649V53zm1.777-1.573h.89v-9.59h-.89zm5.36-.096h.848l.005-9.59h-.89v2.779c0 .213 0 .475.01.779v.032q.008.424.021.88l.048.912.038.752h-.022a45 45 0 0 0-.506-3.115 94 94 0 0 1-.528-3.024h-.843v9.595h.89v-2.779c0-.219 0-.475-.01-.768l-.001-.032q-.014-.44-.036-.896c-.011-.31-.022-.619-.038-.912q-.014-.456-.037-.752h.021q.202 1.61.491 3.115.297 1.503.539 3.024m4.944-8.502h.89l-.005-.992h-2.667v.992h.891v8.598h.89zm4.085 0h1.781v-.992h-1.781a.82.82 0 0 0-.635.294c-.17.192-.256.442-.25.698v7.606c-.006.256.08.512.25.709a.84.84 0 0 0 .635.283h1.781v-.992h-1.781v-3.307h1.333v-.992h-1.333zm6.037 8.262c.038.117.08.229.134.336h.912a4 4 0 0 1-.155-.347 1 1 0 0 1-.059-.363v-3.2q-.001-.438-.122-.629a.56.56 0 0 0-.278-.256c.107-.07.203-.155.278-.256q.121-.16.122-.512v-3.035a.99.99 0 0 0-.266-.698.78.78 0 0 0-.624-.294h-1.782v9.59h.891v-4.299h.89v3.584q.001.193.06.379m5.888-4.24c.176-.198.272-.454.267-.715v-3.307a1 1 0 0 0-.267-.698.78.78 0 0 0-.624-.294h-1.781v9.595h.89v-4.299h.891a.8.8 0 0 0 .624-.282m2.752 4.576h2.672v-2.982h-.89v1.99h-.891v-8.598h-.89zm6.87 0h.89l-.005-8.182c0-.197-.032-.394-.107-.576a1.6 1.6 0 0 0-.288-.469 1.4 1.4 0 0 0-.421-.32c-.325-.16-.71-.16-1.035 0-.16.08-.304.187-.421.32a1.6 1.6 0 0 0-.288.47 1.5 1.5 0 0 0-.107.575v8.182h.891v-4.299h.89zm5.37 0h.843l.005-9.584h-.89v2.778c0 .214 0 .475.01.779q.009.232.014.472l.013.44.048.912.037.752h-.026a45 45 0 0 0-.507-3.115 94 94 0 0 1-.528-3.024h-.843v9.59h.891v-2.779c0-.219 0-.475-.01-.768l-.002-.031a56 56 0 0 0-.036-.897c-.01-.31-.021-.619-.037-.912q-.015-.456-.038-.752h.027c.133 1.072.299 2.112.49 3.115q.298 1.503.54 3.024m4.416-8.598h1.782v-.992h-1.782a.82.82 0 0 0-.634.294c-.171.192-.256.442-.251.698v7.606c-.005.256.08.512.25.709a.84.84 0 0 0 .635.283h1.782v-.992h-1.782v-3.307h1.334v-.992h-1.334zm5.611 0h.885v-.992H93.5v.992h.89v8.598h.891zm4.976 8.598h.891v-8.182c0-.197-.032-.394-.107-.576a1.6 1.6 0 0 0-.288-.469 1.4 1.4 0 0 0-.421-.32c-.326-.16-.71-.16-1.035 0-.16.08-.304.187-.421.32a1.6 1.6 0 0 0-.288.47 1.5 1.5 0 0 0-.107.575v8.182h.885v-4.299h.891zm5.413-.336c.038.117.08.229.134.336h.912c-.059-.112-.107-.23-.155-.347a1 1 0 0 1-.059-.363v-3.2q-.001-.438-.122-.629a.56.56 0 0 0-.278-.256c.107-.07.203-.155.278-.256q.121-.16.122-.512v-3.035a.98.98 0 0 0-.266-.698.78.78 0 0 0-.624-.294h-1.782v9.59h.891v-4.299h.891v3.584q.001.193.058.379m5.915-4.502c.16-.256.245-.554.24-.858v-3.888h-.891v4.314h-.89v-4.314h-.891v3.893c-.005.304.08.603.24.859.155.245.384.437.651.549v4.283h.89v-4.288c.272-.112.496-.304.651-.55" clip-rule="evenodd"/><path fill="#C6021D" d="M71.808 25v3.328h9.947v10.235h3.349V25.032zM97.408 25.032l-6.437 5.552v4.592l2.112-1.728 4.842 5.12h2.342v-2.432l-4.619-4.747 4.139-4.106v-2.246zM42.17 25.032v3.323l9.398.01v6.891l-6.043-.043V29.14h-3.354v9.418c3.722-.005 11.173 0 11.173 0l1.621-1.658V26.733l-1.621-1.696H42.171zM58.277 25.032 56.635 26.6v11.957h3.333V33.4h.88l6.656 5.157h2.485v-2.485L66.54 33.4h3.434v-8.368h-9.232v3.275h5.926v1.728h-6.704v-5.003zM88.47 25.032l-1.67 1.552v11.979h3.285l-.016-11.979zM101.019 25.032v3.301h11.189l1.621-1.712-1.621-1.589zM101.019 29.09v7.718l1.573 1.75h9.621l1.606-1.697-1.606-1.626h-7.882V33.34h6.133l1.584-1.578-1.584-1.68h-6.133v-.944z"/><path fill="#C6021D" d="M71.808 29.139v9.424H75.2v-3.979h4.384l1.701-1.632-1.701-1.659H75.2v-2.149z"/></svg>