<svg xmlns="http://www.w3.org/2000/svg" width="156" height="78" fill="none" viewBox="0 0 156 78"><path fill="#DCDCDC" d="M65.646 57.759h-2.914v.893h2.347v.727h-2.347v.893h2.914v.727H62v-3.968h3.646zm5.326.342h-.732v-.303c0-.022-.017-.038-.034-.038h-2.434a.037.037 0 0 0-.038.038v.816c0 .022.016.038.038.038h2.434c.42 0 .766.342.766.766v.816a.77.77 0 0 1-.766.766h-2.434a.765.765 0 0 1-.766-.766v-.303h.727v.303c0 .022.016.038.038.038h2.434c.017 0 .034-.016.034-.038v-.816c0-.022-.017-.038-.034-.038h-2.434a.765.765 0 0 1-.765-.766v-.816c0-.424.341-.766.765-.766h2.434c.42 0 .766.342.766.766v.303Zm4.61-1.063c.424 0 .771.347.771.766v1.069a.77.77 0 0 1-.77.766l-2.451.006-.017-.006V61h-.726v-3.962h3.194Zm.038.766a.037.037 0 0 0-.038-.038h-2.428a.037.037 0 0 0-.039.038v1.069c0 .022.017.038.039.038h2.428a.037.037 0 0 0 .038-.038v-1.07Zm5.607-.045h-2.913v.893h2.347v.727h-2.347v.893h2.913v.727h-3.645v-3.968h3.645zm5.348 1.113c0 .42-.347.766-.772.766h-.215l.986 1.174V61h-.793l-1.146-1.36h-1.3V61h-.726v-3.962h3.194c.424 0 .771.347.771.766v1.069Zm-.77.04a.037.037 0 0 0 .037-.04v-1.068a.037.037 0 0 0-.038-.038h-2.428a.037.037 0 0 0-.038.038v1.069c0 .022.016.038.038.038zm2.185-1.88h.728V61h-.727zm5.239 0a.77.77 0 0 1 .771.766V61h-.732v-1.333h-2.506V61h-.727v-3.202c0-.424.342-.766.766-.766zm.038 1.907v-1.141a.037.037 0 0 0-.038-.038H90.8a.037.037 0 0 0-.038.038v1.14h2.506-.001ZM94 17H62v38.737h32z"/><path fill="#CA0004" fill-rule="evenodd" d="M92.548 54.28V43.075l-14.14 11.203h14.14Zm0-16.482V20.533l-5.585 8.897zm-7.436-19.345q1.085.86 1.892 2.298c.556.985.774 2.357.664 4.1l3.861-6.398h-6.418Z" clip-rule="evenodd"/><path fill="#190000" fill-rule="evenodd" d="M70.283 37.17c-3.962 4.082-1.06 8.324 1.783 9.52 2.819 1.187 3.55 3.93 1.733 6.523.042-2.929-2.558-4.579-4.18-3.257-.556.454-1.178 1.574-.934 4.326h-.909c-.168-2.66-1.935-4.781-2.683-5.496-2.927-2.845-3.373-10.607 5.181-11.625l.009.008ZM63.42 49.5c1.783 1.103 2.869 2.333 3.147 4.782H63.42zm13.155-31.05a43 43 0 0 1 3.71 3.181c-.034-.681-.32-1.204-.623-1.708a17 17 0 0 0-.959-1.465h4.038c1.422 1.195 3.457 3.198 3.112 6.237-.243 2.139-1.001 3.19-1.001 4.141s.984 2.223 2.961 4.765c-.084.749-.135 1.162-.16 1.254l4.071 5.312c-.336 1.001-1.22 2.12-2.027 2.693-.438-.185-.547-.674-.53-.968.016-.294.32-.69.32-1.347l-.581-.202c-.69 1.473-.135 2.5.58 3.013-1.564 1.044-3.171 2.046-5.131 2.071l-.017-.967c-.706.336-2.053.824-2.044.816 1.337-1.465.984-3.376.067-4.082-.917-.707-2.692-1.045-4.862 0-.252 1.515.193 3.35 1.573 4.52.883-.118 1.506-.11 2.481-.58l-.429 1.11h.034l2.716.362c-1.127 1.684-2.313 4.479-7.663 6.297 2.978-3.334 1.296-5.758-.505-6.44-2.894-1.102-3.524-3.83-3.163-4.899-.564.21-1.38 1.507-.664 2.677-2.86-1.835-1.733-4.63-.64-6.128.581-.042.892-.042 1.44.118l.117-.16-2.498-2.34c-2.726.236-5.241.85-6.872 3.367v-8.51c2.288 0 4.988.917 6.325 2.037-1.16-1.734-3.768-3.62-6.325-4.058v-10.11H76.59l-.018-.007h.002Zm4.803 14.09-.075.178 3.785 3.586c.034.033.135-.008.219-.017l-.993-1.836.673-.749-3.61-1.162zm-8.445-8.804c-1.077.74-.244 4.511.959 6.818-.564-2.121-.69-5.008-.185-5.295s3.777 2.845 5.03 4.411c.11-1.43.21-2.718.303-4.007l-.235-.068-.656 1.348c-.926-.893-4.139-3.948-5.216-3.207" clip-rule="evenodd"/><path fill="#DCDCDC" d="M92.53 18.47v35.797H63.47V18.471h29.06M94 17H62v38.737h32z"/></svg>