<svg xmlns="http://www.w3.org/2000/svg" width="156" height="78" fill="none" viewBox="0 0 156 78"><path fill="currentColor" d="M65.646 57.759h-2.914v.893h2.347v.727h-2.347v.893h2.914v.727H62v-3.968h3.646zm5.326.342h-.732v-.303c0-.022-.017-.038-.034-.038h-2.434a.037.037 0 0 0-.038.038v.816c0 .022.016.038.038.038h2.434c.42 0 .766.342.766.766v.816a.77.77 0 0 1-.766.766h-2.434a.765.765 0 0 1-.766-.766v-.303h.727v.303c0 .022.016.038.038.038h2.434c.017 0 .034-.016.034-.038v-.816c0-.022-.017-.038-.034-.038h-2.434a.765.765 0 0 1-.765-.766v-.816c0-.424.341-.766.765-.766h2.434c.42 0 .766.342.766.766v.303Zm4.61-1.063c.424 0 .771.347.771.766v1.069a.77.77 0 0 1-.77.766l-2.451.006-.017-.006V61h-.726v-3.962h3.194Zm.038.766a.037.037 0 0 0-.038-.038h-2.428a.037.037 0 0 0-.039.038v1.069c0 .022.017.038.039.038h2.428a.037.037 0 0 0 .038-.038v-1.07Zm5.607-.045h-2.913v.893h2.347v.727h-2.347v.893h2.913v.727h-3.645v-3.968h3.645zm5.348 1.113c0 .42-.347.766-.772.766h-.215l.986 1.174V61h-.793l-1.146-1.36h-1.3V61h-.726v-3.962h3.194c.424 0 .771.347.771.766v1.069Zm-.77.04a.037.037 0 0 0 .037-.04v-1.068a.037.037 0 0 0-.038-.038h-2.428a.037.037 0 0 0-.038.038v1.069c0 .022.016.038.038.038zm2.185-1.88h.728V61h-.727zm5.239 0a.77.77 0 0 1 .771.766V61h-.732v-1.333h-2.506V61h-.727v-3.202c0-.424.342-.766.766-.766zm.038 1.907v-1.141a.037.037 0 0 0-.038-.038H90.8a.037.037 0 0 0-.038.038v1.14h2.506-.001ZM62 17v38.737h32V17zm30.53 3.562v33.704H63.47V18.471h29.06z"/><path fill="currentColor" d="M78.382 52.946h12.826V42.784zm7.908-23.002 4.918 7.365V22.11l-4.917 7.833Zm.04-8.038c.514.912.717 2.183.615 3.797l3.567-5.91h-5.917q.993.792 1.735 2.113M72.494 45.928c-2.633-1.108-5.321-5.037-1.651-8.817l-.008-.009c-7.923.944-7.51 8.132-4.8 10.767.694.663 2.33 2.627 2.486 5.09h.84c-.225-2.549.352-3.586.865-4.007 1.504-1.223 3.912.304 3.873 3.017 1.683-2.4 1.005-4.942-1.606-6.041zm-5.097 7.018c-.244-2.115-1.14-3.245-2.605-4.217v4.217z"/><path fill="currentColor" d="M86.93 34.966c.024-.086.07-.468.148-1.161-1.83-2.355-2.743-3.532-2.743-4.413 0-.88.702-1.856.928-3.836.318-2.804-1.552-4.655-2.868-5.764H78.65q.472.65.879 1.344c.28.468.546.952.576 1.583a40 40 0 0 0-3.409-2.927H64.792v9.41c2.27.494 4.53 2.16 5.56 3.698-1.182-.988-3.509-1.806-5.56-1.88v7.454c1.51-1.978 3.703-2.492 6.066-2.697l2.314 2.168-.109.148c-.506-.148-.794-.148-1.332-.109-1.012 1.388-2.057 3.976.592 5.675-.663-1.084.093-2.284.615-2.479-.335.99.25 3.517 2.93 4.538 1.667.631 3.225 2.877.468 5.964 4.955-1.685 6.053-4.272 7.097-5.832l-2.517-.335h-.03l.397-1.03c-.904.437-1.48.43-2.299.538-1.278-1.084-1.69-2.783-1.456-4.186 2.01-.967 3.653-.655 4.502 0 .85.654 1.177 2.424-.062 3.78-.008.009 1.239-.444 1.893-.755l.016.896c1.815-.024 3.303-.952 4.752-1.918-.663-.475-1.176-1.427-.538-2.79l.538.186c0 .608-.28.974-.296 1.247s.086.725.49.897c.749-.53 1.567-1.568 1.878-2.496l-3.77-4.92zm-8.258-4.801c-1.16-1.45-4.19-4.35-4.659-4.085-.467.264-.35 2.938.172 4.903-1.114-2.136-1.886-5.63-.889-6.315s3.974 2.144 4.83 2.97l.608-1.247.218.063c-.086 1.193-.179 2.386-.28 3.71Zm5.882 6.143-3.506-3.322.07-.163L84.46 33.9l-.624.694.92 1.7c-.079.008-.172.047-.203.015Z"/></svg>