<svg xmlns="http://www.w3.org/2000/svg" fill="none" viewBox="0 0 156 78"><path fill="currentColor" d="m55.501 21 13.117.001-1.232 2.143h-8.192l2.866 4.989 1.23-2.143-.404-.704h3.258l.012-.001v.001l-1.634 2.847v-.002l-2.462 4.287v-.003zM74.123 32.42h2.462L70.028 21l-6.556 11.42h2.46l4.096-7.134zM83.338 23.119 84.554 21H71.442l1.216 2.119h4.11v7.157l1.23 2.143 1.23-2.143v-7.157zM90.064 32.42h2.46L85.968 21 79.41 32.42h2.462l4.094-7.134zM100.499 21.004l-1.232 2.142-8.192-.002 4.098 7.132-1.23 2.143-6.56-11.418zM63.35 34.137l.327-.57c.08-.14.23-.226.39-.226h11.975c.162 0 .31.086.39.226l.328.57c.08.14.08.313 0 .454l-5.988 10.428a.45.45 0 0 1-.391.227h-.655a.45.45 0 0 1-.39-.227L63.35 34.59a.46.46 0 0 1 0-.454M77.146 38.134l-.598-.16a.45.45 0 0 0-.509.213l-5.064 8.847a.45.45 0 0 0-.06.226v.44c0 .078.02.156.06.225l5.064 8.847c.103.178.311.266.51.213l.597-.161a.45.45 0 0 0 .335-.44v-17.81a.45.45 0 0 0-.335-.44M78.92 38.134l.598-.16a.45.45 0 0 1 .509.213l5.064 8.847c.04.068.06.147.06.226v.44c0 .078-.02.156-.06.225l-5.064 8.847a.45.45 0 0 1-.509.213l-.598-.161a.45.45 0 0 1-.335-.44v-17.81c0-.207.137-.387.335-.44M79.654 33.567l-.327.57h-.003a.46.46 0 0 0 0 .454l5.988 10.428c.08.142.23.227.391.227h.655a.45.45 0 0 0 .39-.227l5.989-10.428a.46.46 0 0 0 0-.454l-.327-.57a.45.45 0 0 0-.39-.226H80.044a.45.45 0 0 0-.391.226"/></svg>