<svg xmlns="http://www.w3.org/2000/svg" fill="none" viewBox="0 0 156 78"><path fill="currentColor" d="M77.926 45.68c-8.189 0-14.85-6.607-14.85-14.729s6.661-14.732 14.85-14.732c5.544 0 10.537 3.05 13.085 7.794h-4.3a11.24 11.24 0 0 0-8.785-4.211c-6.197 0-11.237 5-11.237 11.149 0 6.147 5.04 11.147 11.237 11.147 3.44 0 6.66-1.557 8.785-4.21h4.3c-2.547 4.743-7.542 7.792-13.085 7.792"/><path fill="currentColor" d="M96.084 27.43h.007l-.012-.032C94.41 19 86.954 12.665 78 12.665c-10.182 0-18.434 8.187-18.434 18.286S67.818 49.237 78 49.237 96.434 41.05 96.434 30.95c0-1.205-.126-2.38-.35-3.52m-1.902 7.04a16 16 0 0 1-.488 1.71A16.55 16.55 0 0 1 78 47.39c-9.153 0-16.574-7.36-16.574-16.439S68.847 14.511 78 14.511a16.55 16.55 0 0 1 15.695 11.211H85.91a9.5 9.5 0 0 0-7.91-4.21c-5.254 0-9.515 4.226-9.515 9.44S72.745 40.39 78 40.39a9.51 9.51 0 0 0 7.91-4.21c.36-.535.669-1.105.914-1.71H75.13v-7.04h19.053c.251 1.135.391 2.311.391 3.521s-.14 2.385-.39 3.52m-10.456 1.71A7.8 7.8 0 0 1 78 38.681c-4.297 0-7.793-3.468-7.793-7.73S73.703 23.22 78 23.22c2.197 0 4.263.918 5.728 2.503H73.407V36.18h10.32"/><path fill="currentColor" d="M78.919 29.552v.628a.04.04 0 0 1-.035.034h-.58c-.025 0-.041-.016-.041-.034v-.413a.143.143 0 0 0-.143-.14h-.44a.143.143 0 0 0-.14.14v2.379c0 .075.065.14.14.14h.44a.144.144 0 0 0 .142-.14v-.506h-.328c-.017 0-.037-.017-.037-.035v-.576c0-.017.02-.035.037-.035h.95c.018 0 .035.018.035.035v1.332a.583.583 0 0 1-.58.576h-.876a.583.583 0 0 1-.58-.576v-2.81c0-.312.264-.575.58-.575h.876c.316 0 .58.262.58.576M81.424 29.547v1.662a.58.58 0 0 1-.262.484l.25 1.204c.008.017-.005.035-.028.035h-.575a.05.05 0 0 1-.047-.035l-.228-1.111h-.488v1.111c0 .017-.018.035-.041.035h-.581c-.018 0-.035-.018-.035-.035v-3.885c0-.024.017-.041.035-.041h1.42c.317 0 .579.26.579.576m-.657.215a.14.14 0 0 0-.14-.14h-.58v1.517h.58c.076 0 .14-.063.14-.144zM82.55 29.623v1.005h.904c.023 0 .042.017.042.036v.575c0 .017-.019.034-.042.034h-.904v1.008h1.12a.04.04 0 0 1 .042.041v.576c0 .017-.017.035-.042.035h-1.736c-.023 0-.041-.018-.041-.035v-3.886a.04.04 0 0 1 .04-.04h1.737c.025 0 .042.015.042.04v.576c0 .017-.017.035-.042.035zM86.188 30.017l-.668 1.891c-.008.018-.013.035-.013.035v.954c0 .017-.012.035-.035.035h-.58c-.017 0-.037-.018-.037-.035v-.954l-.01-.035-.664-1.891c-.005-.018-.017-.047-.017-.07l-.064-.936c-.006-.024.011-.041.029-.041h.58c.025 0 .04.016.04.04l.067.937c.005.023.011.052.017.07l.34.966c.005.017.018.017.022 0l.34-.966.014-.034v-.036l.07-.936c0-.024.017-.041.034-.041h.581c.025 0 .035.016.035.04l-.07.937v.036s-.007.016-.012.034M88.682 29.552v.64c0 .017-.019.034-.035.034h-.581c-.025 0-.035-.017-.035-.034v-.425c0-.076-.07-.14-.147-.14h-.434a.143.143 0 0 0-.146.14v2.379c0 .075.064.14.146.14h.434c.076 0 .147-.065.147-.14v-.42c0-.023.011-.039.035-.039h.58c.018 0 .036.016.036.04v.634a.584.584 0 0 1-.582.576h-.867a.58.58 0 0 1-.581-.576v-2.81a.58.58 0 0 1 .58-.575h.868c.317 0 .582.262.582.576M91.175 32.897a.034.034 0 0 1-.037.035h-.58c-.017 0-.035-.018-.035-.035l-.045-.617h-.774l-.048.617c0 .017-.019.035-.036.035h-.58c-.024 0-.035-.018-.035-.035l.07-.978.68-2.913c.008-.012.018-.03.035-.03.006-.005.592-.005.598 0 .017 0 .03.018.034.03l.682 2.913.07.978m-.786-1.262-.298-1.268-.3 1.267zM93.105 29.018v.575a.035.035 0 0 1-.036.035h-.65v3.275c0 .018-.019.035-.037.035h-.58c-.024 0-.036-.017-.036-.035v-3.275h-.657c-.017 0-.033-.017-.033-.035v-.575c0-.024.016-.041.033-.041h1.96c.022 0 .035.017.035.041zM64.191 53.444v1.429c0 .04-.039.078-.08.078h-1.318c-.054 0-.093-.038-.093-.078v-.94a.325.325 0 0 0-.323-.317h-.998a.324.324 0 0 0-.32.318v5.407c0 .17.147.318.32.318h.998a.326.326 0 0 0 .323-.318v-1.15h-.747c-.04 0-.082-.039-.082-.08v-1.307c0-.041.042-.08.082-.08h2.16c.04 0 .079.04.079.08v3.026c0 .715-.6 1.309-1.318 1.309h-1.99a1.325 1.325 0 0 1-1.318-1.31v-6.385c0-.712.6-1.308 1.319-1.308h1.989c.718 0 1.318.596 1.318 1.308M69.884 53.432v3.78c0 .462-.237.86-.596 1.099l.57 2.737c.017.038-.013.08-.065.08h-1.307a.115.115 0 0 1-.105-.08l-.52-2.526h-1.107v2.526c0 .038-.042.08-.093.08h-1.32c-.041 0-.08-.042-.08-.08v-8.831c0-.055.038-.093.08-.093h3.227c.72 0 1.317.594 1.317 1.308zm-1.492.49a.32.32 0 0 0-.32-.318h-1.318v3.448h1.318c.175 0 .32-.144.32-.329zM72.445 55.891h2.053c.055 0 .095.038.095.08v1.308c0 .04-.04.076-.095.076h-2.053v2.289h2.547c.054 0 .095.04.095.095v1.308c0 .038-.04.08-.096.08h-3.946c-.052 0-.093-.042-.093-.08v-8.831a.09.09 0 0 1 .093-.093h3.947c.054 0 .095.037.095.093v1.308c0 .038-.04.08-.096.08h-2.546zM80.713 54.501 79.195 58.8c-.017.04-.03.08-.03.08v2.167c0 .038-.025.08-.08.08h-1.318c-.04 0-.082-.041-.082-.08V58.88s-.01-.041-.025-.08L76.153 54.5c-.011-.04-.04-.106-.04-.158l-.144-2.127a.07.07 0 0 1 .065-.093h1.319c.056 0 .09.037.09.093l.15 2.127c.012.05.028.119.042.158l.773 2.195c.01.04.041.04.05 0l.773-2.195.03-.077v-.08l.159-2.127c0-.055.04-.093.08-.093h1.32c.054 0 .08.037.08.093l-.16 2.127v.08s-.016.038-.027.077M86.38 53.444V54.9c0 .04-.041.077-.08.077h-1.32c-.055 0-.08-.038-.08-.077v-.965c0-.172-.161-.318-.334-.318h-.986a.325.325 0 0 0-.332.318v5.407c0 .17.146.318.332.318h.986c.174 0 .334-.148.334-.318v-.953c0-.052.025-.09.08-.09h1.32c.039 0 .08.038.08.09v1.442c0 .715-.602 1.309-1.32 1.309h-1.974c-.732 0-1.32-.594-1.32-1.31v-6.385a1.32 1.32 0 0 1 1.32-1.308h1.974c.718 0 1.32.596 1.32 1.308M92.047 61.047c0 .038-.027.08-.082.08h-1.318c-.039 0-.08-.042-.08-.08l-.105-1.403h-1.759l-.107 1.403c0 .038-.043.08-.082.08h-1.318c-.055 0-.08-.042-.08-.08l.16-2.222 1.545-6.62c.016-.03.04-.068.08-.068a25 25 0 0 1 1.359 0c.039 0 .067.04.08.067l1.548 6.62zm-1.787-2.87-.677-2.88-.682 2.88zM96.434 52.23v1.306c0 .041-.03.08-.081.08h-1.478v7.444c0 .04-.041.078-.082.078h-1.319c-.054 0-.081-.038-.081-.078v-7.445H91.9c-.039 0-.076-.038-.076-.08V52.23c0-.054.036-.094.076-.094h4.453c.052 0 .081.04.081.094M59.566 65.324v-.328h.42v-2.23h-.42v-.329h1.204v.329h-.426v2.23h.426v.328zM64.502 65.324v-.876l-1.314-1.428v2.304h-.362v-2.887h.321l1.355 1.483v-1.483h.361v2.887zM68.34 65.324h-1.42v-2.887h1.42c.37 0 .637.269.637.632v1.623a.614.614 0 0 1-.637.632m.275-2.285c0-.134-.11-.264-.25-.264H67.27v2.21h1.094c.14 0 .25-.129.25-.264zM72.443 65.324h-.773a.614.614 0 0 1-.637-.632v-2.255h.371v2.285c0 .135.11.264.25.264h.804c.14 0 .25-.13.25-.264v-2.285h.371v2.255a.614.614 0 0 1-.637.632zM76.497 65.335h-.773a.617.617 0 0 1-.637-.633v-.119h.35v.15c0 .134.111.263.251.263h.843c.141 0 .25-.129.25-.264v-.398a.264.264 0 0 0-.25-.264l-.787-.025c-.367-.01-.637-.268-.637-.632v-.343c0-.364.27-.632.637-.632h.712c.37 0 .637.268.637.632v.124h-.35v-.154c0-.134-.112-.264-.252-.264h-.782c-.14 0-.25.13-.25.264v.403c0 .135.11.26.25.264l.787.02c.362.01.638.269.638.632v.343a.614.614 0 0 1-.638.633M80.253 62.776v2.548h-.386v-2.548h-.878v-.339h2.147v.339zM84.709 65.324v-.94c0-.215-.06-.33-.281-.33H83.39v1.27h-.346v-2.887h1.39c.366 0 .637.269.637.632v.329c0 .373-.261.478-.261.478s.26.094.26.438v1.01zm0-2.294c0-.135-.116-.279-.251-.279h-1.069v.956h1.014c.236 0 .306-.095.306-.314zM87.127 65.324v-.328h.42v-2.23h-.42v-.329h1.204v.329h-.427v2.23h.427v.328zM92.444 65.324h-.356v-.955h-1.345v.955h-.356v-1.777c0-.199.035-.314.165-.448l.673-.662h.381l.672.662c.131.135.166.25.166.448zm-.441-1.996-.562-.582h-.04l-.572.582c-.08.085-.086.13-.086.25v.477h1.345v-.478c0-.12-.006-.164-.086-.249M94.5 65.324v-2.887h.372v2.549h1.304v.338z"/></svg>