<svg xmlns="http://www.w3.org/2000/svg" width="156" height="78" fill="none" viewBox="0 0 156 78"><path fill="url(#a)" fill-rule="evenodd" d="M79.676 32.276v19.692l-1.351 2.023-1.371-2.023V36.085l.718-2.655-1.068.508.64-1.04h.572l.169-.622zm-1.544.934.658-.313h-.97z" clip-rule="evenodd"/><path fill="url(#b)" d="m74.647 36.233 1.812 2.741v6.333l-1.812 2.773z"/><path fill="url(#c)" d="M82 36.233V48.08l-1.812-2.773v-6.333L82 36.234Z"/><path fill="url(#d)" d="M74.108 35.373V47.64l-1.823-2.734V34.523h1.259z"/><path fill="url(#e)" d="M84.362 44.906 82.54 47.64V35.373l.563-.85h1.26v10.383Z"/><path fill="url(#f)" d="m71.746 44.096-1.823-2.735v-6.838h1.823z"/><path fill="url(#g)" d="m86.725 41.361-1.823 2.735v-9.573h1.823z"/><path fill="url(#h)" d="m69.383 40.551-1.781-2.673v-3.355h1.781z"/><path fill="url(#i)" d="m89.046 37.878-1.782 2.673v-6.028h1.782z"/><path fill="url(#j)" d="m74.556 32.276 1.903 2.858v2.907l-2.66-4.003h-8.833l-1.162-1.762z"/><path fill="url(#k)" d="M91.681 34.038h-8.834l-2.659 4.003v-2.907l1.903-2.858h10.753z"/><path fill="url(#l)" d="M67.081 37.157 65.3 34.53v-.006h1.781v2.634Z"/><path fill="url(#m)" d="m91.348 34.53-1.782 2.627v-2.634h1.782z"/><path fill="url(#n)" fill-rule="evenodd" d="M95.32 28.522H61.327l-4.704-7.083h43.401zm-33.338-1.15h1.67v-4.775h-1.67v4.776Zm2.589-1.143.678 1.144v-.001h1.941l-1.49-2.516-1.128 1.373Zm3.09 1.134h1.666v-4.775H67.66v4.775Zm2.007-3.546h1.337v.765h-1.337v1.23h.751l.6 1.551h1.77l-.83-1.871.68-.745V23.38l-.713-.793h-2.258zm3.647 2.711.761.835h1.537V26h-.628v-3.412h-1.67zM76.569 26h-.614v1.363h1.524l.76-.834v-3.941h-1.67zm2.347-2.586v3.114l.76.835h1.644v-1.257h-.735v-2.26h.735v-1.258h-1.651zm2.119 2.223h1.346v.468h-.72v1.258h1.636l.753-.826v-2.043h-3.015zm3.692 1.726h1.67v-4.775h-1.67zm2.012 0h2.12v-1.258h-2.12zm2.798 0h1.669v-4.775h-1.67v4.775Zm2.01-3.546h1.334v.765h-1.334v1.23h.748l.6 1.551h1.771l-.83-1.871.68-.745V23.38l-.714-.793h-2.255zm-27.553.236v2.34l3.119-3.797h-1.918l-1.2 1.457Zm22.745 1.537h1.614v-1.23h-1.614zm-5.078-1.745h.684v.334h1.67v-.756l-.761-.835H81.66v1.257Zm5.078 0h2.12v-1.258h-2.12z" clip-rule="evenodd"/><path fill="url(#o)" fill-rule="evenodd" d="M78.306 58.388 52.074 19.04h52.465L78.306 58.39Zm.017-2.555 23.621-35.43H54.703z" clip-rule="evenodd"/><path fill="url(#p)" fill-rule="evenodd" d="m79.715 51.98-.006.01-1.384 2.071-1.404-2.07-.006-.01V36.08l.001-.005.696-2.573-1.111.529.722-1.172h.503v-.001h.06l.169-.621h1.76zm-1.847-19.122h1.097l-.766.364.028.028h-.27l.108-.051-.26-.262h-.539l-.559.909 1.026-.488-.74 2.733v15.865l1.332 1.964 1.312-1.964v-19.64h-1.622zm.272.305.476-.226h-.701z" clip-rule="evenodd"/><path fill="url(#q)" fill-rule="evenodd" d="m76.492 38.953.007.01v6.356l-1.891 2.892V36.103zm-1.806 8.995 1.734-2.653v-6.309l-1.734-2.622z" clip-rule="evenodd"/><path fill="url(#r)" fill-rule="evenodd" d="m82.04 48.212-1.891-2.893v-6.357l.006-.01 1.885-2.85zm-1.813-9.226v6.31l1.734 2.652V36.364z" clip-rule="evenodd"/><path fill="url(#s)" fill-rule="evenodd" d="m74.14 35.351.007.01V47.77l-1.9-2.851V34.484h1.318zm-1.815 9.543 1.743 2.616V35.385l-.545-.822h-1.198v10.33Z" clip-rule="evenodd"/><path fill="url(#t)" fill-rule="evenodd" d="m84.401 44.918-1.9 2.851V35.361l.006-.01.575-.867h1.32zm-1.822-9.533V47.51l1.744-2.616V34.563h-1.198z" clip-rule="evenodd"/><path fill="url(#u)" fill-rule="evenodd" d="m86.764 41.373-1.901 2.853v-9.742h1.9zm-1.822 2.593 1.743-2.617v-6.786h-1.743z" clip-rule="evenodd"/><path fill="url(#v)" fill-rule="evenodd" d="m71.785 44.226-1.895-2.843-.007-.01v-6.89h1.902zm-1.823-2.877 1.745 2.617v-9.404h-1.745z" clip-rule="evenodd"/><path fill="url(#w)" fill-rule="evenodd" d="M69.423 40.681 67.569 37.9l-.006-.01v-3.406h1.86zm-1.782-2.815 1.703 2.556v-5.86h-1.703z" clip-rule="evenodd"/><path fill="url(#x)" fill-rule="evenodd" d="m89.085 37.89-1.86 2.791v-6.197h1.86zm-1.782 2.532 1.703-2.556v-3.303h-1.703z" clip-rule="evenodd"/><path fill="url(#y)" fill-rule="evenodd" d="M76.499 35.122v3.049l-2.72-4.093h-8.834l-.012-.018-1.202-1.823h10.846zm-11.512-1.123h8.834l.012.018 2.587 3.894v-2.765l-1.885-2.83H63.877z" clip-rule="evenodd"/><path fill="url(#z)" fill-rule="evenodd" d="m91.714 34.06-.011.018h-8.835l-2.72 4.093v-3.05l1.922-2.884h10.847zm-11.487 1.086v2.765l2.588-3.894.011-.018h8.834l1.11-1.683H82.112z" clip-rule="evenodd"/><path fill="url(#A)" fill-rule="evenodd" d="m67.12 37.285-1.86-2.743v-.058h1.86zm-.078-.256v-2.467H65.37z" clip-rule="evenodd"/><path fill="url(#B)" fill-rule="evenodd" d="m91.387 34.541-1.86 2.744v-2.801h1.86zm-1.782 2.488 1.673-2.467h-1.673z" clip-rule="evenodd"/><path fill="url(#C)" fill-rule="evenodd" d="M67.26 27.411h-1.972v.105l-.75-1.267-.015-.023 1.18-1.438zm-2.641-1.178.652 1.1h1.85l-1.428-2.409z" clip-rule="evenodd"/><path fill="url(#D)" fill-rule="evenodd" d="M63.69 27.412h-1.747v-4.854h1.748zm-1.668-.079h1.59v-4.696h-1.59z" clip-rule="evenodd"/><path fill="url(#E)" fill-rule="evenodd" d="M69.366 27.403h-1.745v-4.854h1.745zm-1.666-.08h1.588v-4.696H67.7v4.697Z" clip-rule="evenodd"/><path fill="url(#F)" fill-rule="evenodd" d="m72.668 23.355.01.011v1.396l-.01.011-.662.726.844 1.904h-1.857l-.6-1.551h-.764v-1.31h1.337v-.686H69.63v-1.308h2.314zm-2.96.423h1.337v.843h-1.337v1.152h.738l.01.025.59 1.526h1.683l-.816-1.84.687-.753v-1.335l-.692-.769h-2.2v1.15Z" clip-rule="evenodd"/><path fill="url(#G)" fill-rule="evenodd" d="M75.024 25.96h.628v1.443H74.06l-.012-.013-.76-.835-.01-.011v-3.995h1.747zm-1.67.553.74.81h1.48V26.04h-.628v-3.412h-1.591v3.886Z" clip-rule="evenodd"/><path fill="url(#H)" fill-rule="evenodd" d="m78.277 26.544-.77.846-.012.013h-1.58V25.96h.614v-3.412h1.748zm-1.67-.505h-.613v1.285h1.466l.739-.81v-3.887h-1.591v3.413Z" clip-rule="evenodd"/><path fill="url(#I)" fill-rule="evenodd" d="M81.358 23.886h-.735v2.18h.735v1.298h-.04v.039h-1.66l-.012-.013-.76-.835-.01-.011v-3.145l.763-.838.011-.012h1.708zm-2.404-.457v3.084l.739.81h1.587v-1.178h-.735v-2.338h.734v-1.18h-1.594z" clip-rule="evenodd"/><path fill="url(#J)" fill-rule="evenodd" d="m84.088 26.552-.763.838-.012.013h-1.692v-1.337h.72v-.39h-1.346v-1.221h3.093zm-3.015-.954h1.346v.546h-.72v1.18h1.58l.73-.802v-1.989h-2.936z" clip-rule="evenodd"/><path fill="url(#K)" fill-rule="evenodd" d="M86.436 27.403h-1.749v-4.854h1.749zm-1.67-.08h1.591v-4.696h-1.591v4.697Z" clip-rule="evenodd"/><path fill="url(#L)" fill-rule="evenodd" d="M88.898 27.403h-2.2v-1.337h2.2zm-2.12-.08h2.041v-1.179h-2.042v1.18Z" clip-rule="evenodd"/><path fill="url(#M)" fill-rule="evenodd" d="M91.244 27.403h-1.748v-4.854h1.748zm-1.67-.08h1.592v-4.696h-1.591v4.697Z" clip-rule="evenodd"/><path fill="url(#N)" fill-rule="evenodd" d="m93.83 22.561.713.794.01.011v1.396l-.01.011-.662.726.844 1.904h-1.857l-.601-1.551h-.76v-1.31h1.334v-.686h-1.335v-1.308h2.312l.012.014Zm-2.245 1.217h1.335v.843h-1.335v1.152h.736l.01.025.59 1.526h1.684l-.816-1.84.686-.753v-1.335l-.692-.769h-2.198v1.15Z" clip-rule="evenodd"/><path fill="url(#O)" fill-rule="evenodd" d="M63.954 26.503v-2.45h.038l-.03-.025 1.201-1.457.012-.014h2.02zm.078-2.436v2.217l2.997-3.648h-1.817z" clip-rule="evenodd"/><path fill="url(#P)" fill-rule="evenodd" d="M88.392 25.63h-1.693v-1.31h1.693zm-1.615-.08h1.536V24.4h-1.536z" clip-rule="evenodd"/><path fill="url(#Q)" fill-rule="evenodd" d="m83.282 22.561.76.835.01.011v.811h-1.747v-.333h-.684v-1.298h.04v-.038h1.609zM81.7 23.806h.683v.334h1.591v-.702l-.739-.81H81.7z" clip-rule="evenodd"/><path fill="url(#R)" fill-rule="evenodd" d="M88.898 23.885h-2.2v-1.337h2.2zm-2.12-.079h2.041v-1.18h-2.042v1.18Z" clip-rule="evenodd"/><path fill="url(#S)" fill-rule="evenodd" d="M95.341 28.561H61.306l-4.756-7.162h43.547zm-33.993-.079h33.95l4.653-7.004H56.696z" clip-rule="evenodd"/><path fill="url(#T)" fill-rule="evenodd" d="M78.323 55.904 54.63 20.364h47.387zm0-.142 23.547-35.32H54.776z" clip-rule="evenodd"/><path fill="url(#U)" fill-rule="evenodd" d="m78.306 58.46-.033-.05L52 19h52.612zm0-.143 26.159-39.238H52.147z" clip-rule="evenodd"/><path fill="#fff" d="M76.88 29.675v.425h-.393v-.262l-.076-.075h-.871l-.076.075v1.094l.076.076h.87l.077-.076v-.283h-.68v-.394h1.073l-.003.843-.305.306-1.192-.003-.306-.303-.003-1.423.31-.307h1.19zm3.9 1.335h1.168v.394l-1.56-.001v-2.035h.393v1.641Zm6.43-1.334v.425h-.393v-.261l-.077-.076h-.87l-.077.076v1.093l.077.076h.87l.077-.076v-.258h.393l-.003.423-.306.306H85.71l-.308-.306.001-1.42.308-.309h1.19l.31.307Zm6.39 0v.425h-.393v-.261l-.076-.076h-.87l-.076.076v1.093l.076.076h.87l.076-.076v-.258h.394l-.004.423-.304.306H92.1l-.308-.306v-1.42l.309-.309h1.19zm-30.012-.306v2.032h-.393v-2.031h.393Zm2.415 1.428v-1.427h.394v2.031h-.431l-1.06-1.418v1.418h-.394v-2.031l.431-.001zm2.971-1.034h-.737v1.638h-.393v-1.638h-.736v-.394h1.865v.394Zm2.441 0H70.15v.425h1.134v.394H70.15v.425h1.265v.394h-1.657v-2.031h1.657z"/><path fill="#fff" fill-rule="evenodd" d="M79.741 31.402h-.427l-.223-.528h-.903l-.224.528h-.427l.862-2.031h.48zm-1.385-.922h.568l-.284-.67zm6.376.922h-.427l-.224-.528h-.902l-.225.528h-.427l.862-2.031h.48zm-1.387-.922h.569l-.285-.67z" clip-rule="evenodd"/><path fill="#fff" d="M89.79 29.764h-.736v1.638h-.392v-1.638h-.737v-.394h1.865zm1.17 1.638h-.393v-2.031h.392v2.031Z"/><path fill="#fff" fill-rule="evenodd" d="M74.141 29.747v.508l-.255.255.364.891h-.424l-.314-.77h-.81v.77h-.393V29.37h1.456zm-1.439.491h.902l.146-.146v-.183l-.146-.145h-.902z" clip-rule="evenodd"/><path fill="url(#V)" d="M76.88 29.675v.425h-.393v-.262l-.076-.075h-.871l-.076.075v1.094l.076.076h.87l.077-.076v-.283h-.68v-.394h1.073l-.003.843-.305.306-1.192-.003-.306-.303-.003-1.423.31-.307h1.19z"/><path fill="url(#W)" d="M80.78 31.01h1.168v.394l-1.56-.001v-2.035h.393v1.641Z"/><path fill="url(#X)" d="M87.21 29.676v.425h-.393v-.261l-.077-.076h-.87l-.077.076v1.093l.077.076h.87l.077-.076v-.258h.393l-.003.423-.306.306H85.71l-.308-.306.001-1.42.308-.309h1.19l.31.307Z"/><path fill="url(#Y)" d="M93.6 29.676v.425h-.393v-.261l-.076-.076h-.87l-.076.076v1.093l.076.076h.87l.076-.076v-.258h.394l-.004.423-.304.306H92.1l-.308-.306v-1.42l.309-.309h1.19z"/><path fill="url(#Z)" d="M63.588 29.37v2.032h-.393v-2.031h.393Z"/><path fill="url(#aa)" d="M66.003 30.798v-1.427h.394v2.031h-.431l-1.06-1.418v1.418h-.394v-2.031l.431-.001z"/><path fill="url(#ab)" d="M68.974 29.764h-.737v1.638h-.393v-1.638h-.736v-.394h1.865v.394Z"/><path fill="url(#ac)" d="M71.415 29.764H70.15v.425h1.134v.394H70.15v.425h1.265v.394h-1.657v-2.031h1.657z"/><path fill="url(#ad)" fill-rule="evenodd" d="M79.741 31.402h-.427l-.223-.528h-.903l-.224.528h-.427l.862-2.031h.48zm-1.385-.922h.568l-.284-.67z" clip-rule="evenodd"/><path fill="url(#ae)" fill-rule="evenodd" d="M84.732 31.402h-.427l-.224-.528h-.902l-.225.528h-.427l.862-2.031h.48zm-1.387-.922h.569l-.285-.67z" clip-rule="evenodd"/><path fill="url(#af)" d="M89.79 29.764h-.736v1.638h-.392v-1.638h-.737v-.394h1.865z"/><path fill="url(#ag)" d="M90.96 31.402h-.393v-2.031h.392v2.031Z"/><path fill="url(#ah)" fill-rule="evenodd" d="M74.141 29.747v.508l-.255.255.364.891h-.424l-.314-.77h-.81v.77h-.393V29.37h1.456zm-1.439.491h.902l.146-.146v-.183l-.146-.145h-.902z" clip-rule="evenodd"/><path fill="url(#ai)" fill-rule="evenodd" d="m76.6 29.34.307.308.012.011v.48h-.471v-.284l-.053-.053h-.839l-.053.053v1.06l.053.053h.838l.054-.052v-.228h-.68v-.472h1.152l-.004.898-.011.011-.306.306-.011.012h-.016l-1.192-.003h-.016l-.33-.326v-.017l-.002-1.422v-.016l.011-.012.31-.306.011-.012h1.224l.011.01Zm-1.203.068-.287.284.003 1.389.284.28 1.158.003.283-.283.003-.786h-.994v.314h.68v.34l-.013.011-.076.076-.011.011h-.903l-.012-.011-.076-.076-.012-.011v-1.127l.012-.012.076-.075.012-.012h.903l.011.012.076.075.012.012v.239h.314v-.37l-.285-.284h-1.158Z" clip-rule="evenodd"/><path fill="url(#aj)" fill-rule="evenodd" d="M80.82 30.97h1.168v.473h-1.639v-2.115h.471zm-.392.393 1.481.001v-.315h-1.167v-1.642h-.314z" clip-rule="evenodd"/><path fill="url(#ak)" fill-rule="evenodd" d="m86.927 29.341.31.307.011.012v.48h-.47v-.284l-.054-.053h-.838l-.053.053v1.06l.053.054h.838l.053-.053v-.282h.472l-.003.463v.017l-.011.011-.306.305-.011.012h-1.225l-.012-.012-.308-.305-.011-.011v-.017l.001-1.42v-.017l.012-.011.308-.309.011-.011h1.222zm-1.485.353-.002 1.388.285.282h1.16l.283-.282.002-.368h-.314v.235l-.088.088-.011.012h-.904l-.099-.1v-1.126l.1-.099h.903l.011.012.088.087v.239h.314v-.37l-.286-.284h-1.157z" clip-rule="evenodd"/><path fill="url(#al)" fill-rule="evenodd" d="m93.318 29.341.31.307.01.012v.48h-.47v-.284l-.053-.053h-.838l-.053.053v1.06l.053.054h.838l.053-.053v-.282h.473l-.005.48-.327.328h-1.225l-.012-.012-.308-.305-.011-.011V29.66l.331-.331h1.222l.012.011Zm-1.486.353v1.388l.284.282h1.16l.282-.282.004-.368h-.316v.235l-.099.1h-.902l-.1-.1v-1.126l.1-.099h.902l.1.1v.238h.313v-.37l-.286-.284h-1.157z" clip-rule="evenodd"/><path fill="url(#am)" fill-rule="evenodd" d="m64.975 29.346.989 1.334v-1.35h.472v2.11h-.49l-.012-.015-.99-1.324v1.34h-.471v-2.11l.47-.001h.02l.012.015Zm-.424.064v1.953h.315v-1.497l1.12 1.497h.371V29.41h-.314v1.507l-1.12-1.508z" clip-rule="evenodd"/><path fill="url(#an)" fill-rule="evenodd" d="M69.013 29.804h-.737v1.637h-.47v-1.637h-.737v-.473h1.944zm-1.866-.08h.737v1.639h.314v-1.638h.736v-.316h-1.787v.316Z" clip-rule="evenodd"/><path fill="url(#ao)" fill-rule="evenodd" d="M89.83 29.804h-.736v1.637h-.472v-1.637h-.736v-.473h1.943v.473Zm-1.866-.08h.737v1.639h.314v-1.638h.736v-.316h-1.787v.316Z" clip-rule="evenodd"/><path fill="url(#ap)" fill-rule="evenodd" d="M63.627 31.441h-.47v-2.11h.47zm-.392-.078h.314V29.41h-.314z" clip-rule="evenodd"/><path fill="url(#aq)" fill-rule="evenodd" d="M71.454 29.804H70.19v.346h1.134v.472H70.19v.346h1.264v.473h-1.735v-2.11h1.735zm-1.657 1.559h1.578v-.316h-1.264v-.504h1.134v-.314h-1.134v-.504h1.264v-.315h-1.578z" clip-rule="evenodd"/><path fill="url(#ar)" fill-rule="evenodd" d="M78.983 30.519h-.687l.344-.81zm-.568-.079h.45l-.225-.53z" clip-rule="evenodd"/><path fill="url(#as)" fill-rule="evenodd" d="m78.915 29.355.886 2.086h-.513l-.224-.528h-.85l-.214.504-.01.024h-.512l.896-2.11h.531zm-1.318 2.008h.34l.225-.528h.954l.01.023.214.505h.342l-.829-1.953h-.428z" clip-rule="evenodd"/><path fill="url(#at)" fill-rule="evenodd" d="M83.973 30.519h-.687l.343-.809zm-.568-.079h.45l-.226-.529z" clip-rule="evenodd"/><path fill="url(#au)" fill-rule="evenodd" d="M84.791 31.441h-.512l-.01-.024-.214-.504h-.85l-.215.504-.01.024h-.512l.895-2.11h.533zm-2.204-.078h.341l.225-.528h.954l.01.023.214.505h.341l-.828-1.953h-.429l-.829 1.953Z" clip-rule="evenodd"/><path fill="url(#av)" fill-rule="evenodd" d="M90.998 31.441h-.47v-2.11h.47zm-.392-.078h.314V29.41h-.314z" clip-rule="evenodd"/><path fill="url(#aw)" fill-rule="evenodd" d="m73.777 29.881.012.012v.215l-.012.011v.001l-.157.157h-.957v-.553h.957zm-1.035.318h.845l.123-.124v-.15l-.122-.122h-.846z" clip-rule="evenodd"/><path fill="url(#ax)" fill-rule="evenodd" d="M74.18 29.73v.62l-.04-.04-.207.209.353.867.022.055H73.8l-.314-.77h-.744v.77h-.471v-2.11h1.512l.399.4Zm-1.832 1.632h.314v-.77h.876l.01.025.304.745h.34l-.352-.862.262-.262v-.475l-.353-.354h-1.4v1.953Z" clip-rule="evenodd"/><defs><linearGradient id="a" x1="78.306" x2="78.306" y1="58.459" y2="19" gradientUnits="userSpaceOnUse"><stop stop-color="#AEAFB1"/><stop offset=".24" stop-color="#6E6F73"/><stop offset=".69" stop-color="#EFF0F2"/><stop offset="1" stop-color="#7C7C7C"/></linearGradient><linearGradient id="b" x1="78.306" x2="78.306" y1="58.459" y2="19" gradientUnits="userSpaceOnUse"><stop stop-color="#AEAFB1"/><stop offset=".24" stop-color="#6E6F73"/><stop offset=".69" stop-color="#EFF0F2"/><stop offset="1" stop-color="#7C7C7C"/></linearGradient><linearGradient id="c" x1="78.306" x2="78.306" y1="58.459" y2="19" gradientUnits="userSpaceOnUse"><stop stop-color="#AEAFB1"/><stop offset=".24" stop-color="#6E6F73"/><stop offset=".69" stop-color="#EFF0F2"/><stop offset="1" stop-color="#7C7C7C"/></linearGradient><linearGradient id="d" x1="78.306" x2="78.306" y1="58.459" y2="19" gradientUnits="userSpaceOnUse"><stop stop-color="#AEAFB1"/><stop offset=".24" stop-color="#6E6F73"/><stop offset=".69" stop-color="#EFF0F2"/><stop offset="1" stop-color="#7C7C7C"/></linearGradient><linearGradient id="e" x1="78.306" x2="78.306" y1="58.459" y2="19" gradientUnits="userSpaceOnUse"><stop stop-color="#AEAFB1"/><stop offset=".24" stop-color="#6E6F73"/><stop offset=".69" stop-color="#EFF0F2"/><stop offset="1" stop-color="#7C7C7C"/></linearGradient><linearGradient id="f" x1="78.306" x2="78.306" y1="58.459" y2="19" gradientUnits="userSpaceOnUse"><stop stop-color="#AEAFB1"/><stop offset=".24" stop-color="#6E6F73"/><stop offset=".69" stop-color="#EFF0F2"/><stop offset="1" stop-color="#7C7C7C"/></linearGradient><linearGradient id="g" x1="78.306" x2="78.306" y1="58.459" y2="19" gradientUnits="userSpaceOnUse"><stop stop-color="#AEAFB1"/><stop offset=".24" stop-color="#6E6F73"/><stop offset=".69" stop-color="#EFF0F2"/><stop offset="1" stop-color="#7C7C7C"/></linearGradient><linearGradient id="h" x1="78.306" x2="78.306" y1="58.459" y2="19" gradientUnits="userSpaceOnUse"><stop stop-color="#AEAFB1"/><stop offset=".24" stop-color="#6E6F73"/><stop offset=".69" stop-color="#EFF0F2"/><stop offset="1" stop-color="#7C7C7C"/></linearGradient><linearGradient id="i" x1="78.306" x2="78.306" y1="58.459" y2="19" gradientUnits="userSpaceOnUse"><stop stop-color="#AEAFB1"/><stop offset=".24" stop-color="#6E6F73"/><stop offset=".69" stop-color="#EFF0F2"/><stop offset="1" stop-color="#7C7C7C"/></linearGradient><linearGradient id="j" x1="78.306" x2="78.306" y1="58.459" y2="19" gradientUnits="userSpaceOnUse"><stop stop-color="#AEAFB1"/><stop offset=".24" stop-color="#6E6F73"/><stop offset=".69" stop-color="#EFF0F2"/><stop offset="1" stop-color="#7C7C7C"/></linearGradient><linearGradient id="k" x1="78.306" x2="78.306" y1="58.459" y2="19" gradientUnits="userSpaceOnUse"><stop stop-color="#AEAFB1"/><stop offset=".24" stop-color="#6E6F73"/><stop offset=".69" stop-color="#EFF0F2"/><stop offset="1" stop-color="#7C7C7C"/></linearGradient><linearGradient id="l" x1="78.306" x2="78.306" y1="58.459" y2="19" gradientUnits="userSpaceOnUse"><stop stop-color="#AEAFB1"/><stop offset=".24" stop-color="#6E6F73"/><stop offset=".69" stop-color="#EFF0F2"/><stop offset="1" stop-color="#7C7C7C"/></linearGradient><linearGradient id="m" x1="78.306" x2="78.306" y1="58.459" y2="19" gradientUnits="userSpaceOnUse"><stop stop-color="#AEAFB1"/><stop offset=".24" stop-color="#6E6F73"/><stop offset=".69" stop-color="#EFF0F2"/><stop offset="1" stop-color="#7C7C7C"/></linearGradient><linearGradient id="n" x1="78.306" x2="78.306" y1="58.459" y2="19" gradientUnits="userSpaceOnUse"><stop stop-color="#AEAFB1"/><stop offset=".24" stop-color="#6E6F73"/><stop offset=".69" stop-color="#EFF0F2"/><stop offset="1" stop-color="#7C7C7C"/></linearGradient><linearGradient id="o" x1="78.306" x2="78.306" y1="58.459" y2="19" gradientUnits="userSpaceOnUse"><stop stop-color="#AEAFB1"/><stop offset=".24" stop-color="#6E6F73"/><stop offset=".69" stop-color="#EFF0F2"/><stop offset="1" stop-color="#7C7C7C"/></linearGradient><linearGradient id="p" x1="52.074" x2="104.539" y1="38.714" y2="38.714" gradientUnits="userSpaceOnUse"><stop stop-color="#7C7C7C"/><stop offset=".31" stop-color="#EFF0F2"/><stop offset=".76" stop-color="#6E6F73"/><stop offset="1" stop-color="#AEAFB1"/></linearGradient><linearGradient id="q" x1="52.074" x2="104.539" y1="38.714" y2="38.714" gradientUnits="userSpaceOnUse"><stop stop-color="#7C7C7C"/><stop offset=".31" stop-color="#EFF0F2"/><stop offset=".76" stop-color="#6E6F73"/><stop offset="1" stop-color="#AEAFB1"/></linearGradient><linearGradient id="r" x1="52.074" x2="104.539" y1="38.714" y2="38.714" gradientUnits="userSpaceOnUse"><stop stop-color="#7C7C7C"/><stop offset=".31" stop-color="#EFF0F2"/><stop offset=".76" stop-color="#6E6F73"/><stop offset="1" stop-color="#AEAFB1"/></linearGradient><linearGradient id="s" x1="52.074" x2="104.539" y1="38.714" y2="38.714" gradientUnits="userSpaceOnUse"><stop stop-color="#7C7C7C"/><stop offset=".31" stop-color="#EFF0F2"/><stop offset=".76" stop-color="#6E6F73"/><stop offset="1" stop-color="#AEAFB1"/></linearGradient><linearGradient id="t" x1="52.074" x2="104.539" y1="38.714" y2="38.714" gradientUnits="userSpaceOnUse"><stop stop-color="#7C7C7C"/><stop offset=".31" stop-color="#EFF0F2"/><stop offset=".76" stop-color="#6E6F73"/><stop offset="1" stop-color="#AEAFB1"/></linearGradient><linearGradient id="u" x1="52.074" x2="104.539" y1="38.714" y2="38.714" gradientUnits="userSpaceOnUse"><stop stop-color="#7C7C7C"/><stop offset=".31" stop-color="#EFF0F2"/><stop offset=".76" stop-color="#6E6F73"/><stop offset="1" stop-color="#AEAFB1"/></linearGradient><linearGradient id="v" x1="52.074" x2="104.539" y1="38.714" y2="38.714" gradientUnits="userSpaceOnUse"><stop stop-color="#7C7C7C"/><stop offset=".31" stop-color="#EFF0F2"/><stop offset=".76" stop-color="#6E6F73"/><stop offset="1" stop-color="#AEAFB1"/></linearGradient><linearGradient id="w" x1="52.074" x2="104.539" y1="38.714" y2="38.714" gradientUnits="userSpaceOnUse"><stop stop-color="#7C7C7C"/><stop offset=".31" stop-color="#EFF0F2"/><stop offset=".76" stop-color="#6E6F73"/><stop offset="1" stop-color="#AEAFB1"/></linearGradient><linearGradient id="x" x1="52.074" x2="104.539" y1="38.714" y2="38.714" gradientUnits="userSpaceOnUse"><stop stop-color="#7C7C7C"/><stop offset=".31" stop-color="#EFF0F2"/><stop offset=".76" stop-color="#6E6F73"/><stop offset="1" stop-color="#AEAFB1"/></linearGradient><linearGradient id="y" x1="52.074" x2="104.539" y1="38.714" y2="38.714" gradientUnits="userSpaceOnUse"><stop stop-color="#7C7C7C"/><stop offset=".31" stop-color="#EFF0F2"/><stop offset=".76" stop-color="#6E6F73"/><stop offset="1" stop-color="#AEAFB1"/></linearGradient><linearGradient id="z" x1="52.074" x2="104.539" y1="38.714" y2="38.714" gradientUnits="userSpaceOnUse"><stop stop-color="#7C7C7C"/><stop offset=".31" stop-color="#EFF0F2"/><stop offset=".76" stop-color="#6E6F73"/><stop offset="1" stop-color="#AEAFB1"/></linearGradient><linearGradient id="A" x1="52.074" x2="104.539" y1="38.714" y2="38.714" gradientUnits="userSpaceOnUse"><stop stop-color="#7C7C7C"/><stop offset=".31" stop-color="#EFF0F2"/><stop offset=".76" stop-color="#6E6F73"/><stop offset="1" stop-color="#AEAFB1"/></linearGradient><linearGradient id="B" x1="52.074" x2="104.539" y1="38.714" y2="38.714" gradientUnits="userSpaceOnUse"><stop stop-color="#7C7C7C"/><stop offset=".31" stop-color="#EFF0F2"/><stop offset=".76" stop-color="#6E6F73"/><stop offset="1" stop-color="#AEAFB1"/></linearGradient><linearGradient id="C" x1="52.074" x2="104.539" y1="38.714" y2="38.714" gradientUnits="userSpaceOnUse"><stop stop-color="#7C7C7C"/><stop offset=".31" stop-color="#EFF0F2"/><stop offset=".76" stop-color="#6E6F73"/><stop offset="1" stop-color="#AEAFB1"/></linearGradient><linearGradient id="D" x1="52.074" x2="104.539" y1="38.714" y2="38.714" gradientUnits="userSpaceOnUse"><stop stop-color="#7C7C7C"/><stop offset=".31" stop-color="#EFF0F2"/><stop offset=".76" stop-color="#6E6F73"/><stop offset="1" stop-color="#AEAFB1"/></linearGradient><linearGradient id="E" x1="52.074" x2="104.539" y1="38.714" y2="38.714" gradientUnits="userSpaceOnUse"><stop stop-color="#7C7C7C"/><stop offset=".31" stop-color="#EFF0F2"/><stop offset=".76" stop-color="#6E6F73"/><stop offset="1" stop-color="#AEAFB1"/></linearGradient><linearGradient id="F" x1="52.074" x2="104.539" y1="38.714" y2="38.714" gradientUnits="userSpaceOnUse"><stop stop-color="#7C7C7C"/><stop offset=".31" stop-color="#EFF0F2"/><stop offset=".76" stop-color="#6E6F73"/><stop offset="1" stop-color="#AEAFB1"/></linearGradient><linearGradient id="G" x1="52.074" x2="104.539" y1="38.714" y2="38.714" gradientUnits="userSpaceOnUse"><stop stop-color="#7C7C7C"/><stop offset=".31" stop-color="#EFF0F2"/><stop offset=".76" stop-color="#6E6F73"/><stop offset="1" stop-color="#AEAFB1"/></linearGradient><linearGradient id="H" x1="52.074" x2="104.539" y1="38.714" y2="38.714" gradientUnits="userSpaceOnUse"><stop stop-color="#7C7C7C"/><stop offset=".31" stop-color="#EFF0F2"/><stop offset=".76" stop-color="#6E6F73"/><stop offset="1" stop-color="#AEAFB1"/></linearGradient><linearGradient id="I" x1="52.074" x2="104.539" y1="38.714" y2="38.714" gradientUnits="userSpaceOnUse"><stop stop-color="#7C7C7C"/><stop offset=".31" stop-color="#EFF0F2"/><stop offset=".76" stop-color="#6E6F73"/><stop offset="1" stop-color="#AEAFB1"/></linearGradient><linearGradient id="J" x1="52.074" x2="104.539" y1="38.714" y2="38.714" gradientUnits="userSpaceOnUse"><stop stop-color="#7C7C7C"/><stop offset=".31" stop-color="#EFF0F2"/><stop offset=".76" stop-color="#6E6F73"/><stop offset="1" stop-color="#AEAFB1"/></linearGradient><linearGradient id="K" x1="52.074" x2="104.539" y1="38.714" y2="38.714" gradientUnits="userSpaceOnUse"><stop stop-color="#7C7C7C"/><stop offset=".31" stop-color="#EFF0F2"/><stop offset=".76" stop-color="#6E6F73"/><stop offset="1" stop-color="#AEAFB1"/></linearGradient><linearGradient id="L" x1="52.074" x2="104.539" y1="38.714" y2="38.714" gradientUnits="userSpaceOnUse"><stop stop-color="#7C7C7C"/><stop offset=".31" stop-color="#EFF0F2"/><stop offset=".76" stop-color="#6E6F73"/><stop offset="1" stop-color="#AEAFB1"/></linearGradient><linearGradient id="M" x1="52.074" x2="104.539" y1="38.714" y2="38.714" gradientUnits="userSpaceOnUse"><stop stop-color="#7C7C7C"/><stop offset=".31" stop-color="#EFF0F2"/><stop offset=".76" stop-color="#6E6F73"/><stop offset="1" stop-color="#AEAFB1"/></linearGradient><linearGradient id="N" x1="52.074" x2="104.539" y1="38.714" y2="38.714" gradientUnits="userSpaceOnUse"><stop stop-color="#7C7C7C"/><stop offset=".31" stop-color="#EFF0F2"/><stop offset=".76" stop-color="#6E6F73"/><stop offset="1" stop-color="#AEAFB1"/></linearGradient><linearGradient id="O" x1="52.074" x2="104.539" y1="38.714" y2="38.714" gradientUnits="userSpaceOnUse"><stop stop-color="#7C7C7C"/><stop offset=".31" stop-color="#EFF0F2"/><stop offset=".76" stop-color="#6E6F73"/><stop offset="1" stop-color="#AEAFB1"/></linearGradient><linearGradient id="P" x1="52.074" x2="104.539" y1="38.714" y2="38.714" gradientUnits="userSpaceOnUse"><stop stop-color="#7C7C7C"/><stop offset=".31" stop-color="#EFF0F2"/><stop offset=".76" stop-color="#6E6F73"/><stop offset="1" stop-color="#AEAFB1"/></linearGradient><linearGradient id="Q" x1="52.074" x2="104.539" y1="38.714" y2="38.714" gradientUnits="userSpaceOnUse"><stop stop-color="#7C7C7C"/><stop offset=".31" stop-color="#EFF0F2"/><stop offset=".76" stop-color="#6E6F73"/><stop offset="1" stop-color="#AEAFB1"/></linearGradient><linearGradient id="R" x1="52.074" x2="104.539" y1="38.714" y2="38.714" gradientUnits="userSpaceOnUse"><stop stop-color="#7C7C7C"/><stop offset=".31" stop-color="#EFF0F2"/><stop offset=".76" stop-color="#6E6F73"/><stop offset="1" stop-color="#AEAFB1"/></linearGradient><linearGradient id="S" x1="52.074" x2="104.539" y1="38.714" y2="38.714" gradientUnits="userSpaceOnUse"><stop stop-color="#7C7C7C"/><stop offset=".31" stop-color="#EFF0F2"/><stop offset=".76" stop-color="#6E6F73"/><stop offset="1" stop-color="#AEAFB1"/></linearGradient><linearGradient id="T" x1="52.074" x2="104.539" y1="38.714" y2="38.714" gradientUnits="userSpaceOnUse"><stop stop-color="#7C7C7C"/><stop offset=".31" stop-color="#EFF0F2"/><stop offset=".76" stop-color="#6E6F73"/><stop offset="1" stop-color="#AEAFB1"/></linearGradient><linearGradient id="U" x1="52.074" x2="104.539" y1="38.714" y2="38.714" gradientUnits="userSpaceOnUse"><stop stop-color="#7C7C7C"/><stop offset=".31" stop-color="#EFF0F2"/><stop offset=".76" stop-color="#6E6F73"/><stop offset="1" stop-color="#AEAFB1"/></linearGradient><linearGradient id="V" x1="78.146" x2="78.146" y1="581.46" y2="-181.178" gradientUnits="userSpaceOnUse"><stop stop-color="#AEAFB1"/><stop offset=".24" stop-color="#6E6F73"/><stop offset=".69" stop-color="#EFF0F2"/><stop offset="1" stop-color="#7C7C7C"/></linearGradient><linearGradient id="W" x1="78.146" x2="78.146" y1="581.46" y2="-181.178" gradientUnits="userSpaceOnUse"><stop stop-color="#AEAFB1"/><stop offset=".24" stop-color="#6E6F73"/><stop offset=".69" stop-color="#EFF0F2"/><stop offset="1" stop-color="#7C7C7C"/></linearGradient><linearGradient id="X" x1="78.146" x2="78.146" y1="581.46" y2="-181.178" gradientUnits="userSpaceOnUse"><stop stop-color="#AEAFB1"/><stop offset=".24" stop-color="#6E6F73"/><stop offset=".69" stop-color="#EFF0F2"/><stop offset="1" stop-color="#7C7C7C"/></linearGradient><linearGradient id="Y" x1="78.146" x2="78.146" y1="581.46" y2="-181.178" gradientUnits="userSpaceOnUse"><stop stop-color="#AEAFB1"/><stop offset=".24" stop-color="#6E6F73"/><stop offset=".69" stop-color="#EFF0F2"/><stop offset="1" stop-color="#7C7C7C"/></linearGradient><linearGradient id="Z" x1="78.146" x2="78.146" y1="581.46" y2="-181.178" gradientUnits="userSpaceOnUse"><stop stop-color="#AEAFB1"/><stop offset=".24" stop-color="#6E6F73"/><stop offset=".69" stop-color="#EFF0F2"/><stop offset="1" stop-color="#7C7C7C"/></linearGradient><linearGradient id="aa" x1="78.146" x2="78.146" y1="581.46" y2="-181.178" gradientUnits="userSpaceOnUse"><stop stop-color="#AEAFB1"/><stop offset=".24" stop-color="#6E6F73"/><stop offset=".69" stop-color="#EFF0F2"/><stop offset="1" stop-color="#7C7C7C"/></linearGradient><linearGradient id="ab" x1="78.146" x2="78.146" y1="581.46" y2="-181.178" gradientUnits="userSpaceOnUse"><stop stop-color="#AEAFB1"/><stop offset=".24" stop-color="#6E6F73"/><stop offset=".69" stop-color="#EFF0F2"/><stop offset="1" stop-color="#7C7C7C"/></linearGradient><linearGradient id="ac" x1="78.146" x2="78.146" y1="581.46" y2="-181.178" gradientUnits="userSpaceOnUse"><stop stop-color="#AEAFB1"/><stop offset=".24" stop-color="#6E6F73"/><stop offset=".69" stop-color="#EFF0F2"/><stop offset="1" stop-color="#7C7C7C"/></linearGradient><linearGradient id="ad" x1="78.146" x2="78.146" y1="581.46" y2="-181.178" gradientUnits="userSpaceOnUse"><stop stop-color="#AEAFB1"/><stop offset=".24" stop-color="#6E6F73"/><stop offset=".69" stop-color="#EFF0F2"/><stop offset="1" stop-color="#7C7C7C"/></linearGradient><linearGradient id="ae" x1="78.146" x2="78.146" y1="581.46" y2="-181.178" gradientUnits="userSpaceOnUse"><stop stop-color="#AEAFB1"/><stop offset=".24" stop-color="#6E6F73"/><stop offset=".69" stop-color="#EFF0F2"/><stop offset="1" stop-color="#7C7C7C"/></linearGradient><linearGradient id="af" x1="78.146" x2="78.146" y1="581.46" y2="-181.178" gradientUnits="userSpaceOnUse"><stop stop-color="#AEAFB1"/><stop offset=".24" stop-color="#6E6F73"/><stop offset=".69" stop-color="#EFF0F2"/><stop offset="1" stop-color="#7C7C7C"/></linearGradient><linearGradient id="ag" x1="78.146" x2="78.146" y1="581.46" y2="-181.178" gradientUnits="userSpaceOnUse"><stop stop-color="#AEAFB1"/><stop offset=".24" stop-color="#6E6F73"/><stop offset=".69" stop-color="#EFF0F2"/><stop offset="1" stop-color="#7C7C7C"/></linearGradient><linearGradient id="ah" x1="78.146" x2="78.146" y1="581.46" y2="-181.178" gradientUnits="userSpaceOnUse"><stop stop-color="#AEAFB1"/><stop offset=".24" stop-color="#6E6F73"/><stop offset=".69" stop-color="#EFF0F2"/><stop offset="1" stop-color="#7C7C7C"/></linearGradient><linearGradient id="ai" x1="52.074" x2="104.539" y1="38.714" y2="38.714" gradientUnits="userSpaceOnUse"><stop stop-color="#7C7C7C"/><stop offset=".31" stop-color="#EFF0F2"/><stop offset=".76" stop-color="#6E6F73"/><stop offset="1" stop-color="#AEAFB1"/></linearGradient><linearGradient id="aj" x1="52.074" x2="104.539" y1="38.714" y2="38.714" gradientUnits="userSpaceOnUse"><stop stop-color="#7C7C7C"/><stop offset=".31" stop-color="#EFF0F2"/><stop offset=".76" stop-color="#6E6F73"/><stop offset="1" stop-color="#AEAFB1"/></linearGradient><linearGradient id="ak" x1="52.074" x2="104.539" y1="38.714" y2="38.714" gradientUnits="userSpaceOnUse"><stop stop-color="#7C7C7C"/><stop offset=".31" stop-color="#EFF0F2"/><stop offset=".76" stop-color="#6E6F73"/><stop offset="1" stop-color="#AEAFB1"/></linearGradient><linearGradient id="al" x1="52.074" x2="104.539" y1="38.714" y2="38.714" gradientUnits="userSpaceOnUse"><stop stop-color="#7C7C7C"/><stop offset=".31" stop-color="#EFF0F2"/><stop offset=".76" stop-color="#6E6F73"/><stop offset="1" stop-color="#AEAFB1"/></linearGradient><linearGradient id="am" x1="52.074" x2="104.539" y1="38.714" y2="38.714" gradientUnits="userSpaceOnUse"><stop stop-color="#7C7C7C"/><stop offset=".31" stop-color="#EFF0F2"/><stop offset=".76" stop-color="#6E6F73"/><stop offset="1" stop-color="#AEAFB1"/></linearGradient><linearGradient id="an" x1="52.074" x2="104.539" y1="38.714" y2="38.714" gradientUnits="userSpaceOnUse"><stop stop-color="#7C7C7C"/><stop offset=".31" stop-color="#EFF0F2"/><stop offset=".76" stop-color="#6E6F73"/><stop offset="1" stop-color="#AEAFB1"/></linearGradient><linearGradient id="ao" x1="52.074" x2="104.539" y1="38.714" y2="38.714" gradientUnits="userSpaceOnUse"><stop stop-color="#7C7C7C"/><stop offset=".31" stop-color="#EFF0F2"/><stop offset=".76" stop-color="#6E6F73"/><stop offset="1" stop-color="#AEAFB1"/></linearGradient><linearGradient id="ap" x1="52.074" x2="104.539" y1="38.714" y2="38.714" gradientUnits="userSpaceOnUse"><stop stop-color="#7C7C7C"/><stop offset=".31" stop-color="#EFF0F2"/><stop offset=".76" stop-color="#6E6F73"/><stop offset="1" stop-color="#AEAFB1"/></linearGradient><linearGradient id="aq" x1="52.074" x2="104.539" y1="38.714" y2="38.714" gradientUnits="userSpaceOnUse"><stop stop-color="#7C7C7C"/><stop offset=".31" stop-color="#EFF0F2"/><stop offset=".76" stop-color="#6E6F73"/><stop offset="1" stop-color="#AEAFB1"/></linearGradient><linearGradient id="ar" x1="52.074" x2="104.539" y1="38.714" y2="38.714" gradientUnits="userSpaceOnUse"><stop stop-color="#7C7C7C"/><stop offset=".31" stop-color="#EFF0F2"/><stop offset=".76" stop-color="#6E6F73"/><stop offset="1" stop-color="#AEAFB1"/></linearGradient><linearGradient id="as" x1="52.074" x2="104.539" y1="38.714" y2="38.714" gradientUnits="userSpaceOnUse"><stop stop-color="#7C7C7C"/><stop offset=".31" stop-color="#EFF0F2"/><stop offset=".76" stop-color="#6E6F73"/><stop offset="1" stop-color="#AEAFB1"/></linearGradient><linearGradient id="at" x1="52.074" x2="104.539" y1="38.714" y2="38.714" gradientUnits="userSpaceOnUse"><stop stop-color="#7C7C7C"/><stop offset=".31" stop-color="#EFF0F2"/><stop offset=".76" stop-color="#6E6F73"/><stop offset="1" stop-color="#AEAFB1"/></linearGradient><linearGradient id="au" x1="52.074" x2="104.539" y1="38.714" y2="38.714" gradientUnits="userSpaceOnUse"><stop stop-color="#7C7C7C"/><stop offset=".31" stop-color="#EFF0F2"/><stop offset=".76" stop-color="#6E6F73"/><stop offset="1" stop-color="#AEAFB1"/></linearGradient><linearGradient id="av" x1="52.074" x2="104.539" y1="38.714" y2="38.714" gradientUnits="userSpaceOnUse"><stop stop-color="#7C7C7C"/><stop offset=".31" stop-color="#EFF0F2"/><stop offset=".76" stop-color="#6E6F73"/><stop offset="1" stop-color="#AEAFB1"/></linearGradient><linearGradient id="aw" x1="52.074" x2="104.539" y1="38.714" y2="38.714" gradientUnits="userSpaceOnUse"><stop stop-color="#7C7C7C"/><stop offset=".31" stop-color="#EFF0F2"/><stop offset=".76" stop-color="#6E6F73"/><stop offset="1" stop-color="#AEAFB1"/></linearGradient><linearGradient id="ax" x1="52.074" x2="104.539" y1="38.714" y2="38.714" gradientUnits="userSpaceOnUse"><stop stop-color="#7C7C7C"/><stop offset=".31" stop-color="#EFF0F2"/><stop offset=".76" stop-color="#6E6F73"/><stop offset="1" stop-color="#AEAFB1"/></linearGradient></defs></svg>