<svg xmlns="http://www.w3.org/2000/svg" width="156" height="78" fill="none" viewBox="0 0 156 78"><path fill="currentColor" fill-rule="evenodd" d="M79.68 32.274V52.02l-1.355 2.028-1.375-2.028V36.094l.72-2.663-1.071.51.642-1.044h.574l.17-.623zm-1.86.623.312.313.66-.313z" clip-rule="evenodd"/><path fill="currentColor" d="M76.454 38.99v6.351l-1.817 2.78V36.243l1.817 2.749Zm5.557 9.132-1.817-2.78V38.99l1.817-2.749zM74.096 35.38v12.3l-1.828-2.741V34.527h1.264zm10.284 9.559-1.828 2.741v-12.3l.565-.853h1.263zm-12.652-.812L69.9 41.385v-6.858h1.828zm15.02-2.742-1.828 2.742v-9.6h1.828zm-17.389-.813-1.787-2.68v-3.365h1.787zm19.717-2.681-1.787 2.681v-6.045h1.787z"/><path fill="currentColor" d="M76.454 35.14v2.914l-2.667-4.013H64.93l-1.165-1.767h10.782l1.908 2.865Zm15.266-1.099h-8.86l-2.666 4.014v-2.916l1.909-2.865h10.781z"/><path fill="currentColor" d="m67.05 37.168-1.786-2.635v-.006h1.787v2.641Zm24.335-2.635-1.787 2.635v-2.64h1.787zm-14.509-4.867v.426h-.393v-.263l-.077-.075h-.873l-.077.075v1.097l.077.076h.873l.077-.076v-.284H75.8v-.395h1.075l-.002.845-.306.307-1.195-.003-.308-.304-.002-1.426.31-.308h1.194zm3.912 1.337h1.172v.396l-1.566-.001v-2.04h.394zm6.447-1.337v.427h-.394v-.262l-.077-.077h-.873l-.076.077v1.096l.076.076h.873l.077-.076v-.259h.395l-.004.425-.306.306H85.73l-.309-.306.001-1.425.309-.31h1.194zm6.408 0v.427h-.393v-.262l-.077-.077H92.3l-.077.077v1.096l.077.076h.873l.077-.076v-.259h.394l-.003.425-.307.306H92.14l-.31-.306.003-1.425.308-.31h1.193l.31.308Zm-30.096 1.731h-.393v-2.036h.393zm2.423-.605v-1.431h.393v2.036h-.432l-1.063-1.422v1.422h-.394v-2.036l.432-.002 1.063 1.433Zm2.977-1.037h-.738v1.642h-.394v-1.642h-.738v-.396h1.87zm2.449 0h-1.268v.426h1.137v.395h-1.137v.426h1.268v.395h-1.662v-2.036h1.662z"/><path fill="currentColor" fill-rule="evenodd" d="M79.746 31.397h-.428l-.225-.53h-.904l-.225.53h-.428l.864-2.036h.481zm-1.39-.925h.57l-.285-.672zm6.394.925h-.427l-.225-.53h-.904l-.226.53h-.428l.864-2.036h.483l.864 2.036Zm-1.39-.925h.57l-.285-.67z" clip-rule="evenodd"/><path fill="currentColor" d="M89.823 29.755h-.739v1.642h-.394v-1.642h-.738v-.396h1.87v.396Zm1.172 1.642h-.393v-2.036h.393z"/><path fill="currentColor" fill-rule="evenodd" d="M74.13 29.738v.51l-.001-.001-.255.256.365.893h-.425l-.316-.771h-.812v.771h-.394V29.36h1.46l.378.379Zm-1.444.492h.905l.146-.147V29.9l-.146-.146h-.904zm22.682-1.721H61.28l-4.717-7.102h43.523zm-33.43-1.152h1.674v-4.79h-1.675v4.79Zm2.595-1.147.68 1.147h1.946l-1.496-2.524zm3.098 1.137h1.67V22.56h-1.67zm2.013-3.556h1.341v.767h-1.34v1.234h.752l.602 1.555h1.775l-.832-1.877.68-.747v-1.37l-.714-.794h-2.264zm3.658 2.719.763.837h1.541V25.98h-.63v-3.42h-1.674zm3.262-.53h-.616v1.367h1.528l.763-.837v-3.95h-1.675zm2.353-2.593v3.123l.763.837h1.648v-1.261h-.737V23.82h.737v-1.262h-1.656l-.755.828Zm2.124 2.23h1.35v.468h-.722v1.262h1.64l.756-.828v-2.05h-3.024v1.147Zm3.704 1.73h1.674V22.56h-1.674zm2.017 0h2.126v-1.262h-2.126zm2.805 0h1.674V22.56h-1.674zm2.017-3.556h1.338v.767h-1.338v1.234h.75l.602 1.555h1.776l-.832-1.877.68-.747v-1.37l-.715-.794h-2.261zm-27.63.237v2.347l3.126-3.808h-1.923l-1.204 1.461Zm22.808 1.541h1.618v-1.233h-1.618zm-5.091-1.75h.685v.335h1.674v-.759l-.763-.836h-1.596zm5.09 0h2.127v-1.262h-2.126v1.262Z" clip-rule="evenodd"/><path fill="currentColor" fill-rule="evenodd" d="M78.306 58.46 52 19h52.612zm.017-2.563 23.687-35.53H54.637z" clip-rule="evenodd"/></svg>