<svg xmlns="http://www.w3.org/2000/svg" fill="none" viewBox="0 0 156 78"><path fill="currentColor" d="M86.007 32.43H82.34l-.161.48-3.452 12.072-.154.587h3.674l.126-.479 3.452-12.071zM123.368 32.43l-3.857 13.14h3.717l3.924-13.14zM74.046 32.43H57.932l-3.316 12.376-.258.763h4.131l2.701-10.218h5.214l-2.496 9.455-.215.763h4.037l.159-.652 2.528-9.566h2.923c.552 0 1.01.21 1.29.593.29.394.36.927.2 1.5l-1.91 7.362-.23.763h3.848l.207-.652 1.91-7.362c.386-1.38.206-2.676-.508-3.65-.698-.95-2.76-1.473-4.1-1.473zM116.593 40.436l-1.437-8.005h-4.228l-8.411 10.72c-.603-.003-3.739-.012-4.754-.012-1.442 0-2.22-.627-2.066-1.586l1.185-.003a15 15 0 0 0 1.922-.245c1.631-.307 3.636-1.179 4.233-3.864.68-3.061-.769-5.011-4.988-5.011h-9.651l-1.512 5.011-2.425 8.127h3.699l1.193-4.024h2.663c-.282 3.24 2.693 4.024 5.052 4.024h7.69l1.989-2.653h6.725l.435 2.653h3.621l-.488-2.653 1.545.003.685-2.482zm-26.384-1.763.37-1.23h.009l.637-2.119h5.326c1.905 0 3.18.334 2.928 1.576-.325 1.6-2.222 1.773-3.923 1.773zm18.421 1.763 3.676-4.851.776 4.85zM46.551 36.578l-.45 1.606c-.02.07.02.128.09.128h1.286l-.19-.224-.32-.355c-.044-.05-.022-.136.047-.188q.525-.4 1.066-.884l.244-.21h-1.61a.18.18 0 0 0-.163.128zM45.169 36.45h-1.545l.107.215q.27.412.541.897c.032.056-.002.142-.073.185l-.541.334-.321.23h1.31c.07 0 .142-.057.162-.128l.45-1.606c.02-.07-.02-.128-.09-.128z"/><path fill="currentColor" d="m42.596 28.806 4.802-5.71h-5.154L28.848 39l3.146 10.194h6.566l-4.812 5.71h5.164L52.298 39l-3.146-10.194zM39.75 41.494q-.489.454-.995.956c-.053.052-.13.068-.177.035a6.26 6.26 0 0 1-1.97-2.271c-.047-.093-.214-.039-.247.08l-.742 2.65a.18.18 0 0 1-.163.127h-.993c-.071 0-.11-.057-.092-.128l.724-2.579c.034-.12-.1-.172-.203-.08q-1.375 1.24-3.22 2.262c-.066.038-.14.022-.164-.033a9 9 0 0 0-.44-.887c-.035-.063.011-.156.095-.194q2.108-.937 3.674-2.265c.095-.08.073-.211-.036-.211h-2.782c-.07 0-.11-.057-.091-.128l.255-.908a.18.18 0 0 1 .162-.127h3.345a.18.18 0 0 0 .163-.128l.222-.791c.02-.071-.02-.128-.091-.128h-2.856c-.07 0-.11-.057-.091-.127l.255-.908a.18.18 0 0 1 .163-.128h2.855a.18.18 0 0 0 .163-.127l.288-1.025a.18.18 0 0 1 .163-.128h.993c.07 0 .11.057.09.128l-.287 1.025c-.02.07.02.127.09.127h2.945c.07 0 .11.057.091.128l-.255.908a.18.18 0 0 1-.162.127h-2.945a.18.18 0 0 0-.162.128l-.222.791c-.02.071.021.128.09.128h3.4c.07 0 .11.057.09.127l-.255.908a.18.18 0 0 1-.162.128h-2.818c-.11 0-.206.13-.156.211q.857 1.395 2.463 2.132c.07.032.07.129-.002.195m10.08-5.171a.18.18 0 0 1-.163.127h-1.3l.222.23.373.353c.045.043.032.128-.031.185q-.558.506-1.036.879l-.253.215h1.966c.07 0 .11.056.091.127l-.253.9a.18.18 0 0 1-.162.127h-2.49c-.116 0-.21.142-.149.221q.816 1.063 2.16 1.67c.07.03.071.124.002.191q-.437.426-.88.897c-.052.056-.131.074-.18.042q-1.372-.91-2.041-2.104c-.05-.09-.212-.035-.245.084l-.695 2.479a.18.18 0 0 1-.163.127h-1.037c-.071 0-.11-.057-.091-.127l.692-2.47c.033-.119-.097-.173-.198-.084q-1.37 1.224-3.236 2.149c-.066.033-.136.014-.159-.04a14 14 0 0 0-.382-.841c-.032-.065.02-.157.104-.191a12.7 12.7 0 0 0 3.09-1.782c.104-.08.089-.218-.025-.218h-2.372c-.07 0-.11-.057-.091-.128l.252-.9a.18.18 0 0 1 .163-.127h1.873l-.103-.204a14 14 0 0 0-.5-.927c-.034-.056 0-.142.07-.187l.505-.315.331-.228h-1.226c-.07 0-.11-.057-.091-.128l.255-.908a.18.18 0 0 1 .162-.127h2.91a.18.18 0 0 0 .162-.128l.205-.729a.18.18 0 0 1 .163-.127h1.037c.07 0 .11.057.091.127l-.204.73c-.02.07.021.127.09.127h2.954c.07 0 .11.057.091.127l-.255.908z"/></svg>