<svg xmlns="http://www.w3.org/2000/svg" fill="none" viewBox="0 0 156 78"><path fill="#fff" d="M86.007 32.43H82.34l-.161.48-3.452 12.072-.154.587h3.674l.126-.479 3.452-12.071zM123.368 32.43l-3.857 13.14h3.717l3.924-13.14zM74.046 32.43H57.932l-3.316 12.376-.258.763h4.131l2.701-10.218h5.214l-2.496 9.455-.215.763h4.037l.159-.652 2.528-9.566h2.923c.552 0 1.01.21 1.29.593.289.394.36.927.2 1.5l-1.91 7.362-.23.763h3.848l.207-.652 1.91-7.362c.386-1.38.206-2.676-.508-3.65-.698-.95-2.76-1.473-4.1-1.473zM116.593 40.436l-1.437-8.005h-4.228l-8.411 10.72c-.603-.003-3.739-.012-4.754-.012-1.442 0-2.22-.627-2.066-1.586l1.185-.003a15 15 0 0 0 1.922-.245c1.631-.307 3.635-1.179 4.233-3.864.68-3.061-.769-5.011-4.988-5.011h-9.651l-1.512 5.011-2.425 8.127h3.699l1.193-4.024h2.663c-.282 3.24 2.693 4.024 5.052 4.024h7.69l1.989-2.653h6.725l.435 2.653h3.621l-.488-2.653 1.545.003.685-2.482zm-26.384-1.763.37-1.23h.009l.637-2.119h5.326c1.905 0 3.18.334 2.928 1.576-.325 1.6-2.222 1.773-3.923 1.773zm18.421 1.763 3.676-4.851.776 4.85z"/><path fill="#EA1D25" d="m42.596 28.806 4.801-5.71h-5.154L28.848 39l3.146 10.194h6.566l-4.812 5.71h5.164L52.298 39l-3.146-10.194z"/><path fill="#fff" d="M39.75 41.3q-1.605-.737-2.462-2.133c-.05-.08.046-.211.156-.211h2.818a.18.18 0 0 0 .162-.128l.255-.908c.02-.07-.02-.127-.09-.127h-3.4c-.069 0-.11-.057-.09-.128l.222-.791a.18.18 0 0 1 .162-.128h2.945c.07 0 .142-.057.162-.127l.255-.908c.02-.07-.02-.128-.09-.128H37.81c-.07 0-.11-.056-.091-.127l.288-1.025c.019-.07-.02-.128-.091-.128h-.994a.18.18 0 0 0-.162.128l-.288 1.025a.18.18 0 0 1-.163.127h-2.854a.18.18 0 0 0-.163.128l-.255.908c-.02.07.02.127.091.127h2.855c.07 0 .11.057.09.128l-.221.791a.18.18 0 0 1-.163.128h-3.345a.18.18 0 0 0-.163.127l-.254.908c-.02.07.02.128.09.128H34.8c.11 0 .132.13.037.211q-1.567 1.327-3.674 2.265c-.083.038-.13.131-.094.194q.236.414.439.887c.024.056.096.07.165.034q1.843-1.022 3.218-2.261c.103-.093.237-.041.204.08l-.724 2.577c-.019.07.021.128.092.128h.993c.07 0 .142-.057.162-.128l.743-2.648c.033-.12.2-.174.247-.081a6.24 6.24 0 0 0 1.97 2.27c.046.034.124.018.177-.034q.507-.501.995-.956c.071-.066.071-.163.002-.195M48.806 41.355q-1.343-.606-2.16-1.669c-.062-.08.032-.22.147-.22h2.49c.071 0 .143-.058.163-.128l.253-.9c.02-.07-.02-.128-.09-.128h-1.967l.253-.215q.477-.373 1.036-.878c.063-.056.078-.142.03-.185l-.372-.353-.222-.23h1.3a.18.18 0 0 0 .163-.127l.255-.908c.02-.07-.02-.128-.091-.128H47.04c-.07 0-.11-.056-.09-.127l.204-.73c.02-.07-.02-.127-.091-.127h-1.038a.18.18 0 0 0-.162.128l-.205.729a.18.18 0 0 1-.163.127h-2.909a.18.18 0 0 0-.163.128l-.255.908c-.019.07.02.127.092.127h1.226l-.331.229-.505.315c-.072.044-.104.13-.07.187q.31.532.5.927l.102.203H41.31a.18.18 0 0 0-.162.128l-.253.9c-.02.07.02.127.091.127h2.372c.114 0 .13.138.028.219a12.6 12.6 0 0 1-3.091 1.782c-.085.034-.136.126-.104.19q.19.386.382.843c.023.053.092.071.158.038q1.867-.925 3.237-2.148c.102-.09.232-.035.198.083l-.693 2.47c-.019.07.02.128.091.128h1.038c.07 0 .142-.057.163-.128l.695-2.479c.033-.118.194-.173.244-.083q.67 1.192 2.041 2.104c.05.032.129.013.181-.042q.444-.47.88-.897c.068-.067.067-.162-.001-.192zm-3.997-3.17a.18.18 0 0 1-.163.127h-1.31l.322-.23.541-.334c.07-.044.105-.13.073-.185a15 15 0 0 0-.541-.897l-.107-.214h1.546c.07 0 .11.056.09.127l-.45 1.606m1.383.127c-.07 0-.11-.057-.092-.128l.451-1.606a.18.18 0 0 1 .163-.128h1.61l-.244.21q-.541.485-1.066.884c-.068.052-.09.139-.047.187l.32.355.19.224h-1.285z"/></svg>