<svg xmlns="http://www.w3.org/2000/svg" fill="none" viewBox="0 0 156 78"><path fill="currentColor" d="m44.6 41.815-.002.008-2.378 2.815h-6.512l-.872-2.815.003-.008L33.967 39l2.38-2.815.003-.008 2.378-2.815h6.512l.87 2.815-.002.008.87 2.815zm4.381-12.88h-6.5l4.761-5.638h-5.11L28.848 39l3.12 10.065h6.51l-4.771 5.637h5.12L52.102 39z"/><path fill="currentColor" d="M34.524 39h5.95l-1.592-5.161zM40.485 39h5.95l-1.592-5.161zM36.117 44.161h5.95L40.475 39zM54.095 45.985h4.214c.16 0 .302-.108.343-.262l2.717-9.945a.356.356 0 0 1 .343-.261h5.508c.233 0 .403.22.344.445l-2.527 9.576c-.06.226.11.446.344.446h4.059c.16 0 .301-.108.343-.262l2.701-9.942a.35.35 0 0 1 .345-.262c.65.004 2.323.01 3.446.01 1.418 0 2.227.955 1.858 2.44l-2.014 7.577a.355.355 0 0 0 .343.447h4.204c.16 0 .3-.106.343-.262l2.216-8.144c.719-2.661-.761-5.554-4.744-5.554l-20.848-.01a.354.354 0 0 0-.343.265l-3.538 13.25c-.06.227.11.448.343.448M86.92 32.023h4.25c.233 0 .404.221.343.447l-3.532 13.26a.36.36 0 0 1-.343.263h-4.225a.355.355 0 0 1-.343-.446l3.508-13.259a.36.36 0 0 1 .343-.264zM109.404 32.45l-.67 2.62a.356.356 0 0 1-.345.269H98.356c-.932 0-1.415.343-1.578 1.018-.162.675.046 1.058.802 1.058h6.858c1.833 0 3.937 1.127 3.289 3.778 0 0 .06-.213-.364 1.324-.425 1.538-1.863 3.468-5.304 3.468-2.968 0-9.954.006-11.821.008a.355.355 0 0 1-.343-.448l.753-2.765a.356.356 0 0 1 .343-.261h10.199c1.325 0 1.478-.535 1.595-.991.117-.457.22-1.091-1.271-1.091h-6.6c-1.421 0-3.394-1.142-3.022-3.045 0 0 .028-.215.182-1.235.155-1.02 1.108-4.13 5.915-4.13l11.071-.019c.233 0 .403.22.344.444zM127.14 32.454l-.772 2.876a.356.356 0 0 1-.343.263h-8.085c-2.751 0-3.482 2.547-3.608 3.258 0 0-.092.396-.249 1.308-.158.912.007 2.242 2.295 2.242h7.614c.234 0 .405.224.343.45l-.788 2.873a.356.356 0 0 1-.343.262h-8.915c-2.891 0-5.983-1.3-5.228-5.283.757-3.985 1.365-4.455 2.307-5.852s3.208-2.844 7.043-2.844h8.386c.234 0 .403.223.343.449zM53.844 49.748v-1.785q.001-.066.068-.068h.294q.053.001.081.046l.683 1.113.68-1.113a.1.1 0 0 1 .081-.046h.292q.066.001.068.068v1.785q-.002.066-.068.068h-.24q-.065-.001-.067-.068v-1.246l-.59.947a.09.09 0 0 1-.082.046h-.152a.09.09 0 0 1-.081-.046l-.59-.944v1.243q0 .066-.069.068h-.239q-.066-.001-.068-.068zM56.515 49.155v-1.192c0-.043.026-.068.069-.068h.242q.066.001.068.068v1.205c0 .234.085.286.267.286h.612c.181 0 .264-.052.264-.286v-1.205q.002-.066.068-.068h.245q.066.001.068.068v1.192c0 .405-.196.66-.644.66h-.612c-.452 0-.644-.255-.644-.66zM62.598 49.763l-.128-.28h-1.1l-.13.28a.09.09 0 0 1-.081.052h-.275c-.051 0-.073-.033-.051-.08l.865-1.792c.017-.032.04-.05.079-.05h.288q.055 0 .079.05l.863 1.793c.022.046 0 .079-.051.079h-.275a.08.08 0 0 1-.082-.052m-.269-.59-.405-.885-.411.885zM65.38 49.748v-1.785q.002-.066.069-.068h.243q.066.001.068.068v.72h1.031v-.72q.002-.066.068-.068h.245c.043 0 .069.024.069.068v1.785q0 .066-.069.068h-.245q-.066-.001-.068-.068v-.73H65.76v.73q-.002.066-.068.068h-.243q-.066-.001-.068-.068M67.584 49.748v-1.785q.001-.066.068-.068h.239q.066.001.068.068v1.785q-.001.066-.068.068h-.24q-.065-.001-.067-.068M69.875 49.748v-1.785q.001-.066.068-.068h.24q.065.001.067.068v1.785q0 .066-.068.068h-.239q-.066-.001-.068-.068M70.664 47.963q.001-.066.068-.068h.245q.052 0 .085.04l1.055 1.312v-1.284q0-.066.069-.068h.242q.066.001.068.068v1.785q-.001.066-.068.068h-.245a.1.1 0 0 1-.085-.04l-1.055-1.304v1.277q-.002.066-.068.068h-.243q-.066-.001-.068-.068zM72.908 49.748v-1.785q0-.066.068-.068h1.166c.45 0 .642.239.642.72v.49c0 .48-.194.71-.642.71h-1.166c-.043 0-.069-.023-.069-.067m1.191-.292c.207 0 .313-.057.313-.356v-.482c0-.299-.1-.362-.313-.362h-.814v1.2zM75.174 49.155v-1.192q.002-.066.068-.068h.242q.067.001.069.068v1.205c0 .234.085.286.266.286h.612c.182 0 .264-.052.264-.286v-1.205q.002-.066.069-.068h.245q.066.001.068.068v1.192c0 .405-.196.66-.645.66h-.612c-.451 0-.644-.255-.644-.66zM80.15 49.748V48.26h-.588c-.043 0-.069-.024-.069-.069v-.228q0-.066.069-.068h1.553q.067.001.069.068v.228c0 .043-.024.069-.069.069h-.588v1.488q0 .066-.068.068h-.242c-.043 0-.069-.024-.069-.068zM82.9 49.274l.324.46c.032.047.01.082-.043.082h-.283a.09.09 0 0 1-.082-.043l-.296-.46h-.67v.435q-.001.066-.067.068h-.243q-.066-.001-.068-.068v-1.785q.001-.066.068-.068h.987c.558 0 .77.234.77.693v.04c0 .333-.106.559-.397.645zm.017-.682c0-.283-.122-.335-.42-.335h-.648v.697h.648c.292 0 .42-.05.42-.326zM83.65 49.748v-1.785q.002-.066.069-.068h.239q.066.001.068.068v1.785q-.001.066-.068.068h-.24q-.065-.001-.067-.068M86.072 49.763l-.127-.28h-1.1l-.13.28a.09.09 0 0 1-.082.052h-.275c-.051 0-.073-.033-.051-.08l.865-1.792q.023-.049.08-.05h.287c.038 0 .062.017.08.05l.862 1.793c.022.046 0 .079-.051.079h-.275q-.058 0-.081-.052zm-.269-.59-.405-.885-.41.885zM86.76 49.748v-1.785q.002-.066.069-.068h.243q.066.001.068.068v1.49h1.113q.066 0 .068.069v.226q-.001.066-.068.068H86.83q-.066-.001-.068-.068zM59.458 48.256c-.21 0-.283.049-.283.21 0 .149.07.187.253.2l.607.047c.414.032.589.176.589.533 0 .356-.177.569-.653.569h-1.06q-.065-.001-.067-.068v-.226c0-.043.024-.069.068-.069h1.056c.207 0 .28-.05.28-.209 0-.157-.07-.193-.253-.206l-.607-.047c-.42-.032-.585-.169-.585-.528 0-.36.177-.57.65-.57h1.063q.066.002.068.069v.226q-.001.066-.068.068h-1.057zM63.852 48.256c-.21 0-.283.049-.283.21 0 .149.07.187.253.2l.607.047c.414.032.588.176.588.533 0 .356-.176.569-.652.569h-1.06q-.065-.001-.067-.068v-.226c0-.043.023-.069.068-.069h1.056c.207 0 .28-.05.28-.209 0-.157-.07-.193-.253-.206l-.607-.047c-.42-.032-.585-.169-.585-.528 0-.36.177-.57.65-.57h1.063q.066.002.068.069v.226q-.001.066-.068.068h-1.057zM78.068 48.256c-.21 0-.284.049-.284.21 0 .149.07.187.254.2l.607.047c.413.032.588.176.588.533 0 .356-.177.569-.653.569h-1.059q-.066-.001-.068-.068v-.226c0-.043.024-.069.068-.069h1.057c.207 0 .28-.05.28-.209 0-.157-.07-.193-.254-.206l-.607-.047c-.42-.032-.585-.169-.585-.528 0-.36.177-.57.65-.57h1.063c.043 0 .069.025.069.069v.226q0 .066-.069.068H78.07zM92.503 49.748v-1.489h-.588q-.066 0-.068-.068v-.228q.001-.066.068-.068h1.554q.066.001.068.068v.228q-.001.066-.068.068h-.588v1.489q0 .066-.069.068h-.242q-.066 0-.068-.069M95.147 49.763l-.128-.28h-1.1l-.13.28c-.017.032-.043.052-.081.052h-.275c-.052 0-.073-.033-.052-.08l.866-1.792c.017-.033.04-.05.079-.05h.288q.055 0 .079.05l.863 1.793c.021.046 0 .079-.052.079h-.275a.08.08 0 0 1-.08-.052zm-.269-.59-.405-.885-.411.885zM97.206 49.274l.324.46c.033.047.011.082-.043.082h-.283a.09.09 0 0 1-.081-.043l-.297-.46h-.669v.434q-.002.067-.068.069h-.243q-.066 0-.068-.069v-1.784q.001-.066.068-.068h.987c.559 0 .77.234.77.693v.04c0 .333-.106.559-.397.645zm.017-.682c0-.284-.122-.335-.42-.335h-.647v.697h.648c.291 0 .42-.05.42-.326zM97.9 49.748v-1.785q.001-.066.068-.068h1.445q.066.001.068.068v.226q-.001.066-.068.068h-1.137v.42h.732q.066 0 .068.068v.198q-.001.066-.068.068h-.732v.738q-.001.066-.068.068h-.239q-.066-.001-.068-.068zM99.72 49.748v-1.785q.001-.066.068-.068h.243q.066.001.068.068v1.49h1.113q.066 0 .068.069v.226q-.001.066-.068.068h-1.423q-.066 0-.068-.069M101.496 49.748v-1.785q.001-.066.068-.068h.239c.043 0 .069.024.069.068v1.785q0 .066-.069.068h-.239q-.066 0-.068-.069M104.408 49.748v-1.785q.001-.066.068-.068h.243q.066.001.068.068v.72h1.031v-.72c0-.043.026-.068.069-.068h.245q.066.001.068.068v1.785q-.001.066-.068.068h-.245c-.043 0-.069-.024-.069-.069v-.729h-1.031v.73q-.002.066-.068.068h-.243q-.066 0-.068-.069M107.084 49.748v-1.489h-.588q-.066 0-.068-.068v-.228q.001-.066.068-.068h1.554q.066.001.068.068v.228q-.001.066-.068.068h-.588v1.489q-.001.066-.068.068h-.243q-.066 0-.068-.069zM111.856 49.155v-.596c0-.407.193-.663.644-.663h.699c.452 0 .645.256.645.663v.596c0 .405-.194.66-.645.66h-.699c-.452 0-.644-.255-.644-.66m1.343.298c.182 0 .267-.05.267-.285v-.623c0-.237-.077-.288-.267-.288h-.699c-.188 0-.266.051-.266.288v.623c0 .234.084.285.266.285zM114.165 47.963q.001-.066.068-.068h.245q.052 0 .085.04l1.056 1.312v-1.284q0-.066.068-.068h.242q.066.001.068.068v1.785q0 .066-.068.068h-.245a.1.1 0 0 1-.085-.041l-1.055-1.303v1.277q-.002.066-.068.068h-.243q-.066-.001-.068-.068zM118.508 47.963q0-.066.068-.068h1.488q.066.001.068.068v.226q-.001.066-.068.068h-1.181v.42h.998q.066 0 .068.068v.198q-.002.066-.068.068h-.998v.444h1.181q.066.001.068.068v.226q-.001.066-.068.068h-1.488q-.066-.001-.068-.068zM121.845 49.274l.324.46c.032.047.01.082-.043.082h-.284a.09.09 0 0 1-.081-.043l-.296-.46h-.67v.434q-.002.067-.068.069h-.242c-.043 0-.069-.024-.069-.069v-1.784q0-.066.069-.068h.987c.558 0 .77.234.77.693v.04c0 .333-.107.559-.397.645zm.017-.682c0-.284-.122-.335-.42-.335h-.648v.697h.648c.292 0 .42-.05.42-.326zM122.539 47.963q.001-.066.068-.068h.245q.053 0 .085.04l1.056 1.312v-1.284q.001-.066.068-.068h.243q.066.001.068.068v1.785q-.001.066-.068.068h-.246a.1.1 0 0 1-.084-.041l-1.056-1.303v1.277q-.002.066-.068.068h-.243q-.066-.001-.068-.068zM90.567 48.256c-.21 0-.284.049-.284.21 0 .149.07.187.254.2l.607.047c.413.032.588.176.588.533 0 .356-.177.569-.653.569H90.02q-.066-.001-.068-.068v-.226c0-.043.024-.069.068-.069h1.057c.207 0 .28-.05.28-.209 0-.157-.07-.193-.254-.206l-.607-.047c-.42-.032-.584-.169-.584-.528 0-.36.176-.57.65-.57h1.063q.066.002.068.069v.226q0 .066-.069.068h-1.056zM110.346 48.256c-.187 0-.266.051-.266.288v.623c0 .234.085.285.266.285h1.184q.066 0 .068.069v.225c0 .043-.024.069-.068.069h-1.184c-.452 0-.644-.256-.644-.661v-.596c0-.407.194-.663.644-.663h1.184q.066.001.068.068v.226q-.001.066-.068.068h-1.184zM116.962 48.256c-.188 0-.266.051-.266.288v.623c0 .234.084.285.266.285h1.183c.043 0 .069.024.069.069v.225c0 .043-.024.069-.069.069h-1.183c-.452 0-.644-.256-.644-.661v-.596c0-.407.193-.663.644-.663h1.183c.043 0 .069.024.069.068v.226q0 .066-.069.068h-1.183zM102.816 48.256c-.188 0-.267.051-.267.288v.623c0 .234.085.285.267.285h.626c.182 0 .267-.051.267-.285v-.092h-.469q-.066-.001-.068-.068v-.196q.001-.068.068-.069h.778c.043 0 .069.024.069.069v.343c0 .405-.194.66-.645.66h-.626c-.452 0-.644-.255-.644-.66v-.596c0-.407.193-.663.644-.663h1.183q.066.001.068.068v.226q-.001.066-.068.068h-1.183z"/></svg>