<svg xmlns="http://www.w3.org/2000/svg" fill="none" viewBox="0 0 156 78"><path fill="currentColor" d="M66.868 33.103c0-.798-.643-1.446-1.435-1.446s-1.435.648-1.435 1.446.643 1.447 1.435 1.447 1.435-.648 1.435-1.447M66.838 34.749a.65.65 0 0 0-.647.651c0 .36.29.652.647.652a.65.65 0 0 0 .646-.652c0-.36-.29-.651-.646-.651M47.515 33.659s7.757-6.4 17.115-8.264c7.877-1.57 13.306 1.892 13.306 1.892s-4.362-5.482-14.134-2.866c-8.419 2.254-16.287 9.238-16.287 9.238"/><path fill="currentColor" d="M67.888 22.473s-9.637-2.335-19.421 5.47c-9.786 7.803-12.794 21.744-12.794 21.744s3.33-11.025 14.369-19.451c8.24-6.287 17.846-7.763 17.846-7.763"/><path fill="currentColor" d="M60.178 44.703c-4.65 0-8.362-3.586-7.1-8.211 1.535-5.63 7.713-7.558 10.633-7.715 3.678-.2 8.47 1.794 8.146 6.855-.032.494-.117.98-.246 1.45h2.107a8 8 0 0 0 .132-1.032c.374-5.816-5.132-8.104-9.358-7.874-3.355.18-10.45 2.395-12.216 8.863-1.45 5.313 2.816 9.433 8.157 9.433 2.874 0 5.781-.92 8.154-2.455l.504-2.884c-2.264 2.178-5.615 3.57-8.915 3.57zM55.922 49.479c-6.165-.214-8.82-2.296-8.82-2.296s6.424 7.775 20.901.19l.203-1.158c-4.3 2.436-9.082 3.374-12.282 3.264z"/><path fill="currentColor" d="M78.157 29.159c-2.891-3.217-11.012-3.23-11.012-3.23s13.167.208 9.897 9.987q-.201.599-.44 1.168h1.974c1.379-3.26 1.111-6.226-.417-7.925zM57.84 48.38s-9.587-.015-10.325-6.177c-.585-4.884 4.476-10.908 4.476-10.908s-6.988 5.952-6.45 11.464c.55 5.626 12.4 5.624 12.299 5.62M89.256 24.81s-1.624 5.654-6.839 12.274h2.112c3.254-6.01 4.727-12.274 4.727-12.274M57.039 51.982s4.32 1.056 10.278-.695l.478-2.735c-6.085 2.712-11.333 3.517-10.756 3.43M72.945 38.717h6.62q.434 0 .805.364l.37.363q.369.364.274.913l-1.657 9.478q-.097.547-.593.91l-.497.365q-.499.363-.932.364h-6.62q-.434 0-.805-.364l-.37-.364q-.369-.365-.274-.91l1.657-9.48q.097-.544.593-.912l.497-.363q.499-.364.932-.364m4.959 10.738 1.525-8.713q.047-.273.036-.354-.014-.083-.153-.21a.7.7 0 0 0-.226-.156q-.086-.027-.412-.027h-5.28q-.325 0-.42.027t-.28.156q-.186.127-.226.21a1.6 1.6 0 0 0-.09.354l-1.525 8.713a1.5 1.5 0 0 0-.036.355q.014.082.153.21a.7.7 0 0 0 .226.156q.086.027.411.027h5.28q.327 0 .42-.027.096-.027.28-.156.187-.128.227-.21t.09-.355M83.11 38.717h6.692q.433 0 .804.364l.37.363q.37.364.275.913l-.745 4.265q-.099.565-.618.948l-.519.382q-.455.329-.889.328h-1.013l1.353 2.916q.145.31.211.391.068.083.327.246l.18.11q.294.181.329.29.034.11-.038.53l-.124.71h-.453q-.325 0-.436-.036t-.365-.237l-.301-.237a1.7 1.7 0 0 1-.527-.711l-1.726-3.883h-2.604l-.892 5.105h-1.52l2.233-12.76zm1.295 1.276-.892 5.105h4.502q.325 0 .42-.027t.28-.156q.186-.128.227-.21.04-.082.09-.355l.632-3.61q.048-.273.035-.354-.012-.082-.152-.21a.7.7 0 0 0-.226-.156q-.086-.027-.412-.027zM93.47 38.717h1.52l-2.232 12.76h-1.52zM105.644 41.088h-1.52l.061-.346q.048-.273.036-.354-.013-.083-.152-.21a.7.7 0 0 0-.227-.156q-.085-.027-.411-.027h-4.448a2 2 0 0 0-.42.027q-.096.027-.28.156-.187.127-.227.21a1.6 1.6 0 0 0-.09.354l-1.525 8.713q-.047.274-.035.355.012.082.152.21a.7.7 0 0 0 .226.156q.086.027.412.027h4.448q.326 0 .42-.027.095-.027.281-.156.185-.128.226-.21.04-.082.09-.355l.571-3.264h-2.75l.223-1.276h4.267l-.86 4.922q-.097.547-.593.91l-.497.365q-.499.363-.932.363h-5.787q-.434 0-.804-.363l-.37-.364q-.37-.365-.275-.91l1.657-9.48q.098-.544.593-.912l.498-.364q.498-.363.932-.363h5.786q.433 0 .805.363l.37.364q.369.364.274.913l-.127.73zM107.414 38.717h1.52l-2.233 12.76h-1.519zM117.062 49.108l.058-.018a3 3 0 0 1 .027-.875l1.661-9.496h1.519l-2.232 12.76h-1.52l-4.827-10.244-.057.018q.05.437-.027.874l-1.637 9.352h-1.519l2.232-12.76h1.52l4.8 10.39zM71.275 52.96h-.517a.19.19 0 0 0-.187.154l-.436 2.085c-.029.011-.04.013-.04.015l-.111.001h-.7330000000000001l.018-.088a.19.19 0 0 0-.187-.232h-.517a.19.19 0 0 0-.187.154l-.052.25c-.016.074-.027.262.209.389l.133.072q.173.095.371.094h1.123a1 1 0 0 0 .388-.087l.163-.07q.254-.112.296-.317l.457-2.183a.19.19 0 0 0-.187-.232zM96.653 52.96h-.55a.2.2 0 0 0-.163.09l-1.17 1.905-.397-1.843a.19.19 0 0 0-.187-.152H93.5a.19.19 0 0 0-.161.09l-1.187 1.905-.388-1.843a.19.19 0 0 0-.187-.152h-.55a.19.19 0 0 0-.15.074.2.2 0 0 0-.034.167l.634 2.505a.19.19 0 0 0 .184.145h.728a.19.19 0 0 0 .161-.09l1.146-1.853.374 1.79a.19.19 0 0 0 .186.155h.71a.2.2 0 0 0 .158-.086l1.683-2.505a.2.2 0 0 0 .01-.199.19.19 0 0 0-.168-.103zM101.887 53.126l-.133-.072a.8.8 0 0 0-.372-.094h-2.258a1 1 0 0 0-.387.087l-.164.072q-.253.112-.296.315l-.39 1.861c-.016.074-.027.263.208.39l.133.072q.174.094.372.094h2.258a1 1 0 0 0 .387-.087l.164-.07q.253-.113.296-.318l.39-1.86c.016-.075.027-.263-.207-.39zm-1.053 2.073c-.029.011-.039.013-.039.015l-.112.001h-1.867l.335-1.602.04-.014s.025-.002.11-.002h1.867l-.336 1.602zM107.228 53.126l-.133-.072a.8.8 0 0 0-.372-.094h-2.281a.19.19 0 0 0-.187.154l-.524 2.505a.19.19 0 0 0 .187.232h.517a.19.19 0 0 0 .187-.154l.178-.85h.646l.602.694q.097.12.264.192l.107.047c.076.033.128.05.169.06.04.007.094.01.185.01h.155a.19.19 0 0 0 .187-.153l.028-.14c.016-.08.027-.171-.025-.25-.041-.063-.109-.095-.215-.133l-.065-.022q-.06-.021-.072-.027-.01-.008-.043-.045l-.228-.254a1 1 0 0 0 .289-.076l.171-.076q.259-.114.303-.322l.176-.838c.016-.074.027-.263-.208-.39zm-.844 1.07-.04.015s-.025.002-.111.002h-1.301l.13-.618h1.447l-.125.6zM77.022 52.96h-.517a.19.19 0 0 0-.187.154l-.436 2.085c-.029.011-.04.013-.04.015l-.111.001h-1.706l.424-2.022a.19.19 0 0 0-.187-.232h-.517a.19.19 0 0 0-.187.154l-.456 2.184c-.017.074-.027.262.208.389l.133.072q.173.095.372.094h2.095a1 1 0 0 0 .388-.087l.164-.07q.253-.112.296-.317l.456-2.183a.19.19 0 0 0-.187-.232zM83.902 52.96h-.831a.19.19 0 0 0-.144.065l-1.614 1.852-.812-1.803a.19.19 0 0 0-.174-.112h-.84a.19.19 0 0 0-.186.153l-.524 2.506a.19.19 0 0 0 .187.232h.517a.19.19 0 0 0 .187-.154l.346-1.653.12.273q.115.258.291.64c.119.253.245.519.377.787a.19.19 0 0 0 .171.107h.395a.19.19 0 0 0 .144-.066l1.481-1.701-.32 1.533a.19.19 0 0 0 .187.232h.516a.19.19 0 0 0 .187-.154l.524-2.505a.19.19 0 0 0-.187-.232zM89.155 53.126l-.133-.072a.77.77 0 0 0-.371-.094H86.37a.19.19 0 0 0-.187.154l-.524 2.505a.19.19 0 0 0 .187.232h.517a.19.19 0 0 0 .186-.154l.178-.85h1.61a1 1 0 0 0 .387-.086l.164-.072q.253-.113.296-.317l.18-.858c.016-.074.027-.263-.209-.39zm-.844 1.07-.04.015s-.024.002-.11.002h-1.3l.129-.618h1.4469999999999998l-.126.6zM112.703 52.96h-.136c-.088 0-.144.004-.185.009-.04.007-.097.023-.181.056l-.128.047q-.176.065-.305.17l-1.06.828h-.364l.183-.877a.19.19 0 0 0-.187-.232h-.517a.19.19 0 0 0-.187.154l-.524 2.506a.19.19 0 0 0 .037.161.19.19 0 0 0 .149.07h.518a.19.19 0 0 0 .186-.153l.209-.992h.398l.717.834c.047.056.081.09.113.114a1 1 0 0 0 .149.08l.108.047a1 1 0 0 0 .169.06c.039.007.093.01.185.01h.172a.19.19 0 0 0 .187-.153l.029-.14c.016-.08.027-.172-.024-.25-.041-.063-.111-.097-.215-.133l-.065-.022-.083-.03c-.005-.006-.014-.015-.03-.037l-.005-.007-.581-.66.846-.664c.063-.047.083-.058.085-.06.002 0 .025-.01.108-.037l.07-.022a.5.5 0 0 0 .217-.102c.047-.043.075-.104.097-.204l.029-.14a.191.191 0 0 0-.187-.232zM117.518 53.126l-.133-.072a.76.76 0 0 0-.371-.094h-1.64a1 1 0 0 0-.388.087l-.163.072q-.254.112-.297.315l-.154.74c-.015.068-.024.24.199.355l.146.08a.8.8 0 0 0 .373.096h1.5410000000000001l-.102.492c-.029.011-.04.013-.04.015 0 0-.023.002-.111.002h-1.374a.19.19 0 0 0-.19-.214h-.518a.19.19 0 0 0-.186.152l-.031.143c-.016.074-.027.263.208.39l.133.072a.76.76 0 0 0 .372.094h1.764a1 1 0 0 0 .388-.087l.163-.07q.254-.113.296-.318l.158-.75c.017-.075.027-.263-.206-.39l-.133-.072a.8.8 0 0 0-.372-.095h-1.541l.095-.456.04-.014s.025-.002.11-.002h1.249a.2.2 0 0 0 .042.143.19.19 0 0 0 .149.07h.517c.09 0 .169-.063.187-.151l.03-.143c.017-.075.027-.263-.206-.39z"/></svg>