<svg xmlns="http://www.w3.org/2000/svg" fill="none" viewBox="0 0 156 78"><path fill="currentColor" d="M80.653 31.62 90.99 38.54c1.05.696 1.626 2.307 1.34 3.518l-1.48 5.893c-.287 1.207-1.59 2.233-2.892 2.233H74.942l1.592-6.296h7.846c.577 0 1.012-.404 1.12-.77.145-.478.034-.841-.543-1.245l-10.413-7.03c-1.05-.696-1.63-2.307-1.34-3.514l1.481-5.93c.29-1.207 1.555-2.233 2.82-2.233l14.937-.015-.003.015-1.593 6.26-.003.021h-.008l-9.676-.022c-.577 0-1.012.219-1.157.804-.145.589.07 1.026.65 1.392"/><path fill="currentColor" fill-rule="evenodd" d="M65.73 43.883c-.435 0-.833-.33-.94-.733l-1.084-4.648 4.956-2.489c1.194-.585 2.206-1.792 2.567-3.26l1.7-6.588c.436-1.648-.614-3.003-2.314-3.003h-18.33l-6.797 27.014h6.436l1.663-6.552 4.338-2.196 1.555 6.514c.29 1.208 1.518 2.234 2.783 2.234h5.134l1.589-6.297H65.73zm-10.156-8.126.048-.196 1.54-6.137h7.449c.576 0 .974.219.833.697-.108.366-.36.807-1.086 1.17z" clip-rule="evenodd"/><path fill="currentColor" d="m72.152 43.883-1.593 6.296h1.068l1.604-6.296zM70.02 43.883h1.09l-1.607 6.296h-1.109l1.622-6.285zM74.272 43.883 72.68 50.18h1.12l1.592-6.296zM97.298 29.424l1.584-6.259h-1.045l-1.592 6.26zM96.758 23.165l-1.581 6.26H94.12l1.6-6.26zM94.626 23.165H94.6l.004-.015h-1.116l-.004.015-1.585 6.26-.004.021h1.117l.003-.022zM100.025 23.165l.003-.015 6.436.015L99.63 50.18h-6.507L100 23.165zM79.49 53.398q.01.139.008.244v1.204h-.417v-2.23h.328l1.164 1.311.076.09.028.033.008.007-.005-.149-.003-.125v-1.17h.413v2.23h-.327l-1.217-1.375-.008-.011-.01-.012z"/><path fill="currentColor" fill-rule="evenodd" d="m47.28 54.846-.666-.837h-.298v.837h-.446v-2.23h1.447q.228 0 .316.104.09.106.09.33v.522q0 .227-.09.33-.091.104-.316.103h-.179l.763.837h-.621zm.003-1.663q.002-.094-.037-.133-.033-.034-.1-.034h-.83v.608h.83q.066.001.104-.037.033-.039.033-.134zM50.42 54.735q-.084.11-.358.11H48.85q-.274 0-.358-.11c-.055-.074-.085-.215-.085-.415v-1.17c0-.2.03-.341.086-.415.055-.078.178-.115.357-.115h1.212q.274-.001.358.115t.085.415v1.17q-.001.301-.085.415m-.369-1.708h-1.198v1.393h1.198zM52.592 54.85q.276 0 .398-.111.123-.114.123-.326v-.286q0-.365-.29-.425.28-.057.28-.375v-.27q0-.227-.09-.33-.089-.106-.316-.107h-1.451v2.23zm.056-.93c.026.033.037.081.037.155h.004v.17q.001.113-.037.153t-.115.04h-.841v-.555h.84q.08-.001.112.037m-.015-.9q.04.04.041.122v.215q.002.084-.037.118c-.022.023-.06.034-.104.034h-.84v-.519h.84q.066-.001.1.03" clip-rule="evenodd"/><path fill="currentColor" d="M53.787 54.846V52.62h1.76v.385H54.24v.485h.762v.39h-.763v.54h1.321v.426z"/><path fill="currentColor" fill-rule="evenodd" d="m56.945 54.009.666.837v-.004h.621l-.762-.837h.178q.226.001.316-.104c.06-.07.09-.177.09-.33v-.521q0-.224-.09-.33-.087-.105-.316-.104h-1.447v2.23h.447v-.837zm.633-.96q.038.04.037.134v.27q0 .095-.034.134-.038.038-.104.037h-.83v-.608h.83q.067 0 .1.034" clip-rule="evenodd"/><path fill="currentColor" d="M59.527 53.024v1.822h-.454v-1.822h-.755v-.404h1.972v.404zM62.105 54.85q.274.001.361-.115.091-.116.086-.415v-.307c0-.2-.026-.341-.086-.415q-.089-.116-.36-.115h-.998v-.467h1.012v.27l.406-.129v-.048q0-.272-.09-.382t-.353-.11h-.937c-.18 0-.302.036-.358.114-.055.074-.085.215-.085.415v.248q.001.299.085.415t.358.115h.993v.496h-1.094v-.278l-.41.115v.063q0 .301.09.415.089.116.361.115zM66.295 54.735q-.09.116-.361.115h-1.02q-.272.001-.36-.115c-.06-.074-.09-.215-.09-.415v-.063l.41-.115v.278h1.097v-.496h-.993q-.273.001-.361-.115c-.06-.078-.086-.215-.086-.415v-.248q.001-.301.086-.415c.055-.078.178-.115.36-.115h.938q.264 0 .353.111.09.11.09.382v.048l-.406.13v-.27h-1.016v.466h.998q.272-.001.36.115c.06.074.086.215.086.415v.307q.002.299-.085.415"/><path fill="currentColor" fill-rule="evenodd" d="M68.557 53.983c.148 0 .256-.033.316-.104q.09-.105.089-.333v-.496q0-.224-.09-.33-.087-.105-.316-.104H67.11v2.23h.447v-.863zm-.075-.933q.038.039.037.133v.24q0 .096-.033.134-.036.038-.104.037h-.83v-.578h.83q.066 0 .1.034M70.759 54.846l-.197-.485h-.979l-.193.485h-.454l.941-2.23h.435l.953 2.23zm-.681-1.704-.331.808h.647z" clip-rule="evenodd"/><path fill="currentColor" d="M73.036 54.846q.267 0 .357-.111.091-.112.085-.419v-.263l-.453-.126v.493h-.968v-1.393h.968v.43l.453-.096v-.211q-.001-.299-.085-.415c-.06-.078-.175-.115-.357-.115h-.986c-.182 0-.305.037-.361.115-.056.074-.086.215-.086.415v1.17q.001.301.086.415.09.11.36.11zM74.204 54.846V52.62h1.76v.385h-1.306v.485h.763v.39h-.763v.54h1.32v.426zM77.857 52.62h.454v2.23h-.454z"/><path fill="currentColor" fill-rule="evenodd" d="M82.865 54.85q.498 0 .71-.178.364-.304.365-.952 0-.522-.245-.811t-.73-.289h-1.097v2.23zm.1-1.826a.45.45 0 0 1 .372.174q.139.172.138.51-.001.384-.164.545-.164.162-.528.163h-.461v-1.392z" clip-rule="evenodd"/><path fill="currentColor" d="M86.422 54.735q-.084.11-.358.11h-1.041c-.183 0-.298-.036-.357-.11-.06-.074-.086-.215-.086-.415v-1.7h.454v1.8h1.027v-1.8h.45v1.7q-.006.301-.09.415M88.698 54.85q.274.001.361-.115.089-.116.082-.415v-.307c0-.2-.026-.341-.086-.415q-.088-.116-.36-.115h-.997v-.467h1.015v.27l.406-.129v-.048q0-.272-.09-.382t-.353-.11h-.937c-.179 0-.302.036-.358.114-.055.074-.085.215-.085.415v.248q.001.299.085.415t.358.115h.993v.496h-1.094v-.278l-.41.115v.063q0 .301.09.415.089.116.361.115zM90.707 53.024v1.822h-.453v-1.822h-.756v-.404h1.972v.404z"/><path fill="currentColor" fill-rule="evenodd" d="m92.612 54.009.666.837v-.004h.621l-.762-.837h.178q.226.001.317-.104c.06-.07.089-.177.089-.33v-.521q0-.224-.09-.33-.087-.105-.316-.104h-1.447v2.23h.447v-.837zm.636-.96q.038.04.037.134v.27q0 .095-.033.134c-.022.026-.06.037-.104.037h-.83v-.608h.83q.066 0 .1.034" clip-rule="evenodd"/><path fill="currentColor" d="M94.889 52.62h-.454v2.23h.454zM95.663 52.62v2.226h1.775v-.426h-1.321v-.54h.762v-.39h-.762v-.485h1.306v-.385zM99.856 54.735q-.089.116-.361.115h-1.02q-.271.001-.36-.115c-.06-.074-.086-.215-.086-.415v-.063l.41-.115v.278h1.093v-.496h-.993q-.274.001-.358-.115t-.085-.415v-.248q.001-.301.085-.415c.056-.078.18-.115.358-.115h.937q.263 0 .354.111.09.11.089.382v.048l-.406.13v-.27h-1.015v.466h.993q.272-.001.36.115c.06.074.087.215.087.415v.307q.009.299-.082.415M107.277 24.781c0-1.12.507-1.63 1.618-1.63s1.617.512 1.617 1.63c0 1.122-.506 1.634-1.617 1.634s-1.618-.512-1.618-1.634m2.991 0c0-.955-.431-1.389-1.376-1.389-.946 0-1.376.431-1.376 1.39 0 .955.43 1.389 1.376 1.389.948 0 1.376-.434 1.376-1.39m-.722-.276c0 .32-.084.451-.328.498l.366.585c.018.017.009.035-.017.035h-.303c-.038 0-.052-.009-.067-.038l-.358-.559h-.18v.565c0 .026-.003.03-.026.03h-.294c-.026 0-.029-.007-.029-.03V24c0-.018.006-.026.026-.026a7 7 0 0 1 .588-.02c.462 0 .622.124.622.55m-.887-.248v.507h.227c.233 0 .303-.044.303-.248 0-.21-.07-.259-.303-.259z"/></svg>