<svg xmlns="http://www.w3.org/2000/svg" width="156" height="78" fill="none" viewBox="0 0 156 78"><path fill="currentColor" d="m37.337 41.83-3.396 5.88h-9.583l-3.395-5.88h-3.895l5.343 9.253h13.477l5.343-9.254zm-16.442-4.72 3.463-5.999h9.583l3.463 5.999H41.3l-5.41-9.372H22.41L17 37.11z"/><path fill="currentColor" d="M33.695 37.11h-2.78v7.72h-3.531v-7.72h-2.78v-2.657h9.091zm51.675 7.72V34.454h5.721q1.59 0 2.27.58.68.582.68 1.694t-.433 1.719a1.97 1.97 0 0 1-1.157.788v.1q2.136.35 2.137 2.74 0 1.246-.706 2.001-.707.756-2.172.756h-6.34Zm4.685-8.128h-1.262v1.596h1.244q.693 0 .693-.798c0-.798-.225-.798-.675-.798m-1.262 3.966v1.75h1.518q.766 0 .766-.875c0-.875-.25-.875-.748-.875zm19.681 4.162-1.448-3.088h-.98v3.089h-3.423V34.452h5.562q3.797 0 3.797 3.637 0 2.49-1.642 3.288l1.907 3.454zm-2.428-7.772v2.177h.96q.667 0 .973-.13.305-.131.305-.602v-.714q0-.47-.305-.6-.306-.13-.973-.131zm14.235 7.772V34.454h3.533V44.83zm19.599 0h-7.283V34.454h3.532v7.721h3.751v2.657ZM52.638 34.453v6.907q0 .566-.247.723t-.918.157h-.088q-.672 0-.919-.157-.246-.157-.247-.723v-6.907h-3.532v5.828q0 1.412.195 2.275c.195.863.37 1.063.723 1.461q.53.598 1.44.83.909.233 2.374.233t2.385-.233q.918-.231 1.448-.83.53-.597.724-1.461.195-.864.194-2.275v-5.828zm23.944-.001h-4.5l-1.449 5.552h-.204l-1.45-5.552h-4.5l-.67 10.378h3.582l.218-5.267h.16l1.408 5.267h2.708l1.407-5.267h.16l.219 5.267h3.582z"/></svg>