<svg xmlns="http://www.w3.org/2000/svg" width="156" height="78" fill="none" viewBox="0 0 156 78"><path fill="#AE641C" d="m37.337 41.775-3.396 5.749h-9.583l-3.395-5.75h-3.895l5.343 9.047h13.477l5.343-9.046zm-16.442-4.614 3.463-5.864h9.583l3.463 5.864H41.3L35.89 28H22.41L17 37.161z"/><path fill="#AE641C" d="M33.695 37.16h-2.78v7.55h-3.531v-7.55h-2.78v-2.596h9.091zm51.675 7.55V34.563h5.721q1.59 0 2.27.568t.68 1.655c0 1.087-.145 1.286-.433 1.68a1.97 1.97 0 0 1-1.157.771v.098q2.136.34 2.137 2.678 0 1.218-.706 1.956-.707.74-2.172.74zm4.685-7.948h-1.262v1.56h1.244q.693 0 .693-.78c0-.78-.225-.78-.675-.78m-1.262 3.877v1.711h1.518q.766 0 .766-.855 0-.856-.748-.856zm19.681 4.071-1.448-3.02h-.98v3.02h-3.423V34.563h5.562q3.797 0 3.797 3.555 0 2.434-1.642 3.214l1.907 3.376h-3.773Zm-2.428-7.6v2.129h.96q.667 0 .973-.128.305-.127.305-.587v-.698q0-.459-.305-.588-.306-.127-.973-.127zm14.235 7.6V34.563h3.533v10.145h-3.533Zm19.599 0h-7.283V34.563h3.532v7.548h3.751v2.597ZM52.638 34.564v6.752q0 .553-.247.707t-.918.154h-.088q-.672 0-.919-.154-.246-.154-.247-.707v-6.752h-3.532v5.697q0 1.38.195 2.224.194.845.723 1.429.53.585 1.44.811.909.228 2.374.228t2.385-.228q.918-.227 1.448-.811t.724-1.429q.195-.844.194-2.224v-5.697zm23.944-.001h-4.5l-1.449 5.427h-.204l-1.45-5.427h-4.5l-.67 10.146h3.582l.218-5.15h.16l1.408 5.15h2.708l1.407-5.15h.16l.219 5.15h3.582z"/></svg>