<svg xmlns="http://www.w3.org/2000/svg" width="1024" height="1024" viewBox="0 0 1024 1024">
<g transform="translate(512, 512) scale(1.6) translate(-325, -320)">
<path d="M 309.00 605.87 C309.00,604.24 290.90,586.00 289.29,586.00 C288.56,586.00 285.92,584.13 283.44,581.84 C280.04,578.70 278.64,577.96 277.78,578.82 C276.36,580.24 273.00,577.58 273.00,575.05 C273.00,572.11 265.77,566.00 262.28,566.00 C260.40,566.00 257.97,565.00 256.18,563.50 C254.55,562.12 252.67,561.00 252.01,561.00 C250.83,561.00 248.06,559.08 241.58,553.75 C239.74,552.24 237.73,551.00 237.12,551.00 C235.45,551.00 235.76,549.58 238.07,546.63 C239.21,545.19 241.01,544.00 242.07,544.00 C244.38,544.00 244.56,542.71 242.50,541.00 C240.40,539.26 240.60,532.28 242.92,526.38 C246.72,516.73 250.00,504.80 250.00,500.64 C250.00,498.31 250.56,495.84 251.24,495.16 C251.92,494.48 253.01,491.80 253.66,489.21 C254.31,486.62 255.83,481.80 257.03,478.50 C259.46,471.83 260.28,468.62 262.88,455.50 C263.86,450.55 265.38,445.13 266.25,443.45 C269.53,437.17 272.24,427.23 272.94,418.92 C273.57,411.52 274.11,409.70 276.93,405.60 C279.63,401.68 280.08,400.26 279.56,397.44 C279.07,394.87 279.64,392.36 281.85,387.26 C283.46,383.54 285.11,379.40 285.52,378.06 C286.40,375.16 289.81,372.08 292.20,372.03 C293.14,372.01 295.08,372.54 296.52,373.19 C298.66,374.17 299.31,374.12 300.04,372.94 C301.16,371.13 309.28,371.15 311.47,372.98 C312.77,374.06 312.92,375.98 312.37,385.02 C311.75,395.11 311.84,395.92 313.86,398.08 C316.35,400.75 316.51,402.74 314.47,405.44 C313.66,406.51 313.00,408.01 313.00,408.78 C313.00,409.55 312.12,411.31 311.04,412.68 C309.11,415.13 309.11,415.23 310.95,417.84 C311.98,419.30 313.11,422.63 313.47,425.23 C314.08,429.68 313.91,430.15 310.56,433.51 C307.12,436.95 307.00,437.32 307.00,444.50 C307.00,451.33 307.24,452.21 310.00,455.35 C313.47,459.29 313.72,461.04 311.17,463.34 C308.91,465.39 309.39,470.14 312.10,472.59 C313.15,473.54 314.00,475.44 314.00,476.83 L 314.00 479.35 L 311.50 477.00 C309.52,475.14 309.00,474.98 309.00,476.25 C309.00,477.13 310.20,478.80 311.68,479.96 L 314.35 482.06 L 312.25 483.54 C310.33,484.88 310.10,486.27 309.55,499.76 C308.75,519.38 308.86,527.78 310.00,532.00 C312.23,540.31 313.08,550.47 311.94,555.25 C311.31,557.86 310.33,560.00 309.75,560.00 C309.06,560.00 308.90,562.83 309.30,568.41 C309.67,573.77 309.47,577.94 308.74,579.88 C307.72,582.57 307.86,583.22 309.86,585.35 C313.89,589.64 313.98,607.00 309.96,607.00 C309.43,607.00 309.00,606.49 309.00,605.87 ZM 348.00 564.86 C348.00,561.67 348.56,559.80 349.88,558.61 C351.50,557.15 351.63,556.30 350.80,552.70 C350.28,550.39 350.12,546.35 350.46,543.71 C350.88,540.45 350.53,537.19 349.36,533.46 C347.55,527.73 347.55,527.60 350.93,503.18 C351.43,499.51 351.42,495.50 350.91,493.62 C350.41,491.84 349.82,485.68 349.59,479.94 C349.36,474.20 348.86,467.79 348.47,465.71 C347.94,462.81 348.18,461.46 349.48,460.02 C351.25,458.06 351.26,458.17 348.31,446.20 C347.93,444.65 348.45,443.15 349.90,441.61 C351.84,439.54 351.98,438.63 351.37,431.91 C350.93,427.00 350.06,423.68 348.82,422.07 C347.33,420.16 347.03,418.50 347.39,414.26 C347.65,411.30 348.38,408.25 349.02,407.48 C349.92,406.40 349.81,404.94 348.56,401.19 C347.67,398.51 346.98,395.01 347.02,393.41 C347.07,391.81 347.33,385.33 347.62,379.00 C348.27,364.49 348.63,364.00 358.57,364.00 L 365.84 364.00 L 368.00 370.49 C369.18,374.06 370.58,377.24 371.11,377.57 C371.63,377.89 371.78,379.66 371.43,381.51 C370.98,383.91 371.54,386.69 373.40,391.35 C374.83,394.92 376.00,399.20 376.00,400.86 C376.00,402.52 376.45,404.16 377.00,404.50 C377.67,404.91 377.65,405.79 376.94,407.10 C375.82,409.20 377.56,416.88 380.77,424.00 C381.64,425.92 382.44,428.33 382.54,429.34 C383.45,438.02 385.44,449.68 386.14,450.45 C386.61,450.97 387.02,452.32 387.04,453.45 C387.07,454.58 387.78,457.30 388.62,459.50 C390.37,464.06 391.78,470.05 392.99,478.00 C393.74,482.93 395.40,490.04 399.08,504.16 C400.26,508.69 400.21,508.92 397.20,512.57 C394.72,515.58 394.31,516.71 395.12,518.22 C396.43,520.67 398.83,521.57 400.27,520.13 C401.82,518.58 403.00,518.71 403.00,520.43 C403.00,521.79 400.96,523.69 395.97,527.00 C394.72,527.83 392.57,529.74 391.19,531.25 C389.80,532.76 388.07,534.00 387.34,534.00 C386.61,534.00 385.45,534.90 384.77,536.00 C384.06,537.13 382.42,538.01 381.01,538.02 C377.71,538.04 376.43,538.97 375.53,542.00 C374.23,546.39 372.04,549.00 369.65,549.00 C368.24,549.00 366.84,549.93 366.08,551.36 C365.38,552.65 363.07,554.79 360.93,556.11 C358.79,557.42 356.80,559.20 356.52,560.05 C356.23,560.90 354.19,563.36 352.00,565.50 L 348.00 569.41 L 348.00 564.86 ZM 206.04 478.54 C205.37,477.74 205.12,476.62 205.47,476.05 C205.83,475.47 205.53,474.17 204.81,473.16 C202.81,470.34 191.91,461.76 191.21,462.45 C190.23,463.44 170.00,442.72 170.00,440.73 C170.00,438.69 170.74,437.70 176.73,431.72 C179.06,429.40 180.97,426.80 180.98,425.95 C180.99,425.09 182.62,422.84 184.60,420.95 C186.58,419.05 190.13,414.58 192.50,411.00 C194.87,407.42 198.42,402.95 200.40,401.05 C203.67,397.92 204.00,397.80 204.00,399.75 C204.00,401.04 202.87,402.56 201.14,403.58 C199.56,404.51 197.53,406.53 196.62,408.06 C195.03,410.76 195.06,410.96 197.50,413.68 L 200.03 416.50 L 208.99 407.00 C213.92,401.77 217.96,396.97 217.97,396.33 C218.01,394.61 209.95,388.00 207.82,388.00 C206.82,388.00 206.00,387.60 206.00,387.12 C206.00,386.63 205.21,385.96 204.25,385.62 C203.29,385.28 200.93,383.88 199.00,382.50 C197.07,381.13 191.24,376.96 186.02,373.25 C173.85,364.58 149.41,340.91 147.03,335.50 C146.06,333.30 143.57,329.48 141.49,327.00 C139.41,324.52 137.06,320.92 136.26,319.00 C135.46,317.08 133.57,312.80 132.06,309.50 C130.55,306.20 128.76,301.82 128.08,299.76 C127.41,297.71 126.44,295.77 125.93,295.45 C125.42,295.14 125.00,293.97 125.00,292.85 C125.00,291.73 123.65,286.92 122.01,282.16 C118.38,271.65 114.58,249.84 114.86,241.14 C114.98,237.42 114.58,234.19 113.88,233.36 C113.00,232.29 112.98,231.00 113.80,228.22 C114.41,226.17 115.59,221.12 116.43,217.00 C119.72,200.78 122.31,191.71 126.72,181.00 C127.28,179.62 128.08,176.93 128.48,175.00 C128.89,173.07 129.83,170.81 130.58,169.96 C131.33,169.11 132.97,165.73 134.24,162.46 C137.83,153.18 143.38,145.41 154.63,133.90 C160.34,128.07 165.00,122.61 165.00,121.78 C165.00,119.98 171.03,114.47 180.61,107.50 C188.22,101.96 195.78,97.00 196.60,97.00 C196.89,97.00 201.48,93.78 206.79,89.83 C212.11,85.89 218.26,82.11 220.48,81.42 C225.71,79.80 231.00,77.08 231.00,76.01 C231.00,74.48 237.41,71.23 241.86,70.50 C244.25,70.11 247.02,68.98 248.01,67.99 C249.82,66.18 252.40,65.09 256.35,64.46 C257.53,64.27 260.30,63.60 262.50,62.97 C271.05,60.51 285.91,57.77 294.50,57.07 C301.28,56.51 304.77,55.67 308.65,53.66 C317.36,49.15 317.40,49.20 316.70,62.37 C316.36,68.62 315.34,76.72 314.42,80.36 C312.91,86.38 312.90,87.41 314.30,91.74 C315.30,94.85 315.90,101.02 316.02,109.50 C316.23,124.00 316.02,125.98 313.75,131.02 C312.64,133.48 312.14,137.80 312.08,145.44 C311.98,158.13 310.96,160.23 305.04,159.96 C298.02,159.65 297.00,159.91 297.00,162.01 C297.00,163.21 295.68,164.84 293.75,166.03 C291.04,167.70 289.06,167.99 281.84,167.77 C274.19,167.53 272.83,167.76 270.13,169.75 C268.31,171.09 265.64,172.00 263.52,172.00 C260.69,172.00 259.72,172.51 258.82,174.50 C257.65,177.06 255.60,177.78 254.50,176.00 C253.34,174.13 251.76,174.98 252.33,177.16 C253.56,181.85 248.20,186.06 241.97,185.28 C239.01,184.90 237.48,185.54 232.39,189.29 C224.21,195.31 209.01,210.74 207.35,214.71 C206.61,216.48 204.74,219.40 203.19,221.21 C198.68,226.49 192.02,237.05 191.41,239.89 C191.11,241.32 190.40,244.75 189.85,247.50 C189.29,250.25 188.47,253.94 188.03,255.70 C186.83,260.43 188.60,280.49 191.09,290.41 C192.30,295.22 194.75,301.52 196.63,304.64 C198.48,307.72 200.00,310.87 200.00,311.64 C200.00,313.25 205.75,323.73 207.10,324.56 C207.59,324.87 208.00,326.01 208.00,327.10 C208.00,329.54 211.09,334.02 217.00,340.16 C221.37,344.69 227.14,347.87 225.52,344.86 C224.90,343.69 230.48,349.40 239.57,359.24 C243.90,363.92 249.29,367.63 249.75,366.25 C250.30,364.60 253.00,364.67 256.60,366.40 C258.19,367.18 261.64,368.76 264.25,369.93 C266.86,371.10 269.00,372.45 269.00,372.95 C269.00,373.83 262.34,383.03 260.99,384.00 C259.67,384.95 258.00,388.88 258.00,391.02 C258.00,392.31 255.86,395.23 252.64,398.34 C247.11,403.66 243.00,410.35 243.00,414.02 C243.00,415.17 241.72,417.32 240.16,418.81 C237.47,421.36 232.00,430.27 232.00,432.10 C232.00,432.57 230.65,435.90 229.00,439.50 C227.35,443.10 226.00,446.47 226.00,446.99 C226.00,447.51 224.65,449.47 223.00,451.35 C220.78,453.88 220.00,455.77 219.99,458.63 C219.99,460.81 219.12,463.81 218.00,465.50 C216.91,467.15 216.01,469.04 216.01,469.70 C216.00,471.67 209.96,480.00 208.55,480.00 C207.83,480.00 206.70,479.34 206.04,478.54 ZM 449.14 474.67 C446.24,471.17 442.00,461.69 442.00,458.69 C442.00,456.42 441.20,454.60 439.50,453.00 C438.12,451.71 437.00,449.96 437.00,449.11 C437.00,445.85 427.47,425.82 423.81,421.39 C421.70,418.84 419.73,415.57 419.44,414.13 C418.49,409.55 415.65,404.80 410.71,399.60 C408.08,396.83 405.66,393.42 405.33,392.03 C405.00,390.64 402.31,386.32 399.36,382.43 C394.01,375.37 392.82,371.58 395.20,369.20 C395.86,368.54 397.24,368.00 398.26,368.00 C399.29,368.00 402.64,366.85 405.70,365.45 C409.61,363.66 412.14,363.09 414.18,363.54 C417.69,364.31 420.87,362.49 426.50,356.51 C428.70,354.17 432.30,351.07 434.50,349.62 C446.64,341.62 449.89,337.89 456.17,324.79 C467.26,301.65 468.78,298.11 470.26,292.00 C474.28,275.45 474.77,265.78 472.34,251.00 C470.56,240.25 468.77,236.56 459.97,225.63 C456.69,221.54 454.00,217.58 454.00,216.82 C454.00,215.26 434.99,195.61 427.47,189.40 C420.34,183.51 418.64,182.75 415.59,184.14 C413.32,185.18 412.59,184.90 408.45,181.40 C405.91,179.25 403.06,177.05 402.12,176.50 C401.17,175.95 398.56,174.04 396.31,172.25 C394.05,170.46 391.64,169.00 390.93,169.00 C390.23,169.00 388.85,168.27 387.86,167.37 C386.46,166.10 384.18,165.78 377.55,165.91 L 369.04 166.08 L 364.73 162.11 C361.28,158.93 359.53,158.07 355.96,157.82 L 351.50 157.50 L 350.94 145.00 C350.55,136.36 349.84,131.33 348.66,128.72 C347.20,125.50 347.04,122.95 347.58,111.22 C347.93,103.68 348.86,95.53 349.64,93.12 C350.89,89.28 350.88,88.08 349.53,83.45 C348.68,80.54 347.71,72.84 347.37,66.33 C346.78,55.27 346.87,54.38 348.78,52.68 C350.58,51.06 351.29,51.00 355.15,52.11 C357.54,52.79 360.09,53.80 360.82,54.36 C361.55,54.91 366.72,55.99 372.32,56.75 C392.86,59.54 394.53,59.78 396.00,60.27 C399.08,61.28 408.66,63.96 413.30,65.10 C415.94,65.75 419.09,67.03 420.30,67.95 C421.51,68.86 424.52,70.23 427.00,70.98 C429.48,71.73 432.85,73.59 434.50,75.11 C437.81,78.18 445.44,81.94 448.40,81.98 C449.44,81.99 452.14,83.50 454.40,85.34 C456.65,87.18 462.55,91.38 467.50,94.67 C487.97,108.28 496.24,114.49 497.16,116.96 C497.68,118.36 502.30,123.78 507.43,129.00 C516.89,138.63 524.39,149.68 525.61,155.78 C525.96,157.55 527.91,160.91 529.95,163.25 C534.36,168.32 535.42,170.79 533.93,172.58 C533.11,173.57 533.59,175.87 535.85,181.70 C537.51,185.99 539.40,191.98 540.06,195.00 C540.72,198.02 541.85,202.52 542.58,205.00 C549.49,228.59 546.17,259.91 533.21,293.50 C528.45,305.86 522.19,318.11 519.77,319.84 C518.74,320.58 516.86,323.51 515.59,326.34 C514.33,329.18 511.99,332.79 510.40,334.37 C496.03,348.62 480.56,363.12 476.66,366.00 C474.05,367.92 469.50,371.30 466.55,373.50 C463.60,375.70 460.20,378.17 458.98,379.00 C457.76,379.83 455.61,381.40 454.18,382.50 C452.76,383.60 450.00,384.96 448.06,385.53 C446.11,386.10 444.40,387.22 444.26,388.03 C444.11,388.84 448.95,394.65 455.00,400.95 C461.05,407.25 466.00,411.95 466.00,411.40 C466.00,410.84 464.46,408.89 462.57,407.06 C460.68,405.23 458.57,402.38 457.89,400.72 C456.76,398.01 456.86,397.54 458.87,395.90 C460.69,394.43 461.56,394.30 463.55,395.21 C464.90,395.82 466.00,397.08 466.00,398.01 C466.00,398.93 466.90,400.50 468.00,401.50 C469.10,402.50 470.00,403.80 470.00,404.40 C470.01,405.01 472.48,408.27 475.50,411.66 C478.53,415.05 481.00,418.22 481.00,418.70 C481.00,419.19 483.01,421.55 485.46,423.96 C487.92,426.37 490.39,429.68 490.96,431.31 C491.91,434.05 491.67,434.59 487.75,438.47 C485.41,440.79 482.81,443.09 481.98,443.59 C481.14,444.09 478.21,447.16 475.48,450.40 C472.74,453.65 468.97,456.95 467.10,457.73 C462.33,459.73 455.00,466.07 455.00,468.21 C455.00,469.20 454.55,470.00 454.00,470.00 C453.45,470.00 453.00,470.84 453.00,471.88 C453.00,474.63 450.57,476.39 449.14,474.67 ZM 408.00 175.11 C408.00,174.09 404.95,172.71 404.26,173.41 C404.01,173.66 404.10,174.35 404.46,174.93 C405.26,176.22 408.00,176.36 408.00,175.11 ZM 379.95 296.43 C378.17,294.29 373.55,292.00 371.01,292.00 C369.86,292.00 367.63,291.05 366.05,289.88 C364.48,288.72 362.81,287.99 362.35,288.27 C361.88,288.54 359.48,287.81 357.00,286.63 C351.64,284.08 350.39,280.24 354.08,277.66 C356.12,276.23 356.19,275.82 355.06,271.81 C351.12,257.78 350.80,255.57 351.84,249.20 C352.42,245.69 354.69,239.16 356.97,234.44 C360.34,227.49 362.09,225.16 366.78,221.42 C381.32,209.84 394.94,207.60 411.82,214.02 C419.34,216.88 421.35,218.42 425.52,224.46 C433.90,236.63 436.38,252.42 431.60,263.13 C430.28,266.08 428.03,270.21 426.59,272.31 C425.16,274.40 423.10,277.85 422.01,279.97 C419.87,284.17 415.27,287.99 412.35,288.01 C411.33,288.02 408.98,289.58 407.13,291.49 C404.98,293.70 402.45,295.17 400.13,295.54 C398.13,295.86 395.47,296.55 394.20,297.06 C390.41,298.61 381.42,298.22 379.95,296.43 Z" fill="#e8ad5e"/>
</g>
</svg>