<?xml version="1.0" encoding="UTF-8"?>
<svg id="Layer_1" xmlns="http://www.w3.org/2000/svg" width="1024" height="1024" viewBox="0 0 1024 1024" version="1.1">
  <!-- Generator: Adobe Illustrator 30.2.0, SVG Export Plug-In . SVG Version: 2.1.1 Build 105)  -->
  <defs>
    <style>
      .st0 {
        fill: #fff;
      }
    </style>
  </defs>
  <g id="Icon" transform="translate(512, 512) scale(1.6) translate(-512, -512)">
    <g id="sc-logo-background">
      <path class="st0" d="M400.6,734c-2.4,0-4.7-.3-7.1-1l-.8-.2.4-.7c.6-1,1.1-2,1.7-3,.3-.5.5-1,.8-1.5,4.5-5.9,10.5-10.8,17.7-14.6,8.5-4.4,16.4-7,24.3-7.8h.6c2.6-.2,5.3-.4,8,1.8l.3.3-.3.9c-.5,1.3-1,2.8-1.9,3.9-1.5,1.8-2.9,3.7-4.8,5.2-9.7,8.4-20.4,13.7-31.9,16-2.5.4-4.8.7-7,.7h0ZM394.6,732c4.2,1,7.9,1,12.8,0,11.3-2.2,21.9-7.5,31.4-15.7,1.8-1.4,3.2-3.2,4.6-5,.7-1,1.2-2.3,1.7-3.6v-.1c-2.2-1.6-4.5-1.4-6.8-1.3h-.5c-7.8.8-15.6,3.3-23.9,7.7-7.2,3.8-12.8,8.4-17.3,14.2-.2.4-.5.9-.8,1.4-.4.9-.8,1.7-1.2,2.4h0ZM578.4,707.6c.4,3.4,2.5,5.6,4.7,7.6,9.7,9,20.9,15.3,34,17.6,4.3.7,8.6,1.1,13.7-.4-2.3-2.9-4-5.6-6.1-7.7-6.7-7.2-15.1-11.9-24.3-15.3-5.2-1.8-10.4-3.2-16-3.4-2.1-.1-4.4-.2-6,1.6h0Z"/>
      <path class="st0" d="M623.6,734c-2.3,0-4.6-.3-6.7-.6-12.6-2.2-23.8-8.1-34.3-17.8-2.3-2.2-4.5-4.4-4.9-7.9v-.3l.2-.2c1.7-1.8,4-1.8,5.9-1.8h.5c6,.2,11.6,1.9,16.2,3.5,10.5,3.9,18.5,9,24.5,15.5,1.3,1.3,2.5,2.9,3.7,4.6.8,1,1.6,2.1,2.4,3.2l.6.7-.9.2c-2.5.6-4.9.9-7.2.9h0ZM579,707.8c.4,3,2.3,5,4.5,6.9,10.3,9.6,21.4,15.3,33.7,17.5,4.3.7,8.2,1,12.6-.1-.7-.9-1.3-1.7-1.9-2.6-1.2-1.6-2.3-3.1-3.6-4.4-5.9-6.4-13.8-11.3-24.1-15.2-4.5-1.6-10-3.2-15.8-3.4h-.5c-1.8,0-3.6,0-4.9,1.3ZM602.3,698.9c.9,3.1,1.3,4.1,4.5,6.3,4.5,3.1,9.2,5.8,14.2,8.1,8.3,3.8,17.1,5.6,26.3,5.2,3.1-.2,6.1-.5,9.5-2-2-2.2-3.4-4.1-5.4-5.6-12.2-10.4-26.6-14.4-42.3-14.2-2.3-.1-5,.1-6.8,2.2Z"/>
      <path class="st0" d="M645.1,719.2c-8.4,0-16.5-1.8-24.2-5.3-4.9-2.3-9.6-5-14.3-8.2-3.3-2.2-3.8-3.3-4.7-6.6l-.1-.3.2-.2c2.1-2.5,5.2-2.5,7.3-2.4,17.1-.2,31.1,4.5,42.6,14.4,1.5,1.1,2.7,2.4,3.9,3.9.5.6,1,1.1,1.5,1.7l.6.6-.8.3c-3.3,1.4-6.3,1.8-9.7,2-.8.1-1.6.1-2.3.1ZM603,699.1c.8,2.7,1.2,3.7,4.2,5.7,4.6,3.2,9.3,5.8,14.1,8.1,8.3,3.8,17,5.5,26,5.2,3-.2,5.7-.5,8.6-1.6-.3-.4-.7-.8-1-1.1-1.3-1.5-2.4-2.7-3.8-3.8-11.4-9.7-25-14.3-42-14.1-2-.3-4.4-.2-6.1,1.6h0ZM367.2,716.8c1.8.5,3.1.9,4.3,1.1,17.8,2.5,33.3-3.1,47.2-13.9.7-.5,1.4-1.4,2-2.3,1.6-2.3,1.3-3.6-1.6-4.5-.5-.2-1.3-.4-1.8-.4-4,0-8.1-.2-12.1.2-11,1.3-21.1,4.9-29.9,11.3-3.1,2.5-5.8,5-8.1,8.5h0Z"/>
      <path class="st0" d="M380,719c-2.8,0-5.7-.2-8.6-.6-1.3-.2-2.7-.6-4.4-1.1l-.8-.2.5-.7c2.5-3.7,5.4-6.3,8.2-8.6,8.6-6.3,18.7-10.2,30.2-11.5,3-.3,6.1-.2,9.2-.2h3c.7,0,1.6.3,2,.4,1.6.5,2.6,1.2,2.9,2.1.4,1.2-.4,2.4-1,3.3-.6,1-1.4,1.9-2.1,2.5-12.6,9.8-25.5,14.6-39.1,14.6h0ZM368.1,716.4c1.3.4,2.4.7,3.5.8,16.6,2.3,31.9-2.2,46.7-13.7.6-.5,1.3-1.3,1.8-2.2.7-1.1,1-1.8.8-2.3s-.9-1-2.1-1.3c-.6-.2-1.2-.3-1.6-.3h-3c-3,0-6.1-.1-9,.2-11.2,1.3-21.2,5.1-29.6,11.2-2.5,2-5.2,4.4-7.5,7.6h0ZM679.4,697.5c-2.5-2-4.7-3.8-7-5.2-11.2-6.8-23.4-8.8-36.2-8.1-2.7.2-5.6.5-8.3,1.3-1.8.4-3.8.9-4.5,2.9,6.3,11.6,41.6,17.7,56,9.1Z"/>
      <path class="st0" d="M660.5,702.1c-6.7,0-13.7-1-19.4-2.6-9.2-2.5-15.9-6.5-18.3-11l-.1-.2.1-.2c.8-2.3,3-2.9,4.9-3.3,2.4-.6,5.1-1.1,8.4-1.3,14.3-.8,26.2,1.9,36.5,8.2,2,1.2,3.8,2.7,5.8,4.2l1.9,1.5-.7.4c-4.9,3.2-11.8,4.3-19.1,4.3h0ZM624,688.3c2.3,4.1,8.7,7.7,17.4,10.1,11.3,3.1,27.5,4.1,36.9-1l-.6-.5c-1.9-1.5-3.8-3-5.7-4.2-10.1-6.2-21.8-8.8-35.8-8-3.1.2-5.8.6-8.2,1.2-1.6.4-3.3.9-4,2.4h0ZM400.8,687.9c-1.4-1.8-3.4-2.5-5.4-2.9-6.3-1.4-12.8-1.4-19.3-.7-9,.9-17.5,3.4-25,8.3-2.2,1.4-4.3,2.9-6.1,5.6,2.2.9,4,1.6,5.9,2.2,6.1,1.8,12.2,2,18.5,1.3,8.6-.9,16.9-3.2,24.7-7.4,2.6-1.5,5.5-2.9,6.7-6.4h0Z"/>
      <path class="st0" d="M362.9,702.6c-4.3,0-8.3-.6-12.1-1.7-2.1-.6-3.9-1.3-6-2.2l-.7-.3.4-.6c1.9-2.8,4.1-4.3,6.3-5.7,7.3-4.7,15.5-7.4,25.3-8.4,7.4-.8,13.7-.6,19.5.7,1.6.3,4,.9,5.7,3.1l.2.3-.1.3c-1.3,3.4-4,5-6.4,6.3l-.5.3c-7.5,4-15.9,6.5-24.9,7.5-2.4.3-4.6.4-6.7.4h0ZM345.9,697.9c1.8.7,3.4,1.4,5.2,1.9,5.6,1.6,11.4,2,18.3,1.2,8.9-.9,17.1-3.4,24.5-7.3l.5-.3c2.3-1.3,4.6-2.6,5.8-5.4-1.1-1.2-2.7-2-4.8-2.4-5.6-1.3-11.9-1.5-19.1-.7-9.6,1-17.7,3.6-24.8,8.2-2,1.3-3.9,2.6-5.6,4.8ZM643.7,674.6c1.4,2.5,3.6,3.8,5.8,4.5,5,1.4,10.3,3.1,15.5,3.8,9.5,1.4,19.1.9,28.1-2.7,2.3-.9,4.3-2.2,7.2-3.6-2.3-1.4-3.8-2.5-5.4-3.4-6.3-3.4-13-4.9-20-5.4-8.3-.7-16.6,0-24.5,2.5-2.5.7-5,1.6-6.7,4.3h0Z"/>
      <path class="st0" d="M674.5,684.2c-3.1,0-6.3-.2-9.6-.7-4.6-.6-9.2-2-13.7-3.3l-1.9-.5c-2.8-.9-4.8-2.5-6.1-4.8l-.2-.3.2-.3c1.7-2.9,4.4-3.8,7-4.6,7.7-2.4,16-3.3,24.7-2.5,8.1.6,14.5,2.4,20.2,5.5.9.5,1.8,1.1,2.8,1.7.8.5,1.6,1.1,2.6,1.7l.9.6-.9.5c-1,.5-1.9,1-2.8,1.4-1.6.8-2.9,1.6-4.5,2.2-5.7,2.3-12,3.4-18.7,3.4h0ZM644.4,674.6c1.2,1.9,2.9,3.1,5.3,3.9l1.9.5c4.4,1.3,9,2.6,13.5,3.2,10.2,1.5,19.5.6,27.8-2.7,1.5-.6,2.8-1.3,4.4-2.1.6-.3,1.2-.6,1.9-1-.7-.4-1.2-.8-1.8-1.2-1-.6-1.8-1.2-2.7-1.7-5.6-3-11.9-4.7-19.7-5.3-8.6-.7-16.7.1-24.3,2.5-2.5.8-4.8,1.6-6.3,3.9h0ZM324,676.8c2.9,1.4,5,2.7,7.4,3.6,9,3.6,18.4,4,27.7,2.7,5.4-.7,10.6-2.5,15.8-4,2.3-.7,4.3-2,5.6-4.5-2-2.9-5-3.8-8.1-4.7-10.6-2.9-21.2-3.2-32-.7-5.8,1.1-11.2,3.3-16.4,7.6h0Z"/>
      <path class="st0" d="M349.7,684.3c-6.8,0-12.9-1.1-18.6-3.4-1.7-.6-3.2-1.4-5-2.4-.8-.4-1.5-.8-2.4-1.2l-.8-.4.7-.6c4.9-4,10.2-6.5,16.7-7.7,10.7-2.5,21.3-2.3,32.3.7,3.1.9,6.3,1.9,8.4,4.9l.2.3-.2.3c-1.2,2.4-3.1,3.9-5.9,4.8-1.3.4-2.5.7-3.8,1.1-3.9,1.2-8,2.3-12.2,2.9-3.2.5-6.3.7-9.4.7h0ZM325,676.7c.6.3,1.1.6,1.6.8,1.8.9,3.3,1.7,4.9,2.3,8,3.2,17,4.1,27.4,2.7,4.1-.5,8.1-1.7,12-2.9,1.3-.4,2.5-.7,3.8-1.1,2.4-.7,4-2,5.1-3.9-1.9-2.5-4.6-3.3-7.6-4.2-10.8-2.9-21.2-3.2-31.8-.7-5.9,1.2-10.8,3.4-15.4,7h0ZM663,659.5c2,.9,3.4,2.2,5.2,2.5,3.2.9,6.5,1.6,9.7,1.8,11.5,1.1,22.9-.4,33.3-5.8,2.5-1.3,4.9-3.1,8.1-5.2-3.2-1.3-5.4-2.5-7.7-3.2-9.7-3.1-19.6-2.7-29.3-.4-4.5,1.1-9,2.7-13.3,4.5-2.6,1.1-4.7,2.4-6,5.8h0Z"/>
      <path class="st0" d="M684.8,664.7c-2.3,0-4.6-.1-7-.3-2.8-.2-5.9-.7-9.8-1.8-1.2-.2-2.2-.8-3.3-1.5-.6-.4-1.3-.8-2-1.1l-.5-.2.2-.5c1.4-3.7,3.8-5.1,6.3-6.1,5-2.1,9.4-3.6,13.4-4.5,10.9-2.6,20.6-2.5,29.7.4,1.3.4,2.6,1,4,1.6,1.1.5,2.3,1.1,3.7,1.6l1.1.4-.9.6c-.9.6-1.7,1.2-2.5,1.7-2,1.4-3.8,2.6-5.6,3.5-8,4.2-16.9,6.2-26.8,6.2h0ZM663.7,659.2c.6.3,1.1.6,1.6.9,1,.6,2,1.1,3,1.3,3.9,1.1,6.9,1.6,9.6,1.8,12.4,1.2,23.5-.8,33-5.7,1.8-.9,3.5-2.1,5.5-3.5.5-.4,1.1-.7,1.6-1.1-1-.4-1.9-.8-2.8-1.2-1.4-.6-2.6-1.2-3.9-1.6-8.9-2.8-18.4-2.9-29-.4-4,1-8.3,2.4-13.2,4.5-2.1,1-4.1,2.1-5.4,5h0ZM305.6,653c3.4,3.6,7.6,5.8,11.9,7.2,11.9,4.3,23.9,5,36.4,2.3,1.6-.4,3.2-.9,4.7-1.6,2.9-1.4,3.1-2.9.5-4.9-1.3-1.1-2.7-2-4.1-2.7-11.7-5.2-23.9-7.2-36.7-5.2-4.6,1.1-8.7,2.2-12.7,4.9h0Z"/>
      <path class="st0" d="M339.4,664.7c-7.5,0-14.8-1.3-22.1-4-5-1.7-9-4.1-12.1-7.3l-.5-.5.6-.4c3.9-2.7,8-3.8,12.8-4.9,12.5-1.9,25-.2,37.1,5.3,1.6.8,3.1,1.8,4.3,2.8,1.4,1.1,2.1,2.1,2,3.1s-.9,1.9-2.6,2.7c-1.4.7-3.1,1.3-4.8,1.7-5.1,1-9.9,1.5-14.7,1.5h0ZM306.5,653.1c2.9,2.9,6.5,5,11.2,6.5,11.8,4.3,23.6,5,36.1,2.3,1.6-.4,3.2-.9,4.5-1.6,1.3-.6,1.9-1.2,2-1.8.1-.5-.5-1.3-1.5-2.1-1.2-1-2.5-1.9-4-2.6-11.9-5.3-24.2-7.1-36.4-5.2-4.5,1.2-8.3,2.2-11.9,4.5h0ZM290.8,627.8c2.2,2,3.8,3.8,5.6,5,12.6,9.2,26.8,11.9,42,10.6,2.2-.2,4.5-.5,5.9-2.7-5-11.8-38-20.1-53.5-12.9h0Z"/>
      <path class="st0" d="M331.5,644.3c-13.6,0-25.3-3.6-35.4-11-1.2-.9-2.4-2-3.7-3.2-.6-.6-1.2-1.2-1.9-1.8l-.6-.6.8-.4c10.2-4.8,27.3-2.7,38.9,1.7,8,3.1,13.5,7.2,15.3,11.5l.1.3-.2.3c-1.6,2.4-4.1,2.8-6.4,3s-4.6.2-6.9.2h0ZM291.9,628c.5.4.9.9,1.3,1.3,1.3,1.2,2.4,2.3,3.6,3.1,11.6,8.4,25.2,11.9,41.6,10.5,2-.2,4-.5,5.3-2.2-1.8-3.9-7-7.7-14.5-10.6-11.2-4.2-27.3-6.3-37.3-2.1ZM733.4,627.4c-2.2-.7-3.2-1.1-4.5-1.4-5.6-1.4-11.3-1.6-16.9-.9-9.5,1.3-18.4,4.3-26.3,9.4-1.8,1.1-3.4,2.7-4.9,4.1-1.4,1.6-1.1,2.9.9,3.6,2.2.7,4.7,1.4,7,1.4,5,0,10.3-.2,15.1-.9,9.7-1.6,18.9-5.2,26.5-11.9.8-.8,1.7-1.9,3.1-3.4h0Z"/>
      <path class="st0" d="M688.7,644.2c-2.5,0-5.2-.8-7.2-1.5-1.2-.4-1.9-1.1-2.1-1.9-.2-.8.1-1.7,1-2.7,1.5-1.5,3.1-3.1,5-4.3,7.8-5,16.7-8.2,26.5-9.4,6-.8,11.8-.5,17.1.9,1.3.4,2.4.7,4.5,1.4l.9.3-.6.7c-1.4,1.4-2.3,2.4-3,3.4-7.1,6.3-16.1,10.3-26.8,12.1-4.2.7-9,1-15.3,1h0ZM718.3,625.3c-2,0-4.1.1-6.2.4-9.6,1.3-18.4,4.4-26,9.3-1.8,1.1-3.3,2.7-4.8,4.1-.4.4-.8,1.1-.7,1.6s.8.9,1.4,1.1c2,.7,4.5,1.4,6.8,1.4,6.1,0,10.9-.3,15-.9,10.5-1.8,19.3-5.7,26.2-11.7.6-.7,1.3-1.6,2.4-2.7-1.6-.5-2.5-.8-3.6-1.1-3.4-1.1-6.9-1.5-10.5-1.5h0ZM330.1,620.8c-.7-3.4-3.1-5.4-5.4-7.4-9.2-7.4-19.6-12.2-31.3-13.7-4.5-.5-9-.7-13.9.9,1.8,3.1,3.8,5.4,6.1,7.6,10.8,9.2,23.4,13.7,37.3,14.6,2.3,0,4.8,0,7.2-2h0Z"/>
      <path class="st0" d="M322.9,623.4c-14.6-.9-27.3-5.9-37.7-14.7-2.6-2.4-4.5-4.8-6.2-7.7l-.4-.6.7-.2c5.1-1.7,9.8-1.4,14.1-.9,11.3,1.4,22,6,31.6,13.8,2.4,2,4.8,4.1,5.6,7.7l.1.3-.3.2c-2.4,2.1-5.1,2.1-7.5,2.1h0ZM280.4,601c1.6,2.5,3.4,4.7,5.6,6.8,10.2,8.6,22.6,13.5,36.9,14.4,2.2,0,4.4,0,6.5-1.6-.8-3-2.9-4.8-5.1-6.7-9.5-7.6-19.9-12.2-31-13.5-4-.6-8.3-.8-12.9.6ZM744.6,601.2c-.2-.4-.4-.7-.4-1.1-2-.2-4-.7-5.9-.7-15.3-.4-28.3,5.4-39.8,14.9-1.4,1.3-2.7,2.7-3.6,4.3-1.1,1.8-.5,2.9,1.4,3.4,1.6.4,3.6.7,5.2.5,13.9-.9,26.3-5.2,36.9-14.6,2.2-1.7,4.2-4.4,6.2-6.7h0Z"/>
      <path class="st0" d="M700.6,623.2c-1.5,0-3.1-.3-4.4-.6-1.3-.3-2-.9-2.3-1.6-.3-.7-.1-1.6.5-2.7.9-1.6,2.1-3.1,3.7-4.5,12.7-10.5,25.8-15.4,40.2-15.1,1.2,0,2.5.2,3.6.4.8.1,1.6.3,2.3.3h.5v.5c0,.2.2.5.3.8l.2.3-.3.3c-.5.6-1,1.2-1.4,1.7-1.5,1.9-3.1,3.8-4.8,5.2-10.1,8.9-22.3,13.7-37.2,14.7-.2.3-.6.3-.9.3h0ZM736.9,599.9c-13.6,0-26,4.9-38.1,14.8-1.5,1.3-2.7,2.7-3.5,4.2-.4.7-.6,1.3-.4,1.6.2.4.7.7,1.5.9,1.5.3,3.4.7,5,.5,14.7-1,26.6-5.7,36.6-14.4,1.6-1.3,3.1-3.2,4.6-5l1.2-1.5c-.1-.1-.1-.3-.2-.5-.7-.1-1.3-.2-2-.3-1.2-.2-2.3-.4-3.5-.4-.3.1-.7.1-1.2.1h0ZM271.2,571.4c1.4,4.1,4,7.2,6.7,10.1,8.3,8.8,18.5,14,30.1,16.9,2,.5,4,.7,5.9.7,1.3,0,2.5-.5,3.8-.7-.4-3.6-.9-4.7-3.4-7.4-8.5-9.2-18.5-15.8-30.8-18.9-3.8-.8-7.8-1.4-12.3-.7h0Z"/>
      <path class="st0" d="M313.9,599.8c-2.3,0-4.3-.2-6.1-.7-12.6-3.1-22.5-8.7-30.3-17.1-3.1-3.3-5.4-6.3-6.8-10.3l-.2-.7.7-.1c5-.8,9.3,0,12.5.7,11.6,2.9,22.1,9.3,31.1,19.1,2.6,2.8,3.2,4.1,3.6,7.7l.1.6-.6.1c-.5.1-.9.2-1.4.3-1,.2-1.8.4-2.6.4h0ZM272,571.9c1.4,3.5,3.5,6.2,6.3,9.2,7.7,8.2,17.4,13.7,29.8,16.8,1.7.5,3.6.7,5.8.7.7,0,1.4-.2,2.1-.4.3-.1.7-.2,1-.2-.3-3-.9-4-3.2-6.5-9-9.7-18.9-15.8-30.5-18.7-2.9-.8-6.8-1.5-11.3-.9h0ZM705.5,598.1c3.4,2,6.5,1.4,9.2.9,8.1-1.6,15.5-5,22.3-9.5,5.8-3.8,10.8-8.5,14.4-14.6.5-1.1,1.1-2.2,1.6-3.6-1.8-.2-2.9-.2-4-.2-1.4,0-3.1.2-4.5.4-14.2,2.3-25.6,9.5-34.9,20.2-1.8,1.7-2.7,3.9-4.1,6.4h0Z"/>
      <path class="st0" d="M710.7,600.1c-1.7,0-3.6-.3-5.5-1.5l-.5-.3.3-.5c.3-.6.7-1.2,1-1.7,1-1.8,1.8-3.4,3.3-4.9,10.1-11.4,21.6-18.1,35.2-20.3,1.5-.2,3.1-.4,4.6-.4,1.1,0,2.2,0,4,.2l.8.1-.3.7c-.5,1.5-1.1,2.6-1.6,3.7-3.4,5.7-8.1,10.6-14.6,14.8-7.5,5-14.9,8.1-22.5,9.6-1.3.2-2.7.5-4.2.5h0ZM706.3,597.9c3.1,1.6,6,1,8.3.6,7.5-1.5,14.7-4.6,22.1-9.5,6.3-4.1,11-8.8,14.2-14.4.4-.9.9-1.7,1.3-2.8-1.3-.1-2.2-.1-3.1-.1-1.4,0-3,.2-4.4.4-13.3,2.2-24.7,8.7-34.6,20-1.3,1.3-2.2,2.9-3.1,4.6-.2.3-.5.7-.7,1.2ZM266.9,542.5c.7,4.1,2.2,6.8,4,9.5,7.4,11.3,18,18.7,30.6,23.4,1.8.7,3.8.7,5.6.9,1.6,0,2.3-.9,2-2.5-.5-1.6-1.1-3.4-2-4.9-7.9-11.9-18.4-20.7-32-24.8-2.6-.9-5.1-1.1-8.2-1.6h0Z"/>
      <path class="st0" d="M307,576.9c-.4,0-.8-.1-1.2-.1-1.5-.1-3.1-.2-4.6-.8-13.8-5.1-23.9-12.8-30.9-23.6-1.9-2.9-3.3-5.6-4-9.8l-.1-.8.8.1c.8.1,1.7.3,2.4.4,2,.3,3.9.6,5.8,1.3,13,3.9,23.9,12.4,32.3,25.1.8,1.4,1.4,2.9,1.9,4.5l.2.5c.2,1.1.1,1.8-.4,2.4-.3.3-.9.8-2.2.8h0ZM267.6,543.2c.7,3.5,2,6,3.7,8.5,6.9,10.6,16.8,18.2,30.3,23.2,1.4.5,2.8.7,4.3.8.4,0,.8.1,1.2.1s.9-.1,1.2-.4c.3-.4.2-1,.1-1.4l-.2-.5c-.5-1.5-1-3-1.7-4.2-8.3-12.5-19-20.7-31.7-24.6-1.8-.6-3.5-.9-5.6-1.2-.5-.1-1-.2-1.6-.3h0ZM757.3,542.8c-2.2.2-3.8.2-5.4.5-11.3,2.3-20.5,8.6-28.3,17.1-2.9,3.1-5.2,6.7-7.6,10.1-1.1,1.4-1.8,3.4-.9,5.4,3.1,1.3,5.8,0,8.5-.9,8.8-3.2,16.6-8.3,23-15.1,3.6-3.8,6.8-7.9,8.8-12.8.9-1.2,1.2-2.5,1.9-4.3Z"/>
      <path class="st0" d="M717.9,577.1c-.9,0-1.9-.2-2.9-.6l-.2-.1-.1-.2c-1.2-2.6.1-4.9,1-6l.8-1.2c2.1-3,4.2-6.2,6.8-8.9,8.6-9.4,18-15.1,28.6-17.3,1.2-.3,2.4-.3,3.7-.4.5,0,1.1-.1,1.7-.1l.9-.1-.4.9-.6,1.5c-.4,1.1-.7,2-1.3,2.9-1.7,4.2-4.5,8.3-8.9,12.9-6.5,6.8-14.3,12-23.3,15.3-.3.1-.7.2-1,.3-1.4.5-3,1.1-4.8,1.1h0ZM715.7,575.5c2.4.9,4.6.1,6.9-.7.3-.1.7-.2,1-.3,8.8-3.2,16.5-8.3,22.8-15,4.3-4.5,7-8.5,8.7-12.6.5-.9.8-1.7,1.2-2.8.1-.2.2-.4.2-.7-.3,0-.6,0-.8.1-1.3.1-2.5.2-3.6.4-10.3,2.1-19.5,7.7-28,16.9-2.5,2.7-4.6,5.8-6.7,8.8l-.8,1.2c-.7,1-1.7,2.8-.9,4.7h0ZM266.4,514.2c-.2,1.3-.4,1.6-.2,2,.4,1.4.5,2.7,1.1,4,5.4,14.6,15.8,24.5,29.3,31.5.9.5,2,.7,2.9.9,1.1.2,2.2,0,3.2,0,.5-3.1.5-4.3-1.1-7.6-5.8-11.5-13.9-20.9-25.4-27.2-3-1.4-6.4-2.3-9.8-3.6h0Z"/>
      <path class="st0" d="M300.6,553.2c-.4,0-.8,0-1.2-.1h-.2c-.9-.2-1.9-.4-2.8-.9-14.8-7.7-24.5-18.1-29.6-31.8-.4-.9-.6-1.9-.8-2.9-.1-.4-.2-.7-.3-1.1-.2-.4-.1-.8,0-1.3,0-.2.1-.5.2-.9l.1-.7.7.3,3.6,1.2c2.2.7,4.3,1.4,6.4,2.4,11.1,6,19.4,15,25.7,27.5,1.7,3.4,1.7,4.8,1.1,7.9l-.1.5h-1.5c-.6-.1-1-.1-1.3-.1h0ZM266.8,515v.3c-.1.3-.1.6-.1.7v.1l.3,1.2c.2.9.4,1.8.8,2.7,5,13.4,14.5,23.6,29.1,31.2.8.5,1.7.6,2.5.8h.2c.6.1,1.3.1,2,0h.6c.4-2.7.3-3.8-1.1-6.7-6.1-12.2-14.3-21-25.1-26.9-1.9-.9-4-1.6-6.2-2.3-1-.4-2-.8-3-1.1h0ZM757.9,514.6c-1.4.4-2.3.4-3.2.7-16,5.6-26.3,17.1-32.9,32.4-.5,1.4-.4,3.1-.5,4.7,3.6.5,4.5.5,7.7-1.1,11.5-6.1,20.7-14.8,26.5-26.6,1.1-3.1,2.6-6.2,2.4-10.1h0Z"/>
      <path class="st0" d="M724.3,553.3c-.9,0-1.9-.1-3.2-.3l-.6-.1.1-.6c.1-.5.1-1,.1-1.6,0-1.1.1-2.2.5-3.3,7.3-16.8,18.2-27.5,33.3-32.8.5-.2,1.1-.3,1.7-.4.4-.1.9-.2,1.5-.3l.7-.2v.7c.2,3.8-1.1,6.7-2.2,9.6l-.3.8c-5.5,11.4-14.5,20.4-26.7,26.9-2.2,1.2-3.4,1.6-4.9,1.6h0ZM721.8,551.9c3.1.4,4,.3,6.8-1.1,12-6.4,20.8-15.2,26.2-26.4l.3-.7c1.1-2.6,2.2-5.2,2.2-8.4-.3.1-.6.1-.9.2-.6.1-1.1.2-1.5.4-14.8,5.2-25.5,15.7-32.6,32.1-.3.8-.4,1.8-.4,2.9-.1.2-.1.6-.1,1ZM299.7,527.2c-.2-2.2,0-4.3-.5-6.3-.7-2.7-1.6-5.4-2.9-7.9-4.9-10.3-11.5-19.1-21.4-25-2-1.1-4-2-6.3-3.1,0,2-.2,3.4,0,4.7,3.1,15.7,12.1,27.4,25,36.4,1.4,1,3,2.1,6.1,1.2h0Z"/>
      <path class="st0" d="M297.5,528.1c-1.8,0-3.1-.8-4.3-1.7-14.1-9.8-22.3-21.8-25.3-36.7-.1-.9-.1-1.8-.1-2.9v-2.8l1.3.6c2.1,1,4,1.8,5.8,2.8,9.1,5.5,16.2,13.7,21.7,25.3,1.1,2.2,2.1,4.9,2.9,8,.4,1.4.4,2.9.5,4.3,0,.7,0,1.4.1,2.1v.5l-.5.1c-.6.3-1.4.4-2.1.4ZM269.1,485.8v1.1c0,1-.1,1.9,0,2.6,2.9,14.6,11,26.4,24.8,36,1.5,1.1,2.8,1.9,5.2,1.3,0-.6-.1-1.1-.1-1.7,0-1.4-.1-2.8-.4-4-.8-3.1-1.7-5.6-2.8-7.8-5.4-11.3-12.3-19.4-21.2-24.8-1.8-1-3.5-1.8-5.5-2.7ZM725.7,527.9c1.4-.5,3.2-.9,4.5-1.8,13.1-8.6,22-20.2,25.4-35.6.4-1.6.2-3.4.4-5.8-2.3,1.1-4,1.6-5.6,2.3-4.9,2.5-9,6.1-12.6,10.3-6.3,7.4-11,15.5-13.1,25-.5,2-.7,3.6,1,5.6h0Z"/>
      <path class="st0" d="M725.5,528.6l-.3-.3c-1.7-2.1-1.6-3.9-1.2-6.1,2-8.9,6.4-17.2,13.3-25.3,4-4.6,8.2-8,12.8-10.4l2.1-.9c1-.4,2.1-.8,3.5-1.5l.9-.4-.1,1c-.1.9-.1,1.7-.1,2.5,0,1.2,0,2.3-.3,3.4-3.3,15.1-11.7,26.9-25.6,36-.9.7-2.1,1.1-3.3,1.4-.5.1-.9.3-1.3.4l-.4.2h0ZM755.3,485.6c-1,.4-1.9.8-2.6,1.1-.7.3-1.4.6-2.1.8-4.4,2.3-8.5,5.6-12.4,10.1-6.8,7.9-11,16-13,24.8-.3,1.8-.5,3.1.7,4.8.3-.1.6-.2,1-.3,1.1-.3,2.2-.7,3-1.3,13.7-9,21.9-20.5,25.2-35.3.2-.9.2-1.9.2-3.1-.1-.5-.1-1,0-1.6h0ZM273.4,456.4c-.2,2.2-.5,3.8-.4,5.4,1.3,15.1,8.1,27.4,18.9,37.6,1.4,1.4,3.6,2.2,5.6,3.4,2.2-3.1,1.8-6.1,1.3-8.8-2.2-11.5-7-21.8-15.1-30.2-2.9-3.1-6-5.6-10.3-7.4Z"/>
      <path class="st0" d="M297.7,503.6l-.5-.3c-.7-.4-1.4-.8-2.2-1.2-1.3-.7-2.5-1.3-3.5-2.3-11.6-11-17.9-23.5-19.1-38-.1-1.2,0-2.3.2-3.6.1-.6.1-1.2.2-1.9l.1-.8.7.3c3.9,1.6,7,3.9,10.5,7.5,7.9,8.2,13,18.5,15.3,30.5.6,2.8,1,6-1.4,9.3l-.3.5h0ZM273.9,457.3c0,.4-.1.7-.1,1.1-.1,1.3-.3,2.3-.2,3.4,1.2,14.2,7.3,26.4,18.7,37.3.9.9,2,1.5,3.2,2.1.6.3,1.2.6,1.8,1,1.7-2.7,1.3-5.5.9-7.9-2.2-11.8-7.3-21.9-15-30-3.1-3.4-5.9-5.5-9.3-7ZM750.5,456.2c-2.2,1.4-4.1,2.3-5.8,3.8-11.5,9.5-17.3,22.3-19.6,36.9-.4,1.8-.2,3.8,1.3,5.2,12.2-2.3,27-29.9,24.1-45.9Z"/>
      <path class="st0" d="M726.2,502.8l-.2-.2c-1.8-1.8-1.8-4.1-1.4-5.8,2.6-16.2,9.1-28.3,19.8-37.2,1.1-.9,2.3-1.7,3.5-2.4.7-.4,1.5-.9,2.3-1.4l.7-.5.2.9c2.9,16.3-11.8,44.1-24.6,46.6h-.3ZM750.1,457.2l-1.5.9c-1.2.7-2.4,1.4-3.4,2.3-10.5,8.7-16.9,20.7-19.4,36.6-.3,1.3-.3,3.1.9,4.5,11.7-2.7,25.5-28.8,23.4-44.3ZM299.1,473.5c.5-1.8,1.3-3.2,1.3-4.9.4-15.5-4.3-29.3-15.3-40.5-1.1-1.1-2.3-2-3.8-3.1-.4,1.1-.7,1.6-.9,2.3-1.1,4.9-.9,9.5,0,14.4,1.8,9.9,5.8,18.9,12.1,26.8,1.4,2.3,3,4.3,6.6,5h0Z"/>
      <path class="st0" d="M299.5,474.2l-.5-.1c-3.9-.8-5.6-2.9-7-5.1-6.2-7.8-10.3-16.9-12.2-27-1-5.4-1-10.1,0-14.6.1-.4.3-.8.4-1.2.1-.3.3-.7.5-1.2l.3-.8,1.2.9c1.3.9,2.3,1.7,3.3,2.7,10.7,10.8,15.9,24.6,15.5,40.9,0,1.3-.4,2.4-.8,3.6-.2.5-.3.9-.5,1.4l-.2.5h0ZM281.6,426c-.1.2-.2.4-.2.6-.2.4-.3.7-.4,1-1,4.4-1,8.9,0,14.2,1.8,9.9,5.8,18.9,11.9,26.6,1.3,2,2.7,3.8,5.8,4.5l.3-.9c.4-1.2.8-2.2.8-3.2.4-16-4.7-29.5-15.1-40.1-.9-1-1.9-1.8-3.1-2.7h0ZM742.9,425.1c-1.4,1.1-2.5,1.8-3.4,2.7-11.3,11-15.7,24.8-15.8,40.3,0,1.8.4,3.8,2,5.4,2.9-.4,4.5-2.5,6.1-4.5,6.5-8.3,10.6-17.6,12.1-27.9.7-5.2.8-10.4-1-16h0Z"/>
      <path class="st0" d="M725.4,474.1l-.2-.2c-1.9-1.9-2.2-4.2-2.2-5.8.2-17.2,5.4-30.5,16-40.8.7-.7,1.5-1.3,2.5-2,.3-.2.6-.5,1-.7l.7-.5.3.8c2,6.1,1.6,11.6.9,16.3-1.4,10.2-5.5,19.7-12.2,28.2l-.3.3c-1.5,1.9-3.3,4-6.3,4.4h-.2ZM742.6,426c-.1.1-.2.1-.3.2-1,.7-1.7,1.3-2.4,1.9-10.4,10-15.5,23.1-15.7,39.9,0,2,.5,3.6,1.6,4.8,2.3-.4,3.7-2.1,5.2-3.9l.2-.3c6.5-8.3,10.5-17.6,11.9-27.6.8-4.3,1.1-9.4-.5-15ZM304.3,447.4c2.2-1.6,2.5-3.8,2.9-6.1.9-5,.5-10.1,0-15.1-1.1-8.6-3.8-16.9-9-23.9-1.3-1.6-2.7-2.9-4.1-4.7-.5,1.4-.9,2.2-1.3,3.1-1.8,5.4-2,11-1.6,16.6.7,8.8,3.2,17.1,7.7,24.8,1.1,2.1,2.6,4.4,5.4,5.3h0Z"/>
      <path class="st0" d="M304.5,448l-.3-.1c-3-.9-4.6-3.3-5.8-5.7-4.4-7.6-7.1-16.1-7.8-25.1-.4-6.9.1-12,1.6-16.8.1-.4.3-.7.4-1,.2-.6.5-1.2.8-2.1l.4-1,.6.8c.7.9,1.4,1.6,2.1,2.3.7.8,1.4,1.5,2.1,2.3,4.9,6.5,7.9,14.7,9.1,24.2.5,4.6.9,10,0,15.3-.4,2.3-.7,4.7-3.1,6.5l-.1.4h0ZM294.3,398.7c-.2.5-.3.8-.5,1.2-.1.3-.3.6-.4,1-1.5,4.6-2,9.6-1.6,16.3.7,8.8,3.3,17.1,7.7,24.6,1.1,2.1,2.4,4.2,4.8,5,1.8-1.5,2.1-3.5,2.4-5.6.9-5.2.5-10.4,0-15-1.2-9.3-4.2-17.3-8.9-23.7-.6-.8-1.3-1.5-2-2.2-.5-.5-1-1.1-1.5-1.6h0ZM730,397.9c-1.3,1.3-2.5,2.5-3.6,4-4.9,6.3-7.6,13.7-9,21.6-1.1,6.5-1.4,13.1-.2,19.6.4,1.8.7,3.4,2.5,4.3,11.2-5.6,17.7-37.3,10.3-49.5Z"/>
      <path class="st0" d="M719.7,448.1l-.3-.1c-2.1-1-2.5-3-2.8-4.7-1.1-5.8-1.1-12.3.2-19.8,1.6-8.9,4.6-16,9.1-21.9,1.1-1.5,2.4-2.8,3.6-4l.5-.5.4.6c4.7,7.8,3.6,22.4.7,32.6-2.6,9-6.7,15.5-11.2,17.7l-.2.1h0ZM729.8,398.8c-1,1.1-2.1,2.2-3,3.4-4.4,5.7-7.3,12.7-8.9,21.4-1.2,7.4-1.3,13.7-.2,19.4.4,1.8.7,3,1.9,3.8,4.1-2.2,7.8-8.3,10.3-16.9,3.6-11.9,3.5-24.4-.1-31.1h0ZM312.8,423.3c2.9-1.8,3.6-4,4.1-6.1,2.2-8.3,2.5-16.6,1.3-24.8-.9-6.1-2.9-11.9-6.3-16.9-.5-.7-1.3-1.4-2.2-2.3-.9,2-1.8,3.2-2.3,4.9-5,14.2-3.6,27.9,2.3,41.4.6,1.1,2,2.3,3.1,3.8Z"/>
      <path class="st0" d="M312.7,424.1l-.3-.4-1.2-1.5c-.8-.9-1.5-1.7-1.9-2.6-6.4-14.6-7.2-28.2-2.4-41.8.3-1,.8-1.9,1.3-2.8.3-.6.7-1.3,1.1-2.1l.4-.8.6.6c.9.9,1.7,1.7,2.2,2.4,3.3,4.9,5.4,10.6,6.4,17.2,1.3,8.5.9,16.9-1.3,25.1-.6,2.2-1.4,4.6-4.4,6.5l-.5.2h0ZM309.9,374c-.3.5-.5,1-.7,1.4-.5.9-.9,1.7-1.2,2.6-4.7,13.3-4,26.7,2.3,41,.3.7,1,1.5,1.7,2.3.3.4.6.7,1,1.1,2.3-1.6,2.9-3.4,3.4-5.5,2.1-8,2.5-16.3,1.2-24.6-.9-6.4-3-12-6.2-16.7-.4-.4-.9-.9-1.5-1.6h0ZM710.7,422.9c2.2-.7,3.2-2.5,4-4.3,5.4-13,6.8-26.1,2.5-39.8-.7-2-1.8-3.8-3.1-6.3-1.4,2-2.5,3.2-3.2,4.7-7,13.5-7.6,27.4-3.4,41.8.7,1.4,1.4,3.2,3.2,3.9h0Z"/>
      <path class="st0" d="M710.7,423.5l-.2-.1c-1.8-.7-2.7-2.4-3.3-3.8l-.2-.4c-4.5-15.5-3.3-29.3,3.4-42.3.5-1.1,1.3-2.1,2.2-3.3.3-.4.7-.9,1.1-1.4l.6-.8.4.9c.4.8.7,1.5,1.1,2.1.8,1.5,1.5,2.8,2,4.3,4.1,13.1,3.3,26.2-2.5,40.2-.6,1.6-1.8,3.8-4.3,4.7l-.3-.1h0ZM714,373.6c-.2.2-.4.5-.5.7-.9,1.2-1.6,2.1-2.1,3.1-6.6,12.7-7.7,26.2-3.4,41.3l.2.3c.6,1.3,1.2,2.5,2.5,3.2,1.9-.7,2.8-2.5,3.4-3.9,5.7-13.7,6.5-26.6,2.5-39.4-.5-1.3-1.2-2.6-1.9-4.1-.2-.3-.4-.7-.7-1.2ZM672.9,325.9c-.7,2.2-1.4,3.8-1.8,5.6-2.9,14.4.5,27.5,7.9,39.8.9,1.4,2.5,2.7,4,4,2.3-2.5,2.7-3.2,3.2-6.3,1.4-10.4-.2-20.5-4.3-30.2-2-4.8-4.7-9-9-12.9h0Z"/>
      <path class="st0" d="M683,376l-1.1-1c-1.3-1.1-2.6-2.2-3.4-3.5-8.1-13.4-10.7-26.6-8-40.2.3-1.3.7-2.4,1.2-3.8.2-.6.4-1.2.7-1.9l.3-.9.7.6c4.1,3.7,7,7.9,9.1,13,4.3,10.1,5.8,20.4,4.4,30.6-.6,3.2-1,4-3.4,6.6l-.5.5h0ZM673.2,326.9c-.1.4-.3.7-.4,1-.5,1.3-.9,2.4-1.1,3.6-2.7,13.3-.1,26.2,7.8,39.4.7,1.1,1.9,2.2,3.1,3.2l.3.2c1.9-2.1,2.2-2.8,2.7-5.6,1.4-9.9-.1-20-4.3-29.9-1.9-4.6-4.5-8.4-8.1-11.9h0ZM341.3,375.2c1.4-1.4,3.1-2.7,4-4.1,7.4-12.2,10.6-25.6,7.7-39.8-.4-1.6-1.1-3.2-2-5.6-2,2.3-3.8,4.1-5,6.1-7.4,11.2-9.4,23.8-8.1,36.9.3,2.2.7,4.5,3.4,6.5Z"/>
      <path class="st0" d="M341.3,376l-.4-.3c-2.9-2.1-3.3-4.6-3.6-6.8v-.1c-1.4-14.6,1.3-26.8,8.2-37.3.9-1.4,2-2.7,3.4-4.2.5-.6,1.1-1.3,1.7-2l.6-.8.4.9.6,1.5c.6,1.6,1.1,2.9,1.4,4.2,2.7,13.5.1,27.1-7.8,40.2-.7,1.1-1.7,2-2.8,3.1-.4.4-.8.8-1.3,1.2l-.4.4h0ZM350.8,326.8c-.4.4-.7.8-1.1,1.2-1.3,1.5-2.4,2.7-3.3,4.1-6.8,10.2-9.4,22.2-8,36.5.3,2,.7,4,2.8,5.8l.9-.9c1-1,2-1.8,2.6-2.8,7.8-12.9,10.3-26.1,7.7-39.4-.3-1.2-.8-2.4-1.4-4-.1-.1-.1-.3-.2-.5h0ZM695.1,348.4c-1.1,2.2-2,3.6-2.5,5.4-4.7,13.9-3.4,27.2,2.3,40.5.7,1.6,1.8,3.4,4,4.1,2.5-1.6,3.2-4.3,3.8-7,2-7.9,2.2-16.2.7-24.1-1.3-6.9-3.3-13.2-8.3-18.9Z"/>
      <path class="st0" d="M698.9,399.1l-.3-.1c-2.4-.8-3.6-2.8-4.3-4.5-6.1-14.1-6.9-27.5-2.4-40.9.4-1.4,1-2.5,1.7-3.9.3-.5.5-1,.8-1.6l.4-.8.6.7c5.4,6.2,7.3,12.9,8.4,19.2,1.5,8.1,1.2,16.6-.7,24.4-.6,2.8-1.3,5.6-4,7.4l-.2.1h0ZM695.2,349.4c-.1.3-.3.5-.4.8-.7,1.4-1.3,2.4-1.7,3.7-4.4,13.1-3.7,26.3,2.3,40.1.6,1.4,1.5,3,3.3,3.7,2.1-1.5,2.8-3.9,3.3-6.5,1.9-7.7,2.2-15.9.7-23.9-1-5.8-2.7-12.1-7.5-17.9h0ZM325.4,398.2c10.1-7,12.1-38.5,3.1-49.7-1.3,2-2.5,3.6-3.4,5.4-6.1,12.6-6.5,25.7-3.1,39.1.5,2.2,1.2,4.2,3.4,5.2Z"/>
      <path class="st0" d="M325.5,398.9l-.3-.2c-2.5-1.2-3.2-3.5-3.7-5.6-3.7-14.6-2.7-27.5,3.1-39.5.6-1.2,1.4-2.4,2.2-3.6.4-.6.8-1.2,1.2-1.9l.4-.7.5.6c5.7,7.1,6.7,21.4,5.2,31.8-1.3,9.1-4.4,15.9-8.4,18.8l-.2.3h0ZM328.5,349.6c-.3.4-.5.8-.8,1.2-.8,1.2-1.5,2.3-2.1,3.4-5.7,11.7-6.7,24.4-3,38.7.5,2.2,1.2,3.7,2.8,4.7,3.7-2.8,6.4-9.2,7.6-17.7,1.7-12-.1-24.2-4.5-30.3h0ZM376.2,308.6c-1.3.9-2.2,1.6-3.1,2.3-11,10.6-15.1,23.9-15.3,38.9,0,1.8.2,3.8,2,5,11.3-4.3,21.4-32.5,16.4-46.2h0Z"/>
      <path class="st0" d="M359.7,355.5l-.3-.2c-2-1.4-2.2-3.5-2.2-5.5.2-16.6,5.3-29.4,15.5-39.3.9-.7,1.9-1.5,3.1-2.4l.6-.4.3.7c5.2,14-5,42.6-16.7,47l-.3.1h0ZM375.9,309.5c-.9.7-1.7,1.3-2.4,1.9-9.9,9.6-14.9,22.2-15.1,38.4,0,1.5.1,3.2,1.5,4.4,10.7-4.5,20.2-31.3,16-44.7h0ZM647.7,308.9c-1.6,5.4-1.8,8.5-.7,15.7,1.6,9.7,5.6,18.4,11.7,26.1,1.4,1.8,3.1,3.8,5.6,4.1,6.8-9.3-4.2-39.6-16.6-45.9h0Z"/>
      <path class="st0" d="M664.5,355.5h-.3c-2.8-.4-4.5-2.6-6-4.4-6.2-7.9-10.2-16.8-11.8-26.4-1.1-7.2-.9-10.3.7-15.9l.2-.7.6.3c8.1,4.1,15.1,17.5,17.8,28.6,2,8.2,1.6,14.6-1,18.2l-.2.3ZM648.1,309.8c-1.4,5-1.5,8-.5,14.7,1.6,9.4,5.5,18.1,11.6,25.8,1.3,1.6,2.7,3.4,4.9,3.9,2.2-3.3,2.4-9.4.6-16.9-2.6-10.3-9.2-23.2-16.6-27.5ZM593.1,495.5c-30.2-4.7-50.4-11-60.5-31.7-10.1-20.9-14-51.9-15.8-75.1s-4.7-83.2-4.7-83.2c0,0-3.1,59.8-4.7,83-1.8,23.2-5.8,54.2-15.8,75.1s-30.2,27-60.5,31.7-97.9,7.9-97.9,7.9c112.7,7.2,150.2,4.1,165.1,58.2,12.1,43.4,13.7,129.8,13.9,162v12.6-12.6c.2-32.4,1.8-118.7,13.9-162,14.9-53.8,52.4-51,165.1-58.2-.1.2-67.6-3-98.1-7.7h0Z"/>
      <path class="st0" d="M512.7,736h-1.2v-12.6c-.2-34.4-1.9-119-13.8-161.9-13.5-48.7-44.3-50.6-135.8-56-9-.5-18.6-1.1-28.8-1.8v-1.2c.7,0,68-3.3,97.9-7.9,31.5-4.9,50.4-11.3,60.1-31.4,7.9-16.3,13.2-41.5,15.8-74.9,1.6-23,4.7-82.4,4.7-83h1.2c0,.6,2.9,60.2,4.7,83.2,2.6,33.3,7.9,58.5,15.8,74.9,9.8,20.1,28.6,26.5,60.1,31.4,29.8,4.6,94.1,7.7,97.7,7.7h.1l1.8-.1-1.3,1.1s-.2.1-.3.1v.1c-9.9.6-19.3,1.2-28,1.7-92,5.5-123,7.3-136.5,56-11.9,42.9-13.7,127.5-13.8,161.9v12.7h-.4ZM343.4,503.3c6.4.4,12.6.8,18.6,1.1,45.8,2.7,76,4.5,97.2,11.8,21.4,7.4,32.9,20.4,39.7,45,8.9,32.1,12.2,87.4,13.3,127.7,1.1-40.3,4.4-95.6,13.3-127.7,6.8-24.6,18.4-37.6,39.9-45,21.3-7.3,51.7-9.1,97.7-11.9,5.2-.3,10.5-.6,16.1-1-21.8-1.1-66.7-4.3-86-7.3-31.8-4.9-50.9-11.5-60.9-32-8-16.5-13.3-41.8-15.9-75.3-1.3-16.8-3.2-53-4.1-71.6-1,18.6-2.9,54.7-4.1,71.4-2.6,33.5-7.9,58.8-15.9,75.3-9.9,20.5-29.1,27.1-60.9,32-23.1,3.6-67.9,6.4-88,7.5Z"/>
      <path class="st0" d="M705.1,428.1c-5.2-12.2-11.7-23.9-19.3-34.9-7.6-10.8-16-21.1-25.6-30.4-9.5-9.4-19.8-17.8-31-25-2.3-1.6-4.7-3.1-7.2-4.5,55.3,36.4,91.8,99.4,91.8,171v4c0,52-20.3,99.2-53.7,134.7-36.9,40.2-89.5,65.4-148,65.4s-111.1-25.2-148-65.4c-33.5-35.5-53.8-82.8-53.8-134.7v-4c0-71.7,36.6-134.7,91.8-171-2.5,1.4-4.9,3.1-7.2,4.5-11.2,7.4-21.4,15.8-31,25-9.5,9.4-18,19.6-25.6,30.4-7.6,11-14,22.7-19.3,34.9-11,25.4-16.4,52.2-16.4,80.1s5.6,54.7,16.4,80.1c5.2,12.2,11.7,23.9,19.3,34.9,7.6,10.8,16,21.1,25.6,30.4,9.5,9.4,19.8,17.8,31,25,11.2,7.4,23.2,13.9,35.6,18.9,25.7,10.8,53.3,16.2,81.6,16.2s55.6-5.4,81.6-16.2c12.4-5.2,24.3-11.5,35.6-18.9,11.2-7.4,21.4-15.8,31-25,9.5-9.4,18-19.6,25.6-30.4,7.6-11,14-22.7,19.3-34.9,11-25.4,16.4-52.2,16.4-80.1s-5.7-54.7-16.5-80.1h0Z"/>
      <path class="st0" d="M512.3,714.5c-28.6,0-56.1-5.5-81.8-16.2-12.2-4.9-24.2-11.3-35.7-19-10.6-6.8-21.1-15.3-31.1-25.1-9.1-8.9-17.7-19.2-25.6-30.5-7.6-11.1-14.1-22.9-19.3-35-10.9-25.6-16.4-52.7-16.4-80.4s5.5-55.2,16.4-80.4c5.2-12.1,11.7-23.9,19.3-35,7.9-11.4,16.6-21.6,25.6-30.5,10.1-9.7,20.5-18.1,31.1-25.1.9-.6,1.8-1.1,2.7-1.7,1.5-.9,3-1.9,4.6-2.8l.6,1c-57.3,37.7-91.6,101.5-91.6,170.6v4c0,49.9,19.1,97.6,53.7,134.3,38.6,42,91,65.2,147.6,65.2s108.9-23.1,147.6-65.2c34.5-36.7,53.5-84.4,53.5-134.3v-4c0-69.1-34.2-132.8-91.6-170.6l.6-1c2.8,1.6,5.1,3,7.2,4.5,10.6,6.8,21,15.3,31,25.1,9.1,8.9,17.7,19.2,25.6,30.5,7.6,11.1,14.1,22.9,19.3,35,11,25.9,16.6,52.9,16.6,80.4s-5.5,55.2-16.4,80.4c-5.2,12.1-11.7,23.9-19.3,35-7.9,11.4-16.6,21.6-25.6,30.5-10.1,9.7-20.5,18.1-31.1,25.1-11.3,7.4-23.3,13.7-35.7,19-25.9,10.7-53.4,16.2-81.8,16.2ZM378.3,350.9c-4.7,3.8-9.3,7.9-13.8,12.3-9,8.8-17.6,19-25.5,30.3-7.6,11-14.1,22.7-19.2,34.8-10.8,25.1-16.3,51.9-16.3,79.9s5.5,54.4,16.3,79.9c5.2,12.1,11.6,23.8,19.2,34.8,7.9,11.3,16.5,21.5,25.5,30.3,9.9,9.8,20.3,18.1,30.9,25,11.5,7.6,23.5,13.9,35.6,18.9,25.6,10.7,52.9,16.2,81.3,16.2s55.6-5.4,81.3-16.2c12.3-5.2,24.3-11.5,35.6-18.9,10.5-6.9,20.9-15.3,30.9-25,9-8.8,17.6-19.1,25.5-30.3,7.6-11,14.1-22.7,19.2-34.8,10.8-25.1,16.3-51.9,16.3-79.9s-5.6-54.1-16.5-79.9c-5.1-12.1-11.6-23.8-19.2-34.8-7.9-11.3-16.5-21.5-25.5-30.3-5.2-5.1-10.4-9.8-15.8-14.1,44.5,38.6,70.5,94.9,70.5,155.2v4c0,50.2-19.1,98.1-53.8,135.1-18.8,20.5-41,36.6-66.1,47.9-26,11.7-53.7,17.7-82.3,17.7s-56.4-5.9-82.3-17.7c-25-11.3-47.3-27.4-66.1-47.9-34.8-36.9-54-84.8-54-135.1v-4c-.1-59.4,25-114.9,68.3-153.4h0Z"/>
      <path class="st0" d="M512.1,318.5c102.8,0,186,83.4,186,186s-83.4,186-186,186-186-83.4-186-186,83.4-186,186-186M512.1,314.7c-25.6,0-50.4,5-73.8,14.9-22.7,9.5-42.9,23.2-60.3,40.7-17.5,17.5-31.1,37.8-40.7,60.3-9.9,23.4-14.9,48.3-14.9,73.8s5,50.4,14.9,73.8c9.5,22.7,23.2,42.9,40.7,60.3,17.5,17.5,37.8,31.1,60.3,40.7,23.4,9.9,48.3,14.9,73.8,14.9s50.4-5,73.8-14.9c22.7-9.5,42.9-23.2,60.3-40.7,17.5-17.5,31.1-37.8,40.7-60.3,9.9-23.4,14.9-48.3,14.9-73.8s-5-50.4-14.9-73.8c-9.5-22.7-23.2-42.9-40.7-60.3s-37.8-31.1-60.3-40.7c-23.2-10-48-14.9-73.8-14.9h0Z"/>
      <path class="st0" d="M512.1,694.8c-25.6,0-50.5-5-74-15-22.7-9.6-43-23.3-60.5-40.8-17.6-17.6-31.3-38-40.8-60.5-9.9-23.5-15-48.4-15-74s5-50.5,15-74c9.6-22.7,23.3-43,40.8-60.5s38-31.3,60.5-40.8c23.5-9.9,48.4-15,74-15s51.1,5,74.1,15c22.7,9.6,43,23.3,60.5,40.8,17.6,17.6,31.3,38,40.8,60.5,9.9,23.5,15,48.4,15,74s-5,50.5-15,74c-9.6,22.7-23.3,43-40.8,60.5s-38,31.3-60.5,40.8c-23.5,10-48.5,15-74.1,15ZM512.1,315.3c-25.5,0-50.2,5-73.6,14.9-22.4,9.4-42.6,23.1-60.1,40.6s-31,37.6-40.6,60.1c-9.9,23.4-14.9,48.1-14.9,73.6s5,50.2,14.9,73.6c9.4,22.4,23.1,42.6,40.6,60.1,17.4,17.4,37.6,31,60.1,40.6,23.4,9.9,48.1,14.9,73.6,14.9s50.2-5,73.6-14.9c22.4-9.4,42.6-23.1,60.1-40.6s31-37.6,40.6-60.1c9.9-23.4,14.9-48.1,14.9-73.6s-5-50.2-14.9-73.6c-9.4-22.4-23.1-42.6-40.6-60.1-17.4-17.4-37.6-31-60.1-40.6-22.8-9.9-47.5-14.9-73.6-14.9h0ZM512.1,691.1c-102.9,0-186.6-83.7-186.6-186.6s83.7-186.6,186.6-186.6,186.6,83.7,186.6,186.6-83.7,186.6-186.6,186.6ZM512.1,319.1c-102.2,0-185.4,83.2-185.4,185.4s83.2,185.4,185.4,185.4,185.4-83.2,185.4-185.4-83.1-185.4-185.4-185.4Z"/>
      <path class="st0" d="M512.1,336.5c92.7,0,168,75.3,168,168s-75.3,168-168,168-168-75.3-168-168,75.3-168,168-168M512.1,330.7c-23.4,0-46.3,4.7-67.7,13.7-20.7,8.8-39.3,21.2-55.3,37.3-16,16-28.4,34.6-37.3,55.3-9,21.4-13.7,44.1-13.7,67.7s4.7,46.3,13.7,67.7c8.8,20.7,21.2,39.3,37.3,55.3,16,16,34.6,28.4,55.3,37.3,21.4,9,44.1,13.7,67.7,13.7s46.3-4.7,67.7-13.7c20.7-8.8,39.3-21.2,55.3-37.3s28.4-34.6,37.3-55.3c9-21.4,13.7-44.1,13.7-67.7s-4.7-46.3-13.7-67.7c-8.8-20.7-21.2-39.3-37.3-55.3-16-16-34.6-28.4-55.3-37.3-21.4-9.2-44.1-13.7-67.7-13.7Z"/>
      <path class="st0" d="M512.1,679.2c-23.4,0-46.2-4.6-67.9-13.7-20.9-8.9-39.5-21.5-55.5-37.4-15.9-15.9-28.5-34.6-37.4-55.5-9.1-21.7-13.7-44.5-13.7-67.9s4.6-46.2,13.7-67.9c8.9-20.9,21.5-39.5,37.4-55.5,15.9-15.9,34.6-28.5,55.5-37.4,21.7-9.1,44.5-13.7,67.9-13.7s46.7,4.6,67.9,13.7c20.9,8.9,39.5,21.5,55.5,37.4s28.5,34.6,37.4,55.5c9.1,21.7,13.7,44.5,13.7,67.9s-4.6,46.2-13.7,67.9c-8.9,20.9-21.5,39.5-37.4,55.5-15.9,15.9-34.6,28.5-55.5,37.4-21.6,9-44.5,13.7-67.9,13.7ZM512.1,331.3c-23.2,0-45.9,4.6-67.5,13.6-20.7,8.8-39.3,21.3-55.1,37.1s-28.3,34.3-37.1,55.1c-9,21.5-13.6,44.2-13.6,67.5s4.6,45.9,13.6,67.5c8.8,20.7,21.3,39.3,37.1,55.1,15.8,15.8,34.3,28.3,55.1,37.1,21.5,9,44.2,13.6,67.5,13.6s45.9-4.6,67.5-13.6c20.7-8.8,39.3-21.3,55.1-37.1s28.3-34.3,37.1-55.1c9-21.5,13.6-44.2,13.6-67.5s-4.6-45.9-13.6-67.5c-8.8-20.7-21.3-39.3-37.1-55.1-15.8-15.8-34.3-28.3-55.1-37.1-21.1-9-43.8-13.6-67.5-13.6ZM512.1,673c-93,0-168.6-75.6-168.6-168.6s75.6-168.6,168.6-168.6,168.6,75.6,168.6,168.6-75.6,168.6-168.6,168.6ZM512.1,337.1c-92.3,0-167.4,75.1-167.4,167.4s75.1,167.4,167.4,167.4,167.4-75.1,167.4-167.4-75.1-167.4-167.4-167.4h0Z"/>
      <path class="st0" d="M512.1,389.6c63.6,0,114.9,51.5,114.9,114.9s-51.5,114.9-114.9,114.9-114.9-51.5-114.9-114.9,51.5-114.9,114.9-114.9M512.1,378.1c-17.1,0-33.7,3.4-49.2,9.9-15.1,6.3-28.6,15.5-40.2,27-11.5,11.5-20.7,25.2-27,40.2-6.7,15.7-9.9,32.2-9.9,49.2s3.4,33.7,9.9,49.2c6.3,15.1,15.5,28.6,27,40.2,11.5,11.5,25.2,20.7,40.2,27,15.7,6.7,32.2,9.9,49.2,9.9s33.7-3.4,49.2-9.9c15.1-6.3,28.6-15.5,40.2-27,11.5-11.5,20.7-25.2,27-40.2,6.7-15.7,9.9-32.2,9.9-49.2s-3.4-33.7-9.9-49.2c-6.3-15.1-15.5-28.6-27-40.2-11.5-11.5-25.2-20.7-40.2-27-15.5-6.7-32.1-9.9-49.2-9.9h0Z"/>
      <path class="st0" d="M512.1,631.1c-17.2,0-33.9-3.3-49.4-9.9-15.2-6.4-28.7-15.5-40.3-27.1s-20.9-25.3-27.1-40.3c-6.6-15.8-9.9-32.4-9.9-49.4s3.3-33.9,9.9-49.4c6.4-15.1,15.5-28.7,27.1-40.3,11.7-11.7,25.3-20.9,40.3-27.1,15.8-6.6,32.4-9.9,49.4-9.9s34,3.3,49.4,10c15.1,6.4,28.7,15.5,40.3,27.1,11.7,11.7,20.9,25.3,27.1,40.3,6.6,15.8,9.9,32.4,9.9,49.4s-3.3,33.9-9.9,49.4c-6.4,15.1-15.5,28.7-27.1,40.3s-25.3,20.9-40.3,27.1c-15.8,6.4-32.4,9.8-49.4,9.8ZM512.1,378.7c-16.8,0-33.3,3.3-48.9,9.9-14.9,6.2-28.3,15.2-40,26.9-11.5,11.5-20.6,25-26.9,40-6.5,15.4-9.9,31.8-9.9,48.9s3.3,33.3,9.9,48.9c6.2,14.9,15.2,28.3,26.9,40,11.5,11.5,25,20.6,40,26.9,15.4,6.5,31.8,9.9,48.9,9.9s33.3-3.3,48.9-9.9c14.9-6.2,28.3-15.2,40-26.9s20.6-25,26.9-40c6.5-15.4,9.9-31.8,9.9-48.9s-3.3-33.3-9.9-48.9c-6.2-14.9-15.2-28.3-26.9-40s-25-20.6-40-26.9c-15.2-6.6-31.6-9.9-48.9-9.9h0ZM512.1,619.9c-63.7,0-115.5-51.8-115.5-115.5s51.8-115.5,115.5-115.5,115.5,51.8,115.5,115.5-51.8,115.5-115.5,115.5ZM512.1,390.2c-63,0-114.3,51.3-114.3,114.3s51.3,114.3,114.3,114.3,114.3-51.3,114.3-114.3-51.3-114.3-114.3-114.3ZM464.2,717.1c-2.2.5-3.6,2.9-3.1,5l.9,3.4c.5,2.2,2.9,3.6,5,3.1l44.5-11.3c.2,0,.4-.2.7-.2.2,0,.4.2.7.2l44.5,11.3c2.2.5,4.5-.7,5-3.1l.9-3.4c.5-2.2-.7-4.5-3.1-5l-23.9-6.1h-48.1l-24,6.1Z"/>
      <path class="st0" d="M558.5,729.3c-.4,0-.8,0-1.1-.1l-44.4-11.3c-.3,0-.5-.1-.6-.2h-.3c-.1,0-.2.1-.4.1l-44.4,11.3c-1.2.3-2.5.1-3.6-.6s-1.9-1.7-2.2-2.9l-.9-3.4c-.6-2.5,1-5.1,3.5-5.8l24.3-6.1h48.2l23.9,6.1c1.2.3,2.3,1,2.9,2.1.7,1.1.9,2.4.6,3.6l-.9,3.4c-.3,1.2-1,2.3-2.1,2.9-.8.7-1.6.9-2.5.9h0ZM512.3,716.5c.2,0,.3.1.5.1.1,0,.2.1.3.1h.1l44.5,11.3c.9.2,1.9.1,2.7-.4s1.4-1.3,1.6-2.2l.9-3.4c.2-.9.1-1.9-.4-2.7s-1.3-1.4-2.2-1.6l-23.9-6.1h-47.9l-24.1,6.1c-1.9.5-3.1,2.5-2.6,4.3l.9,3.4c.2.9.8,1.7,1.7,2.2.8.5,1.8.7,2.7.4l44.6-11.4s.3-.1.6-.1h0Z"/>
    </g>
    <g id="sc-logo-chevrons">
      <g id="sc-logo-chevron-pair-18">
        <path class="st0" d="M393.6,732.4c4.7,1.3,8.6,1.3,13.9.2,12.1-2.3,22.5-7.9,31.7-15.8,1.8-1.4,3.2-3.2,4.7-5,.9-1.3,1.4-2.9,2-4.3-2.7-2.2-5.4-1.8-8.1-1.6-8.6.9-16.6,3.8-24.1,7.7-6.8,3.6-12.8,8.3-17.5,14.4-.9,1.5-1.7,3-2.6,4.4h0Z"/>
        <path class="st0" d="M400.6,734.3c-2.4,0-4.7-.3-7.2-1l-1.2-.3.6-1c.6-1,1.1-1.9,1.7-3,.3-.5.5-1,.8-1.5l.1-.1c4.5-5.9,10.5-10.8,17.8-14.7,8.5-4.4,16.5-7,24.5-7.8h.6c2.5-.2,5.4-.4,8.2,1.9l.5.4-.4,1.1c-.5,1.3-1,2.8-1.9,4-1.5,1.8-3,3.7-4.9,5.2-9.7,8.4-20.5,13.8-32.1,16-2.6.5-4.9.8-7.1.8h0ZM395,731.8c4,.9,7.5.9,12.3-.1,11.3-2.2,21.8-7.4,31.3-15.6,1.8-1.4,3.2-3.2,4.6-4.9.7-.9,1.1-2.2,1.6-3.4-2.1-1.4-4.2-1.2-6.4-1.1h-.5c-7.7.8-15.5,3.3-23.8,7.6-7.1,3.7-12.7,8.4-17.1,14.1-.3.5-.5,1-.8,1.4-.4.7-.8,1.4-1.2,2ZM578.4,707.6c.4,3.4,2.5,5.6,4.7,7.6,9.7,9,20.9,15.3,34,17.6,4.3.7,8.6,1.1,13.7-.4-2.3-2.9-4-5.6-6.1-7.7-6.7-7.2-15.1-11.9-24.3-15.3-5.2-1.8-10.4-3.2-16-3.4-2.1-.1-4.4-.2-6,1.6h0Z"/>
        <path class="st0" d="M623.6,734.3c-2.4,0-4.6-.3-6.7-.6-12.7-2.3-23.9-8.1-34.5-17.9-2.4-2.2-4.6-4.5-5-8.1v-.4l.3-.3c1.8-2,4.2-1.9,6.1-1.9h.5c6.1.2,11.7,1.9,16.3,3.5,10.6,3.9,18.6,9,24.7,15.5,1.4,1.3,2.5,2.9,3.7,4.6.8,1,1.5,2.1,2.4,3.2l.9,1.1-1.3.4c-2.6.6-5,.9-7.4.9ZM579.3,707.9c.4,2.8,2.2,4.6,4.3,6.6,10.3,9.5,21.3,15.2,33.6,17.4,4.1.7,7.8,1,12,0-.6-.7-1.1-1.5-1.6-2.2-1.2-1.6-2.3-3.1-3.6-4.4-5.9-6.3-13.7-11.3-24-15.1-4.5-1.6-9.9-3.2-15.7-3.4h-.5c-1.6,0-3.3,0-4.5,1.1h0Z"/>
      </g>
      <g id="sc-logo-chevron-pair-17">
        <path class="st0" d="M602.3,698.9c.9,3.1,1.3,4.1,4.5,6.3,4.5,3.1,9.2,5.8,14.2,8.1,8.3,3.8,17.1,5.6,26.3,5.2,3.1-.2,6.1-.5,9.5-2-2-2.2-3.4-4.1-5.4-5.6-12.2-10.4-26.6-14.4-42.3-14.2-2.3-.1-5,.1-6.8,2.2Z"/>
        <path class="st0" d="M645.1,719.5c-8.4,0-16.6-1.8-24.4-5.3-5-2.3-9.6-5-14.4-8.2-3.4-2.3-3.9-3.5-4.9-6.8l-.1-.5.3-.4c2.2-2.6,5.4-2.7,7.6-2.5,17.2-.2,31.2,4.5,42.8,14.4,1.5,1.1,2.7,2.5,4,3.9.5.6,1,1.1,1.5,1.7l.9.9-1.2.5c-3.4,1.4-6.4,1.8-9.8,2.1-.8.2-1.6.2-2.3.2h0ZM603.3,699.2c.8,2.5,1.1,3.4,4,5.3,4.6,3.2,9.2,5.8,14.1,8,8.2,3.8,16.9,5.5,25.9,5.1,2.9-.2,5.4-.5,8-1.4-.2-.3-.5-.5-.7-.8-1.3-1.5-2.4-2.7-3.7-3.7-11.1-9.5-24.4-14.1-40.8-14.1h-1c-2.7-.1-4.5.3-5.8,1.6h0ZM367.2,716.8c1.8.5,3.1.9,4.3,1.1,17.8,2.5,33.3-3.1,47.2-13.9.7-.5,1.4-1.4,2-2.3,1.6-2.3,1.3-3.6-1.6-4.5-.5-.2-1.3-.4-1.8-.4-4,0-8.1-.2-12.1.2-11,1.3-21.1,4.9-29.9,11.3-3.1,2.5-5.8,5-8.1,8.5h0Z"/>
        <path class="st0" d="M380,719.3c-2.8,0-5.7-.2-8.6-.6-1.3-.2-2.7-.6-4.5-1.1l-1.2-.4.7-1c2.5-3.7,5.5-6.3,8.3-8.6,8.6-6.3,18.8-10.2,30.4-11.5,3-.3,6.2-.2,9.2-.2h3c.8,0,1.7.3,2.1.4,1.1.3,2.6,1,3.1,2.3.4,1.3-.4,2.7-1,3.6-.6,1-1.4,2-2.2,2.5-12.7,9.8-25.6,14.6-39.3,14.6ZM368.6,716.2c1.1.3,2.1.6,3,.7,16.5,2.3,31.7-2.1,46.5-13.7.6-.4,1.2-1.2,1.8-2.1.8-1.2.9-1.8.8-2-.1-.3-.5-.7-1.9-1.1-.6-.2-1.2-.3-1.5-.3h-3c-3,0-6.1-.1-9,.2-11.2,1.3-21.1,5-29.4,11.2-2.5,1.9-5,4.1-7.3,7.1h0Z"/>
      </g>
      <g id="sc-logo-chevron-pair-16">
        <path class="st0" d="M679.4,697.5c-2.5-2-4.7-3.8-7-5.2-11.2-6.8-23.4-8.8-36.2-8.1-2.7.2-5.6.5-8.3,1.3-1.8.4-3.8.9-4.5,2.9,6.3,11.6,41.6,17.7,56,9.1Z"/>
        <path class="st0" d="M660.5,702.4c-6.8,0-13.7-1-19.5-2.6-9.4-2.6-16-6.5-18.4-11.1l-.2-.4.1-.4c1-2.6,3.7-3.2,5.2-3.5,2.4-.6,5.1-1.1,8.4-1.3,14.4-.8,26.4,1.9,36.7,8.2,2,1.2,3.9,2.7,5.8,4.3l2.3,1.8-1.1.7c-4.9,3.2-12,4.3-19.3,4.3ZM624.4,688.2c2.4,3.9,8.6,7.5,17.1,9.9,11.4,3.1,27.2,3.8,36.2-.8l-.2-.2c-2-1.6-3.8-3-5.7-4.1-10-6.2-21.7-8.8-35.7-8-3.1.2-5.8.6-8.1,1.2-1.7.5-3,.9-3.6,2h0ZM400.8,687.9c-1.4-1.8-3.4-2.5-5.4-2.9-6.3-1.4-12.8-1.4-19.3-.7-9,.9-17.5,3.4-25,8.3-2.2,1.4-4.3,2.9-6.1,5.6,2.2.9,4,1.6,5.9,2.2,6.1,1.8,12.2,2,18.5,1.3,8.6-.9,16.9-3.2,24.7-7.4,2.6-1.5,5.5-2.9,6.7-6.4h0Z"/>
        <path class="st0" d="M362.9,702.9c-4.3,0-8.3-.6-12.2-1.7-2.1-.6-4-1.3-6-2.2l-1-.4.6-.9c1.9-2.8,4.2-4.4,6.4-5.8,7.3-4.7,15.6-7.5,25.4-8.4,7.4-.8,13.8-.6,19.6.7,1.7.3,4.1,1,5.9,3.2l.3.4-.2.5c-1.3,3.5-4.1,5.1-6.6,6.5l-.5.3c-7.5,4-16,6.6-25,7.5-2.3.2-4.6.3-6.7.3h0ZM346.4,697.8c1.6.7,3.2,1.2,4.8,1.7,5.5,1.6,11.3,2,18.2,1.2,8.8-.9,17-3.4,24.3-7.3l.5-.3c2.2-1.2,4.4-2.5,5.6-5.1-1.1-1.1-2.5-1.8-4.5-2.2-5.6-1.3-11.8-1.5-19-.7-9.5,1-17.6,3.6-24.6,8.1-1.9,1.4-3.7,2.6-5.3,4.6Z"/>
      </g>
      <g id="sc-logo-chevron-pair-15">
        <path class="st0" d="M643.7,674.6c1.4,2.5,3.6,3.8,5.8,4.5,5,1.4,10.3,3.1,15.5,3.8,9.5,1.4,19.1.9,28.1-2.7,2.3-.9,4.3-2.2,7.2-3.6-2.3-1.4-3.8-2.5-5.4-3.4-6.3-3.4-13-4.9-20-5.4-8.3-.7-16.6,0-24.5,2.5-2.5.7-5,1.6-6.7,4.3h0Z"/>
        <path class="st0" d="M674.5,684.5c-3.1,0-6.3-.2-9.6-.7-4.6-.6-9.3-2-13.7-3.3l-1.9-.5c-2.9-1-5-2.6-6.3-4.9l-.3-.5.3-.5c1.8-3,4.5-4,7.2-4.7,7.7-2.5,16.1-3.3,24.8-2.6,8.1.6,14.6,2.4,20.3,5.5.9.5,1.8,1.1,2.8,1.8.8.5,1.6,1.1,2.6,1.7l1.4.8-1.4.7c-1,.5-1.9,1-2.8,1.4-1.6.9-3,1.6-4.5,2.2-5.8,2.5-12.2,3.6-18.9,3.6h0ZM644.8,674.6c1.1,1.7,2.7,2.9,5,3.6l1.8.5c4.4,1.3,9,2.6,13.5,3.2,10.1,1.5,19.4.6,27.6-2.6,1.5-.6,2.8-1.3,4.3-2.1.4-.2.9-.5,1.4-.7-.5-.3-.9-.6-1.3-.9-1-.6-1.8-1.2-2.7-1.7-5.5-3-11.8-4.7-19.6-5.3-8.5-.7-16.6.1-24.1,2.5-2.3.7-4.4,1.5-5.9,3.5ZM324,676.8c2.9,1.4,5,2.7,7.4,3.6,9,3.6,18.4,4,27.7,2.7,5.4-.7,10.6-2.5,15.8-4,2.3-.7,4.3-2,5.6-4.5-2-2.9-5-3.8-8.1-4.7-10.6-2.9-21.2-3.2-32-.7-5.8,1.1-11.2,3.3-16.4,7.6h0Z"/>
        <path class="st0" d="M349.7,684.6c-6.8,0-13-1.1-18.7-3.4-1.7-.6-3.2-1.5-5-2.4-.8-.4-1.5-.8-2.4-1.2l-1.2-.6,1.1-.9c4.9-4.1,10.2-6.5,16.8-7.8,10.7-2.5,21.4-2.3,32.5.7,3.2.9,6.4,1.9,8.6,5l.3.4-.2.5c-1.2,2.5-3.2,4.1-6.1,5-1.3.4-2.5.7-3.8,1.1-4,1.2-8,2.4-12.2,2.9-3.5.5-6.6.7-9.7.7h0ZM325.6,676.6l1.2.6c1.8.9,3.3,1.7,4.9,2.3,8,3.2,16.9,4.1,27.3,2.6,4-.5,8.1-1.7,11.9-2.9,1.3-.4,2.5-.7,3.8-1.1,2.2-.7,3.7-1.8,4.8-3.6-1.8-2.3-4.5-3.1-7.3-3.9-10.8-2.9-21.1-3.2-31.6-.7-5.8,1.3-10.6,3.4-15,6.7h0Z"/>
      </g>
      <g id="sc-logo-chevron-pair-14">
        <path class="st0" d="M663,659.5c2,.9,3.4,2.2,5.2,2.5,3.2.9,6.5,1.6,9.7,1.8,11.5,1.1,22.9-.4,33.3-5.8,2.5-1.3,4.9-3.1,8.1-5.2-3.2-1.3-5.4-2.5-7.7-3.2-9.7-3.1-19.6-2.7-29.3-.4-4.5,1.1-9,2.7-13.3,4.5-2.6,1.1-4.7,2.4-6,5.8h0Z"/>
        <path class="st0" d="M684.8,665c-2.3,0-4.6-.1-7-.3-2.8-.2-5.9-.7-9.9-1.8-1.2-.2-2.3-.9-3.4-1.5-.6-.4-1.3-.7-2-1.1l-.8-.3.3-.8c1.4-3.9,4-5.2,6.4-6.3,5-2.1,9.4-3.6,13.5-4.6,10.9-2.6,20.7-2.5,29.8.4,1.4.4,2.6,1,4.1,1.7,1.1.5,2.3,1.1,3.7,1.6l1.6.6-1.4,1c-.9.6-1.7,1.2-2.5,1.7-2,1.4-3.8,2.6-5.7,3.6-7.8,4.1-16.8,6.1-26.7,6.1h0ZM664.2,659.1c.5.3.9.5,1.4.8,1,.6,1.9,1.1,2.9,1.3,3.9,1.1,6.9,1.6,9.6,1.8,12.3,1.2,23.4-.8,32.8-5.7,1.8-.9,3.5-2.1,5.5-3.4.4-.3.8-.5,1.2-.8-.8-.3-1.6-.7-2.2-1-1.4-.6-2.6-1.2-3.9-1.6-8.8-2.8-18.3-2.9-28.9-.3-4,.9-8.3,2.4-13.2,4.5-2.2.8-4,1.7-5.2,4.4h0ZM305.6,653c3.4,3.6,7.6,5.8,11.9,7.2,11.9,4.3,23.9,5,36.4,2.3,1.6-.4,3.2-.9,4.7-1.6,2.9-1.4,3.1-2.9.5-4.9-1.3-1.1-2.7-2-4.1-2.7-11.7-5.2-23.9-7.2-36.7-5.2-4.6,1.1-8.7,2.2-12.7,4.9h0Z"/>
        <path class="st0" d="M339.4,665.1c-7.5,0-14.9-1.3-22.2-4-5.1-1.7-9.1-4.1-12.2-7.4l-.7-.8.9-.6c4-2.7,8-3.8,12.9-5,12.6-2,25.1-.2,37.3,5.3,1.7.8,3.1,1.8,4.4,2.8.9.7,2.2,1.9,2.1,3.4s-1.7,2.4-2.8,3c-1.4.7-3.1,1.3-4.9,1.7-5.1,1-10,1.6-14.8,1.6h0ZM307,653.2c2.8,2.7,6.3,4.7,10.7,6.2,11.7,4.3,23.5,5,35.9,2.3,1.6-.4,3.2-.9,4.5-1.5,1.6-.8,1.8-1.3,1.8-1.5s-.1-.8-1.4-1.8c-1.1-1-2.5-1.8-4-2.6-11.9-5.3-24-7-36.2-5.1-4.2.9-7.8,1.8-11.3,4h0Z"/>
      </g>
      <g id="sc-logo-chevron-pair-13">
        <path class="st0" d="M290.8,627.8c2.2,2,3.8,3.8,5.6,5,12.6,9.2,26.8,11.9,42,10.6,2.2-.2,4.5-.5,5.9-2.7-5-11.8-38-20.1-53.5-12.9h0Z"/>
        <path class="st0" d="M331.5,644.7c-13.7,0-25.4-3.7-35.6-11.1-1.3-.9-2.4-2-3.7-3.3-.6-.6-1.2-1.2-1.9-1.8l-1-.9,1.2-.6c10.3-4.8,27.5-2.8,39.2,1.7,8.1,3.1,13.6,7.3,15.5,11.7l.2.4-.3.4c-1.7,2.5-4.3,2.9-6.6,3.1-2.4.3-4.7.4-7,.4h0ZM292.5,628.1c.3.3.6.6,1,.9,1.3,1.2,2.4,2.3,3.5,3.1,11.5,8.4,25.1,11.8,41.4,10.5,1.8-.2,3.7-.4,5-1.9-1.9-3.7-7-7.5-14.3-10.3-11-4.2-26.7-6.2-36.6-2.3ZM733.4,627.4c-2.2-.7-3.2-1.1-4.5-1.4-5.6-1.4-11.3-1.6-16.9-.9-9.5,1.3-18.4,4.3-26.3,9.4-1.8,1.1-3.4,2.7-4.9,4.1-1.4,1.6-1.1,2.9.9,3.6,2.2.7,4.7,1.4,7,1.4,5,0,10.3-.2,15.1-.9,9.7-1.6,18.9-5.2,26.5-11.9.8-.8,1.7-1.9,3.1-3.4h0Z"/>
        <path class="st0" d="M688.7,644.5c-2.5,0-5.2-.8-7.3-1.5-1.3-.5-2.1-1.2-2.3-2.1-.2-.9.1-1.9,1-2.9,1.5-1.5,3.2-3.2,5.1-4.3,7.8-5,16.8-8.2,26.6-9.5,6.1-.8,11.9-.5,17.3.9,1.3.4,2.4.7,4.5,1.4l1.4.5-1,1c-1.4,1.4-2.3,2.4-3,3.3l-.1.1c-7.1,6.2-16.1,10.3-26.9,12.1-4.2.8-9,1-15.3,1ZM718.3,625.6c-2,0-4.1.1-6.2.4-9.6,1.3-18.3,4.4-25.9,9.2-1.7,1-3.3,2.6-4.7,4-.4.5-.7,1-.6,1.3.1.3.5.6,1.2.8,1.9.6,4.5,1.4,6.7,1.4,6.1,0,10.9-.3,15-.9,10.4-1.7,19.1-5.6,25.9-11.6.6-.7,1.2-1.5,2.1-2.4-1.3-.4-2.2-.7-3.1-1-3.3-.8-6.8-1.2-10.4-1.2Z"/>
      </g>
      <g id="sc-logo-chevron-pair-12">
        <path class="st0" d="M330.1,620.8c-.7-3.4-3.1-5.4-5.4-7.4-9.2-7.4-19.6-12.2-31.3-13.7-4.5-.5-9-.7-13.9.9,1.8,3.1,3.8,5.4,6.1,7.6,10.8,9.2,23.4,13.7,37.3,14.6,2.3,0,4.8,0,7.2-2h0Z"/>
        <path class="st0" d="M322.9,623.7c-14.7-1-27.4-5.9-37.9-14.8-2.6-2.4-4.6-4.9-6.3-7.8l-.6-1,1.1-.4c5.1-1.7,9.9-1.5,14.3-.9,11.4,1.4,22.1,6.1,31.8,13.9,2.4,2.1,4.9,4.2,5.7,7.9l.1.5-.4.3c-2.6,2.3-5.4,2.3-7.8,2.3h0ZM280.9,601.1c1.5,2.4,3.2,4.4,5.4,6.4,10.1,8.6,22.5,13.4,36.7,14.3,2,0,4.2,0,6.1-1.4-.8-2.8-2.8-4.5-5-6.3-9.4-7.6-19.8-12.1-30.9-13.5-3.8-.4-7.9-.7-12.3.5h0ZM744.6,601.2c-.2-.4-.4-.7-.4-1.1-2-.2-4-.7-5.9-.7-15.3-.4-28.3,5.4-39.8,14.9-1.4,1.3-2.7,2.7-3.6,4.3-1.1,1.8-.5,2.9,1.4,3.4,1.6.4,3.6.7,5.2.5,13.9-.9,26.3-5.2,36.9-14.6,2.2-1.7,4.2-4.4,6.2-6.7h0Z"/>
        <path class="st0" d="M700.6,623.5c-1.5,0-3.2-.3-4.5-.6-1.4-.4-2.2-1-2.5-1.8s-.2-1.8.5-2.9c.9-1.6,2.2-3.1,3.8-4.5,12.7-10.6,25.9-15.5,40.4-15.2,1.2,0,2.5.2,3.7.4.8.1,1.6.3,2.3.3l.8.1v.8c0,.1.1.4.3.7l.3.5-.4.5c-.5.6-1,1.2-1.4,1.7-1.5,1.9-3.1,3.8-4.8,5.2-10.2,9-22.4,13.8-37.4,14.8h-1.1,0ZM736.9,600.2c-13.5,0-25.9,4.8-37.9,14.8-1.5,1.3-2.6,2.6-3.4,4.1-.4.6-.5,1.1-.4,1.4.1.3.6.6,1.3.7,1.3.3,3.4.7,4.9.5,14.6-1,26.5-5.6,36.4-14.4,1.6-1.3,3.1-3.2,4.6-5,.4-.4.7-.9,1.1-1.3v-.1l-1.8-.3c-1.2-.2-2.3-.4-3.4-.4h-1.4,0Z"/>
      </g>
      <g id="sc-logo-chevron-pair-11">
        <path class="st0" d="M271.2,571.4c1.4,4.1,4,7.2,6.7,10.1,8.3,8.8,18.5,14,30.1,16.9,2,.5,4,.7,5.9.7,1.3,0,2.5-.5,3.8-.7-.4-3.6-.9-4.7-3.4-7.4-8.5-9.2-18.5-15.8-30.8-18.9-3.8-.8-7.8-1.4-12.3-.7h0Z"/>
        <path class="st0" d="M313.9,600.1c-2.3,0-4.3-.2-6.2-.8-12.6-3.2-22.6-8.8-30.5-17.2-3.1-3.3-5.4-6.3-6.9-10.4l-.4-1,1.1-.2c5-.8,9.4,0,12.6.7,11.7,2.9,22.2,9.4,31.2,19.2,2.7,2.9,3.3,4.1,3.7,7.9l.1.9-.9.1c-.5.1-.9.2-1.4.3-.7.3-1.5.5-2.4.5h0ZM272.5,572.2c1.3,3.3,3.4,5.9,6.1,8.7,7.6,8.1,17.3,13.6,29.6,16.7,1.7.5,3.6.7,5.7.7.6,0,1.3-.2,2-.4.2-.1.5-.1.7-.2-.3-2.7-.9-3.7-3.1-6-8.9-9.7-18.8-15.8-30.3-18.6-2.8-.7-6.5-1.4-10.7-.9h0ZM705.5,598.1c3.4,2,6.5,1.4,9.2.9,8.1-1.6,15.5-5,22.3-9.5,5.8-3.8,10.8-8.5,14.4-14.6.5-1.1,1.1-2.2,1.6-3.6-1.8-.2-2.9-.2-4-.2-1.4,0-3.1.2-4.5.4-14.2,2.3-25.6,9.5-34.9,20.2-1.8,1.7-2.7,3.9-4.1,6.4h0Z"/>
        <path class="st0" d="M710.7,600.4c-1.7,0-3.7-.4-5.7-1.5l-.8-.4.4-.8c.3-.6.7-1.2,1-1.7,1-1.8,1.9-3.5,3.3-4.9,10.1-11.5,21.7-18.2,35.4-20.4,1.6-.2,3.2-.4,4.6-.4,1.1,0,2.2,0,4.1.2l1.2.1-.4,1.1c-.6,1.5-1.1,2.6-1.7,3.7-3.4,5.8-8.2,10.7-14.7,14.9-7.6,5-15,8.1-22.6,9.7-1.1.1-2.5.4-4.1.4h0ZM706.7,597.7c2.9,1.4,5.6.8,7.8.4,7.4-1.5,14.6-4.6,22-9.4,6.3-4.1,10.9-8.8,14.1-14.3.4-.7.7-1.5,1.1-2.4-1.1-.1-1.9-.1-2.7-.1-1.4,0-2.9.2-4.4.4-13.3,2.2-24.5,8.7-34.4,19.9-1.3,1.3-2.1,2.8-3.1,4.6,0,.3-.2.6-.4.9h0Z"/>
      </g>
      <g id="sc-logo-chevron-pair-10">
        <path class="st0" d="M266.9,542.5c.7,4.1,2.2,6.8,4,9.5,7.4,11.3,18,18.7,30.6,23.4,1.8.7,3.8.7,5.6.9,1.6,0,2.3-.9,2-2.5-.5-1.6-1.1-3.4-2-4.9-7.9-11.9-18.4-20.7-32-24.8-2.6-.9-5.1-1.1-8.2-1.6h0Z"/>
        <path class="st0" d="M307,577.2c-.5,0-.8-.1-1.2-.1-1.5-.1-3.1-.2-4.7-.9-13.8-5.1-24-12.9-31-23.8-1.9-2.9-3.4-5.7-4.1-9.9l-.2-1.3,1.3.2c.8.1,1.7.3,2.4.4,2,.3,3.9.6,5.8,1.3,13,3.9,24,12.4,32.5,25.2.9,1.4,1.4,3.1,1.9,4.5l.2.5c.3,1.4,0,2.3-.4,2.7-.4.7-1.1,1.2-2.5,1.2h0ZM268,543.6c.7,3.2,2,5.5,3.6,7.9,6.8,10.5,16.7,18.1,30.2,23.1,1.3.5,2.8.6,4.2.7.4,0,.8.1,1.2.1s.8-.1.9-.3c.2-.2.2-.6.1-1.1l-.2-.5c-.5-1.4-1-2.9-1.7-4.1-8.3-12.4-18.9-20.6-31.5-24.5-1.8-.6-3.5-.9-5.5-1.2-.5,0-.9-.1-1.3-.1h0ZM757.3,542.8c-2.2.2-3.8.2-5.4.5-11.3,2.3-20.5,8.6-28.3,17.1-2.9,3.1-5.2,6.7-7.6,10.1-1.1,1.4-1.8,3.4-.9,5.4,3.1,1.3,5.8,0,8.5-.9,8.8-3.2,16.6-8.3,23-15.1,3.6-3.8,6.8-7.9,8.8-12.8.9-1.2,1.2-2.5,1.9-4.3Z"/>
        <path class="st0" d="M717.9,577.4c-1,0-2-.2-3-.6l-.3-.1-.1-.3c-.9-2-.5-4.3,1-6.3l.8-1.2c2.1-3.1,4.2-6.2,6.8-9,8.7-9.5,18.1-15.2,28.7-17.4,1.2-.3,2.4-.3,3.8-.4.5,0,1.1-.1,1.7-.1l1.5-.1-.5,1.4-.6,1.5c-.4,1-.7,2-1.2,2.9-1.8,4.3-4.6,8.4-9,13-6.5,6.9-14.4,12-23.4,15.3-.3.1-.7.2-1,.3-1.7.5-3.4,1.1-5.2,1.1h0ZM715.9,575.2c2.2.8,4.3.1,6.5-.7.3-.1.7-.2,1-.3,8.7-3.2,16.4-8.2,22.7-14.9,4.2-4.4,7-8.4,8.6-12.5l.1-.1c.5-.8.8-1.6,1.2-2.7,0-.1.1-.1.1-.2h-.3c-1.3.1-2.4.2-3.5.4-10.3,2.1-19.4,7.6-27.8,16.8-2.5,2.7-4.6,5.8-6.6,8.8l-.8,1.2c-.9.9-1.8,2.5-1.2,4.2Z"/>
      </g>
      <g id="sc-logo-chevron-pair-9">
        <path class="st0" d="M266.4,514.2c-.2,1.3-.4,1.6-.2,2,.4,1.4.5,2.7,1.1,4,5.4,14.6,15.8,24.5,29.3,31.5.9.5,2,.7,2.9.9,1.1.2,2.2,0,3.2,0,.5-3.1.5-4.3-1.1-7.6-5.8-11.5-13.9-20.9-25.4-27.2-3-1.4-6.4-2.3-9.8-3.6h0Z"/>
        <path class="st0" d="M300.6,553.5c-.4,0-.8,0-1.2-.1h-.2c-.9-.2-2-.4-2.9-1-14.9-7.7-24.6-18.2-29.7-32-.4-.9-.6-1.9-.8-2.9-.1-.3-.2-.7-.2-1.1-.2-.5-.1-.9,0-1.5,0-.2.1-.5.2-.9l.2-1.1,1,.4,3.6,1.2c2.2.7,4.4,1.4,6.4,2.4,11.1,6.1,19.6,15.1,25.8,27.6,1.8,3.5,1.7,5,1.2,8.1l-.1.7h-1.8c-.8.2-1.2.2-1.5.2h0ZM267.1,515.4c0,.2-.1.4-.1.4v.1l.3,1.2c.2,1,.4,1.8.8,2.6,5,13.4,14.4,23.5,28.9,31.1.7.4,1.6.6,2.4.8h.2c.6.1,1.2.1,1.9,0h.4c.4-2.4.2-3.6-1.1-6.3-6.1-12.2-14.3-20.9-25-26.8-1.9-.9-4-1.6-6.1-2.3-.9-.2-1.8-.5-2.6-.8h0ZM757.9,514.6c-1.4.4-2.3.4-3.2.7-16,5.6-26.3,17.1-32.9,32.4-.5,1.4-.4,3.1-.5,4.7,3.6.5,4.5.5,7.7-1.1,11.5-6.1,20.7-14.8,26.5-26.6,1.1-3.1,2.6-6.2,2.4-10.1h0Z"/>
        <path class="st0" d="M724.3,553.6c-.9,0-1.9-.1-3.3-.3l-.9-.1.1-.9c.1-.5.1-1,.1-1.5,0-1.1.1-2.3.5-3.4,7.4-16.9,18.3-27.7,33.5-32.9.6-.2,1.1-.3,1.8-.4.4-.1.9-.2,1.5-.3l1.1-.3.1,1.1c.2,3.8-1.1,6.8-2.3,9.7l-.3.8c-5.6,11.5-14.6,20.6-26.9,27.1-2.2,1-3.4,1.4-5,1.4h0ZM722.1,551.6c2.8.4,3.6.3,6.4-1.1,11.9-6.3,20.7-15.2,26.1-26.2l.3-.7c1-2.4,2-4.9,2.1-7.9-.2,0-.4.1-.5.1-.6.1-1,.2-1.5.3-14.7,5.1-25.3,15.6-32.5,31.9-.3.8-.3,1.7-.4,2.7v.9h0Z"/>
      </g>
      <g id="sc-logo-chevron-pair-8">
        <path class="st0" d="M299.7,527.2c-.2-2.2,0-4.3-.5-6.3-.7-2.7-1.6-5.4-2.9-7.9-4.9-10.3-11.5-19.1-21.4-25-2-1.1-4-2-6.3-3.1,0,2-.2,3.4,0,4.7,3.1,15.7,12.1,27.4,25,36.4,1.4,1,3,2.1,6.1,1.2h0Z"/>
        <path class="st0" d="M297.5,528.4c-2,0-3.3-.9-4.5-1.8-14.1-9.8-22.4-21.9-25.4-36.9-.1-.9-.1-1.9-.1-2.9v-3.3l1.8.8c2.1,1,4,1.8,5.9,2.9,9.2,5.5,16.3,13.8,21.8,25.4,1.1,2.3,2.1,4.9,2.9,8.1.4,1.4.4,2.9.5,4.4,0,.7,0,1.4.1,2.1l.1.7-.7.2c-.9.2-1.7.3-2.4.3h0ZM269.4,486.2v.6c0,1-.1,1.8,0,2.6,2.8,14.5,10.9,26.2,24.6,35.8,1.3,1,2.5,1.7,4.7,1.3,0-.5,0-1-.1-1.4,0-1.4-.1-2.7-.4-3.9-.8-3.1-1.7-5.6-2.8-7.8-5.4-11.3-12.2-19.4-21.1-24.7-1.5-.9-3.1-1.6-4.9-2.5h0ZM725.7,527.9c1.4-.5,3.2-.9,4.5-1.8,13.1-8.6,22-20.2,25.4-35.6.4-1.6.2-3.4.4-5.8-2.3,1.1-4,1.6-5.6,2.3-4.9,2.5-9,6.1-12.6,10.3-6.3,7.4-11,15.5-13.1,25-.5,2-.7,3.6,1,5.6h0Z"/>
        <path class="st0" d="M725.4,528.9l-.4-.5c-1.8-2.2-1.7-4.1-1.3-6.3,2-9,6.4-17.3,13.3-25.5,4.1-4.7,8.3-8.1,12.9-10.5.7-.3,1.4-.6,2.2-.9,1-.4,2.1-.8,3.5-1.5l1.4-.6-.1,1.5c-.1.9-.1,1.7-.1,2.5,0,1.3,0,2.3-.3,3.4-3.3,15.2-11.8,27-25.8,36.2-1,.7-2.2,1.1-3.4,1.5-.4.1-.9.3-1.3.4l-.6.3h0ZM754.9,486.1c-.8.3-1.5.6-2.2.9s-1.4.5-2,.8c-4.4,2.3-8.4,5.5-12.3,10-6.7,7.9-11,16-12.9,24.6-.3,1.7-.4,2.9.5,4.3.2-.1.5-.2.7-.2,1.1-.3,2.1-.7,2.9-1.2,13.6-8.9,21.8-20.4,25-35.1.2-.9.2-1.9.2-3.1.1-.3.1-.6.1-1h0Z"/>
      </g>
      <g id="sc-logo-chevron-pair-7">
        <path class="st0" d="M273.4,456.4c-.2,2.2-.5,3.8-.4,5.4,1.3,15.1,8.1,27.4,18.9,37.6,1.4,1.4,3.6,2.2,5.6,3.4,2.2-3.1,1.8-6.1,1.3-8.8-2.2-11.5-7-21.8-15.1-30.2-2.9-3.1-6-5.6-10.3-7.4Z"/>
        <path class="st0" d="M297.7,504.1l-.7-.5-2.1-1.2c-1.3-.7-2.6-1.3-3.6-2.4-11.7-11.1-17.9-23.6-19.2-38.2-.1-1.2,0-2.4.2-3.7.1-.6.1-1.2.2-1.8l.1-1.2,1.1.5c3.9,1.6,7.1,3.9,10.6,7.6,7.9,8.3,13.1,18.6,15.4,30.7.6,3,.9,6.3-1.4,9.5l-.6.7ZM274.1,457.7c0,.2-.1.4-.1.7-.1,1.2-.3,2.3-.2,3.3,1.2,14.2,7.3,26.3,18.6,37.1.8.8,2,1.4,3.2,2,.5.3,1,.5,1.5.8,1.5-2.5,1.1-5.1.7-7.4-2.2-11.8-7.2-21.8-14.9-29.8-2.9-3.1-5.6-5.2-8.8-6.7h0ZM750.5,456.2c-2.2,1.4-4.1,2.3-5.8,3.8-11.5,9.5-17.3,22.3-19.6,36.9-.4,1.8-.2,3.8,1.3,5.2,12.2-2.3,27-29.9,24.1-45.9Z"/>
        <path class="st0" d="M726.1,503.1l-.3-.3c-1.5-1.5-2-3.6-1.5-6,2.6-16.2,9.1-28.5,19.9-37.4,1.1-1,2.3-1.7,3.6-2.4.7-.4,1.5-.9,2.2-1.4l1.1-.8.2,1.4c2.9,16.4-11.9,44.5-24.8,47l-.4-.1h0ZM749.8,457.7c-.4.2-.8.5-1.1.7-1.3.8-2.4,1.4-3.3,2.3-10.5,8.7-16.8,20.6-19.3,36.4-.2,1.2-.3,2.8.7,4.1,11.4-2.9,24.7-28.2,23-43.5h0Z"/>
      </g>
      <g id="sc-logo-chevron-pair-6">
        <path class="st0" d="M299.1,473.5c.5-1.8,1.3-3.2,1.3-4.9.4-15.5-4.3-29.3-15.3-40.5-1.1-1.1-2.3-2-3.8-3.1-.4,1.1-.7,1.6-.9,2.3-1.1,4.9-.9,9.5,0,14.4,1.8,9.9,5.8,18.9,12.1,26.8,1.4,2.3,3,4.3,6.6,5h0Z"/>
        <path class="st0" d="M299.7,474.5l-.8-.2c-4-.8-5.8-3-7.2-5.2-6.2-7.8-10.3-17-12.2-27.2-1-5.5-1-10.2,0-14.8.1-.5.3-.8.5-1.2.1-.3.3-.7.5-1.2l.4-1.2,1.5,1.2c1.3.9,2.3,1.8,3.3,2.7,10.7,10.9,15.9,24.7,15.6,41.2,0,1.3-.4,2.5-.8,3.7-.2.4-.3.9-.5,1.4l-.3.8h0ZM281.7,426.5c0,.1-.1.1-.1.2-.2.4-.3.6-.4.9-1,4.3-1,8.8,0,14,1.8,9.9,5.8,18.8,11.9,26.4,1.3,1.9,2.6,3.6,5.4,4.4.1-.2.2-.5.2-.7.4-1.1.7-2.1.7-3.1.4-15.9-4.7-29.4-15-39.9-.8-.7-1.7-1.4-2.7-2.2h0ZM742.9,425.1c-1.4,1.1-2.5,1.8-3.4,2.7-11.3,11-15.7,24.8-15.8,40.3,0,1.8.4,3.8,2,5.4,2.9-.4,4.5-2.5,6.1-4.5,6.5-8.3,10.6-17.6,12.1-27.9.7-5.2.8-10.4-1-16h0Z"/>
        <path class="st0" d="M725.3,474.5l-.3-.3c-1.5-1.5-2.2-3.5-2.2-6,.2-17.3,5.5-30.7,16.1-41,.7-.7,1.6-1.3,2.6-2.1.3-.2.6-.5,1-.7l1-.8.4,1.2c2,6.1,1.6,11.7.9,16.4-1.4,10.3-5.6,19.8-12.2,28.3l-.3.3c-1.6,1.9-3.4,4.1-6.5,4.5l-.5.2ZM742.4,426.6c-.9.7-1.7,1.2-2.3,1.9-10.3,10-15.4,23-15.6,39.7,0,1.9.5,3.3,1.4,4.4,2.1-.4,3.4-2.1,4.8-3.8l.3-.3c6.5-8.3,10.5-17.5,11.9-27.5.6-4.2,1-9.1-.5-14.4h0Z"/>
      </g>
      <g id="sc-logo-chevron-pair-5">
        <path class="st0" d="M304.3,447.4c2.2-1.6,2.5-3.8,2.9-6.1.9-5,.5-10.1,0-15.1-1.1-8.6-3.8-16.9-9-23.9-1.3-1.6-2.7-2.9-4.1-4.7-.5,1.4-.9,2.2-1.3,3.1-1.8,5.4-2,11-1.6,16.6.7,8.8,3.2,17.1,7.7,24.8,1.1,2.1,2.6,4.4,5.4,5.3h0Z"/>
        <path class="st0" d="M304.5,448.4l-.4-.1c-3.1-1-4.8-3.5-5.9-5.9-4.5-7.7-7.1-16.1-7.8-25.2-.4-6.9.1-12.1,1.7-16.9.2-.4.3-.7.4-1.1.2-.5.5-1.2.8-2l.6-1.5,1,1.2c.7.9,1.4,1.6,2.1,2.3.7.8,1.4,1.5,2.1,2.4,4.9,6.6,8,14.8,9.2,24.4.5,4.7.9,10,0,15.4-.3,2.2-.7,4.8-3.2,6.7l-.6.3h0ZM294.4,399.2c-.1.3-.2.5-.3.7-.1.3-.3.6-.4,1-1.5,4.5-2,9.5-1.6,16.2.7,8.8,3.3,17,7.6,24.5,1,2,2.2,4,4.4,4.8,1.6-1.4,1.9-3.2,2.2-5.2.9-5.1.5-10.4,0-14.9-1.2-9.3-4.1-17.2-8.8-23.5-.6-.8-1.3-1.5-2-2.2-.3-.5-.7-.9-1.1-1.4h0ZM730,397.9c-1.3,1.3-2.5,2.5-3.6,4-4.9,6.3-7.6,13.7-9,21.6-1.1,6.5-1.4,13.1-.2,19.6.4,1.8.7,3.4,2.5,4.3,11.2-5.6,17.7-37.3,10.3-49.5Z"/>
        <path class="st0" d="M719.7,448.4l-.4-.2c-2.2-1.1-2.6-3.2-3-4.9-1.1-5.9-1.1-12.4.2-20,1.6-8.9,4.6-16.1,9.2-22,1.1-1.5,2.4-2.8,3.7-4l.8-.8.6,1c4.7,7.9,3.7,22.6.7,32.9-2.6,9.1-6.8,15.6-11.3,17.9l-.5.1ZM729.8,399.4c-1,1-1.9,1.9-2.7,3-4.4,5.7-7.3,12.6-8.8,21.2-1.2,7.3-1.3,13.6-.2,19.3.3,1.7.6,2.8,1.7,3.5,4-2.3,7.6-8.3,10-16.6,3.3-11.6,3.3-23.8,0-30.4Z"/>
      </g>
      <g id="sc-logo-chevron-pair-4">
        <path class="st0" d="M312.8,423.3c2.9-1.8,3.6-4,4.1-6.1,2.2-8.3,2.5-16.6,1.3-24.8-.9-6.1-2.9-11.9-6.3-16.9-.5-.7-1.3-1.4-2.2-2.3-.9,2-1.8,3.2-2.3,4.9-5,14.2-3.6,27.9,2.3,41.4.6,1.1,2,2.3,3.1,3.8Z"/>
        <path class="st0" d="M312.6,424.5l-.5-.7-1.2-1.5c-.8-.9-1.5-1.8-1.9-2.7-6.4-14.6-7.2-28.4-2.4-42.1.3-1,.8-1.9,1.3-2.8.3-.6.7-1.3,1.1-2.1l.5-1.2.9.9c.9.9,1.7,1.7,2.2,2.4,3.3,4.9,5.5,10.7,6.5,17.3,1.3,8.5.9,17-1.3,25.2-.6,2.3-1.4,4.7-4.5,6.7l-.7.6h0ZM310,374.6c-.2.4-.4.7-.5,1-.5.9-.9,1.7-1.2,2.6-4.7,13.2-3.9,26.6,2.3,40.8.3.7.9,1.4,1.6,2.2.3.3.5.6.8.9,2-1.5,2.6-3.2,3.1-5.1,2.1-8,2.5-16.2,1.2-24.5-.9-6.3-3-11.9-6.2-16.6-.2-.4-.6-.8-1.1-1.3h0ZM710.7,422.9c2.2-.7,3.2-2.5,4-4.3,5.4-13,6.8-26.1,2.5-39.8-.7-2-1.8-3.8-3.1-6.3-1.4,2-2.5,3.2-3.2,4.7-7,13.5-7.6,27.4-3.4,41.8.7,1.4,1.4,3.2,3.2,3.9h0Z"/>
        <path class="st0" d="M710.7,423.9l-.3-.1c-1.9-.8-2.8-2.5-3.5-4l-.3-.6c-4.5-15.5-3.3-29.4,3.5-42.4.6-1.1,1.3-2.1,2.2-3.4.3-.4.7-.9,1.1-1.4l.9-1.2.7,1.3c.4.8.7,1.4,1.1,2.1.8,1.5,1.5,2.9,2,4.3,4.2,13.2,3.3,26.4-2.5,40.4-.7,1.6-1.8,3.9-4.5,4.8l-.4.2h0ZM708.3,418.6l.2.4c.6,1.2,1.2,2.4,2.3,2.9,1.3-.6,2.3-1.7,3.1-3.7,5.7-13.7,6.5-26.5,2.5-39.2-.5-1.3-1.1-2.6-1.9-4-.1-.3-.3-.5-.4-.8-.1.1-.1.2-.2.3-.9,1.2-1.6,2.1-2.1,3.1-6.7,12.6-7.8,26-3.5,41h0Z"/>
      </g>
      <g id="sc-logo-chevron-pair-3">
        <path class="st0" d="M672.9,325.9c-.7,2.2-1.4,3.8-1.8,5.6-2.9,14.4.5,27.5,7.9,39.8.9,1.4,2.5,2.7,4,4,2.3-2.5,2.7-3.2,3.2-6.3,1.4-10.4-.2-20.5-4.3-30.2-2-4.8-4.7-9-9-12.9h0Z"/>
        <path class="st0" d="M683.1,376.4l-1.4-1.2c-1.3-1.1-2.6-2.2-3.4-3.6-8.2-13.5-10.8-26.7-8-40.4.3-1.3.7-2.5,1.2-3.8.2-.6.4-1.2.7-1.9l.4-1.3,1,.9c4.1,3.8,7,7.9,9.2,13.1,4.3,10.1,5.8,20.5,4.4,30.7-.6,3.3-1,4.2-3.5,6.8l-.6.7h0ZM673.3,327.5c-.1.2-.1.4-.2.6-.5,1.3-.9,2.4-1.1,3.6-2.6,13.2-.1,26,7.8,39.2.7,1.1,1.9,2.1,3.1,3.1h.1c1.7-1.9,2-2.6,2.4-5.2,1.4-9.9-.1-19.9-4.3-29.7-1.9-4.6-4.4-8.3-7.8-11.6ZM341.3,375.2c1.4-1.4,3.1-2.7,4-4.1,7.4-12.2,10.6-25.6,7.7-39.8-.4-1.6-1.1-3.2-2-5.6-2,2.3-3.8,4.1-5,6.1-7.4,11.2-9.4,23.8-8.1,36.9.3,2.2.7,4.5,3.4,6.5Z"/>
        <path class="st0" d="M341.3,376.4l-.6-.5c-3-2.2-3.4-4.8-3.8-7v-.1c-1.4-14.7,1.3-27,8.2-37.5.9-1.4,2.1-2.7,3.4-4.3.5-.6,1.1-1.3,1.7-2l1-1.2.5,1.4.6,1.5c.6,1.6,1.2,2.9,1.4,4.2,2.8,13.6.1,27.2-7.9,40.5-.7,1.1-1.7,2.1-2.8,3.1-.4.4-.8.8-1.3,1.2l-.4.7h0ZM350.7,327.4c-.3.3-.5.6-.7.8-1.3,1.5-2.4,2.7-3.2,4-6.7,10.2-9.3,22.1-8,36.3.3,1.9.6,3.7,2.5,5.4l.7-.7c1-.9,2-1.8,2.5-2.7,7.7-12.8,10.3-26,7.6-39.1-.3-1.1-.8-2.4-1.4-4,0,.1,0,0,0,0h0Z"/>
      </g>
      <g id="sc-logo-chevron-pair-2">
        <path class="st0" d="M695.1,348.4c-1.1,2.2-2,3.6-2.5,5.4-4.7,13.9-3.4,27.2,2.3,40.5.7,1.6,1.8,3.4,4,4.1,2.5-1.6,3.2-4.3,3.8-7,2-7.9,2.2-16.2.7-24.1-1.3-6.9-3.3-13.2-8.3-18.9Z"/>
        <path class="st0" d="M699,399.4l-.4-.1c-2.5-.8-3.7-2.9-4.5-4.6-6.1-14.2-6.9-27.7-2.4-41.2.4-1.4,1-2.6,1.8-3.9.3-.5.5-1,.8-1.6l.6-1.2.9,1c5.5,6.3,7.4,13.3,8.5,19.3,1.5,8.2,1.2,16.6-.7,24.5-.6,2.8-1.4,5.8-4.2,7.6l-.4.2h0ZM695.2,350c-.1.1-.1.3-.2.4-.7,1.4-1.3,2.4-1.6,3.7-4.4,13.1-3.7,26.1,2.3,39.9.6,1.3,1.4,2.8,3,3.5,1.9-1.5,2.5-3.8,3-6.2,1.9-7.7,2.2-15.9.7-23.8-1-5.8-2.6-11.9-7.2-17.5ZM325.4,398.2c10.1-7,12.1-38.5,3.1-49.7-1.3,2-2.5,3.6-3.4,5.4-6.1,12.6-6.5,25.7-3.1,39.1.5,2.2,1.2,4.2,3.4,5.2Z"/>
        <path class="st0" d="M325.5,399.3l-.5-.3c-2.6-1.3-3.4-3.7-3.9-5.8-3.8-14.6-2.7-27.6,3.1-39.7.6-1.3,1.4-2.4,2.2-3.6.4-.6.8-1.2,1.2-1.9l.7-1.1.8,1c5.8,7.2,6.9,21.3,5.3,32-1.3,9.2-4.4,16.1-8.6,19l-.3.4h0ZM328.5,350.1c-.2.3-.4.6-.6.8-.8,1.2-1.5,2.3-2.1,3.4-5.7,11.7-6.6,24.2-3,38.4.5,2.1,1.1,3.5,2.5,4.4,3.5-2.8,6.2-9.1,7.4-17.4,1.7-11.5-.1-23.4-4.2-29.6h0Z"/>
      </g>
      <g id="sc-logo-chevron-pair-1">
        <path class="st0" d="M376.2,308.6c-1.3.9-2.2,1.6-3.1,2.3-11,10.6-15.1,23.9-15.3,38.9,0,1.8.2,3.8,2,5,11.3-4.3,21.4-32.5,16.4-46.2h0Z"/>
        <path class="st0" d="M359.7,355.9l-.4-.3c-2.1-1.5-2.4-3.6-2.4-5.8.2-16.7,5.3-29.6,15.6-39.5,1-.8,1.9-1.5,3.2-2.4l1-.7.4,1.1c5.2,14.1-5.1,42.9-16.9,47.4l-.5.2h0ZM375.7,310c-.8.6-1.4,1.1-2,1.6-9.9,9.5-14.8,22.1-15,38.2,0,1.8.2,3.1,1.2,4,10.5-4.6,19.7-30.4,15.8-43.8h0ZM647.7,308.9c-1.6,5.4-1.8,8.5-.7,15.7,1.6,9.7,5.6,18.4,11.7,26.1,1.4,1.8,3.1,3.8,5.6,4.1,6.8-9.3-4.2-39.6-16.6-45.9h0Z"/>
        <path class="st0" d="M664.7,355.8l-.5-.1c-2.9-.4-4.7-2.7-6.2-4.5-6.3-7.9-10.3-16.9-11.9-26.5-1.1-7.3-.9-10.4.7-16.1l.3-1,1,.5c8.2,4.2,15.2,17.7,17.9,28.8,2,8.3,1.6,14.8-1,18.4l-.3.5h0ZM648.2,310.3c-1.3,4.7-1.3,7.7-.4,14.2,1.6,9.3,5.4,18,11.5,25.7,1.2,1.5,2.5,3.2,4.5,3.7,2-3.3,2.2-9.2.4-16.5-2.3-10.1-8.7-22.7-16-27.1h0Z"/>
      </g>
    </g>
    <g id="sc-logo-star">
      <path class="st0" d="M593.1,495.5c-30.2-4.7-50.4-11-60.5-31.7-10.1-20.9-14-51.9-15.8-75.1s-4.7-83.2-4.7-83.2c0,0-3.1,59.8-4.7,83-1.8,23.2-5.8,54.2-15.8,75.1s-30.2,27-60.5,31.7-97.9,7.9-97.9,7.9c112.7,7.2,150.2,4.1,165.1,58.2,12.1,43.4,13.7,129.8,13.9,162v12.6-12.6c.2-32.4,1.8-118.7,13.9-162,14.9-53.8,52.4-51,165.1-58.2-.1.2-67.6-3-98.1-7.7h0Z"/>
      <path class="st0" d="M513,736h-1.8v-12.6c-.2-34.4-1.9-119-13.8-161.8-13.4-48.5-44.2-50.3-135.5-55.7-9-.5-18.6-1.1-28.8-1.8v-1.8c.7,0,68-3.3,97.9-7.9,31.4-4.9,50.2-11.3,59.8-31.2,7.9-16.3,13.2-41.5,15.8-74.8,1.6-22.9,4.6-82.4,4.7-83h1.8c0,.6,2.9,60.2,4.7,83.2,2.6,33.3,7.9,58.4,15.8,74.8,9.7,19.9,28.5,26.3,59.8,31.2,29.8,4.6,94.6,7.7,97.7,7.7h.1l2.7-.2-2,1.8c-.1.1-.2.2-.5.2-9.9.6-19.3,1.2-28.1,1.7-91.8,5.5-122.8,7.3-136.2,55.8-12.2,42.9-13.9,127.4-14.1,161.8v12.6h0ZM348.7,503.3c4.5.3,9,.5,13.2.8,89.8,5.3,123.4,7.3,137.2,57.1,8.2,29.6,11.6,78.9,13,118,1.4-39.1,4.8-88.4,13-118,13.8-49.7,47.6-51.7,137.9-57.1,3.7-.2,7.6-.4,11.5-.7-5.3-.3-12.7-.7-21.1-1.3-18.7-1.2-44.4-3.2-60.4-5.7-31.2-4.8-51.2-11.6-61.2-32.2-8-16.5-13.3-41.9-15.9-75.4-1.2-15.1-2.8-46-3.8-65.6-1,19.6-2.7,50.3-3.8,65.4-2.6,33.5-8,58.9-15.9,75.4-10,20.6-29.2,27.2-61.2,32.2-21,3.2-60.6,5.8-82.5,7.1h0Z"/>
    </g>
    <g id="sc-logo-arc-4">
      <path class="st0" d="M705.1,428.1c-5.2-12.2-11.7-23.9-19.3-34.9-7.6-10.8-16-21.1-25.6-30.4-9.5-9.4-19.8-17.8-31-25-2.3-1.6-4.7-3.1-7.2-4.5,55.3,36.4,91.8,99.4,91.8,171v4c0,52-20.3,99.2-53.7,134.7-36.9,40.2-89.5,65.4-148,65.4s-111.1-25.2-148-65.4c-33.5-35.5-53.8-82.8-53.8-134.7v-4c0-71.7,36.6-134.7,91.8-171-2.5,1.4-4.9,3.1-7.2,4.5-11.2,7.4-21.4,15.8-31,25-9.5,9.4-18,19.6-25.6,30.4-7.6,11-14,22.7-19.3,34.9-11,25.4-16.4,52.2-16.4,80.1s5.6,54.7,16.4,80.1c5.2,12.2,11.7,23.9,19.3,34.9,7.6,10.8,16,21.1,25.6,30.4,9.5,9.4,19.8,17.8,31,25,11.2,7.4,23.2,13.9,35.6,18.9,25.7,10.8,53.3,16.2,81.6,16.2s55.6-5.4,81.6-16.2c12.4-5.2,24.3-11.5,35.6-18.9,11.2-7.4,21.4-15.8,31-25,9.5-9.4,18-19.6,25.6-30.4,7.6-11,14-22.7,19.3-34.9,11-25.4,16.4-52.2,16.4-80.1s-5.7-54.7-16.5-80.1h0Z"/>
      <path class="st0" d="M512.3,714.8c-28.6,0-56.2-5.5-81.9-16.3-12.2-4.9-24.2-11.3-35.8-19-10.6-6.9-21.1-15.3-31.1-25.1-9.1-8.9-17.7-19.2-25.7-30.6-7.64-11.01-14.14-22.77-19.4-35.1-10.9-25.6-16.4-52.7-16.4-80.4s5.5-55.2,16.5-80.5c5.2-12.2,11.7-24,19.4-35.1,8-11.4,16.6-21.7,25.7-30.6,10.1-9.7,20.5-18.1,31.1-25.1.9-.6,1.8-1.1,2.7-1.7,1.5-.9,3-1.9,4.6-2.8l.9,1.5c-57.2,37.7-91.4,101.3-91.4,170.3v4c0,49.8,19,97.5,53.6,134.1,38.6,42,90.9,65.1,147.3,65.1s108.8-23.1,147.3-65.1c34.4-36.7,53.4-84.3,53.4-134.1v-4c0-69-34.2-132.6-91.4-170.3l.9-1.5c2.8,1.6,5.1,3,7.3,4.5,10.6,6.8,21.1,15.3,31.1,25.1,9.1,8.9,17.7,19.2,25.7,30.6,7.64,11.01,14.14,22.77,19.4,35.1,11,25.9,16.6,53,16.6,80.5s-5.5,55.2-16.5,80.5c-5.2,12.2-11.7,24-19.4,35.1-8,11.4-16.6,21.6-25.7,30.6-10.1,9.7-20.5,18.1-31.1,25.1-11.3,7.4-23.4,13.8-35.8,19-25.9,10.7-53.5,16.2-81.9,16.2ZM367.7,360.7c-1,.9-2,1.8-2.9,2.8-9,8.8-17.6,19-25.5,30.3-7.6,11-14,22.7-19.2,34.8-10.8,25-16.3,51.9-16.3,79.8s5.5,54.3,16.3,79.8c5.1,12.1,11.6,23.8,19.2,34.8,7.9,11.3,16.5,21.5,25.5,30.3,9.9,9.7,20.3,18.1,30.8,24.9,11.5,7.6,23.4,13.9,35.5,18.8,25.5,10.7,52.9,16.1,81.2,16.1s55.5-5.4,81.2-16.1c12.3-5.2,24.3-11.5,35.5-18.8,10.5-6.9,20.8-15.3,30.8-24.9,9-8.8,17.6-19,25.5-30.3,7.6-11,14-22.7,19.2-34.8,10.8-25,16.3-51.9,16.3-79.8s-5.5-54.1-16.5-79.8c-5.1-12.1-11.6-23.8-19.2-34.8-7.9-11.3-16.5-21.5-25.5-30.3-1.2-1.1-2.3-2.3-3.5-3.4,37.3,38,58.7,89.5,58.7,144.3v4c0,50.2-19.1,98.3-53.9,135.3-18.8,20.5-41.1,36.6-66.2,47.9-26,11.7-53.8,17.7-82.5,17.7s-56.5-6-82.5-17.7c-25.1-11.3-47.4-27.5-66.2-47.9-34.9-36.9-54.1-85-54.1-135.3v-4c.2-54.6,21.3-105.8,58.3-143.7h0Z"/>
    </g>
    <g id="sc-logo-arc-3">
      <path class="st0" d="M512.1,318.5c102.8,0,186,83.4,186,186s-83.4,186-186,186-186-83.4-186-186,83.4-186,186-186M512.1,314.7c-25.6,0-50.4,5-73.8,14.9-22.7,9.5-42.9,23.2-60.3,40.7-17.5,17.5-31.1,37.8-40.7,60.3-9.9,23.4-14.9,48.3-14.9,73.8s5,50.4,14.9,73.8c9.5,22.7,23.2,42.9,40.7,60.3,17.5,17.5,37.8,31.1,60.3,40.7,23.4,9.9,48.3,14.9,73.8,14.9s50.4-5,73.8-14.9c22.7-9.5,42.9-23.2,60.3-40.7,17.5-17.5,31.1-37.8,40.7-60.3,9.9-23.4,14.9-48.3,14.9-73.8s-5-50.4-14.9-73.8c-9.5-22.7-23.2-42.9-40.7-60.3s-37.8-31.1-60.3-40.7c-23.2-10-48-14.9-73.8-14.9h0Z"/>
      <path class="st0" d="M512.1,695.1c-25.7,0-50.6-5.1-74.2-15-22.7-9.6-43.1-23.4-60.6-40.9-17.6-17.6-31.4-38-40.9-60.6-10-23.5-15-48.5-15-74.2s5.1-50.6,15-74.2c9.6-22.7,23.4-43.1,40.9-60.6s38-31.4,60.6-40.9c23.5-10,48.5-15,74.2-15s51.2,5.1,74.2,15c22.7,9.6,43.1,23.4,60.6,40.9,17.6,17.6,31.4,38,40.9,60.6,10,23.5,15,48.5,15,74.2s-5.1,50.6-15,74.2c-9.6,22.7-23.4,43.1-40.9,60.6s-38,31.4-60.6,40.9c-23.6,10-48.5,15-74.2,15ZM512.1,315.6c-25.4,0-50.1,5-73.5,14.9-22.4,9.4-42.6,23-60,40.5-17.3,17.3-31,37.5-40.5,60-9.9,23.3-14.9,48-14.9,73.5s5,50.1,14.9,73.5c9.4,22.4,23,42.6,40.5,60,17.3,17.3,37.5,31,60,40.5,23.3,9.9,48,14.9,73.5,14.9s50.1-5,73.5-14.9c22.4-9.4,42.6-23,60-40.5,17.3-17.3,31-37.5,40.5-60,9.9-23.3,14.9-48,14.9-73.5s-5-50.1-14.9-73.5c-9.4-22.4-23-42.6-40.5-60-17.3-17.3-37.5-31-60-40.5-22.7-9.9-47.5-14.9-73.5-14.9h0ZM512.1,691.4c-103.1,0-186.9-83.8-186.9-186.9s83.8-186.9,186.9-186.9,186.9,83.8,186.9,186.9-83.8,186.9-186.9,186.9h0ZM512.1,319.4c-102.1,0-185.1,83-185.1,185.1s83,185.1,185.1,185.1,185.1-83,185.1-185.1-83-185.1-185.1-185.1Z"/>
    </g>
    <g id="sc-logo-arc-2">
      <path class="st0" d="M512.1,336.5c92.7,0,168,75.3,168,168s-75.3,168-168,168-168-75.3-168-168,75.3-168,168-168M512.1,330.7c-23.4,0-46.3,4.7-67.7,13.7-20.7,8.8-39.3,21.2-55.3,37.3-16,16-28.4,34.6-37.3,55.3-9,21.4-13.7,44.1-13.7,67.7s4.7,46.3,13.7,67.7c8.8,20.7,21.2,39.3,37.3,55.3,16,16,34.6,28.4,55.3,37.3,21.4,9,44.1,13.7,67.7,13.7s46.3-4.7,67.7-13.7c20.7-8.8,39.3-21.2,55.3-37.3s28.4-34.6,37.3-55.3c9-21.4,13.7-44.1,13.7-67.7s-4.7-46.3-13.7-67.7c-8.8-20.7-21.2-39.3-37.3-55.3-16-16-34.6-28.4-55.3-37.3-21.4-9.2-44.1-13.7-67.7-13.7Z"/>
      <path class="st0" d="M512.1,679.5c-23.4,0-46.3-4.6-68-13.8-20.9-8.9-39.6-21.5-55.6-37.5-15.9-15.9-28.5-34.6-37.5-55.6-9.1-21.7-13.8-44.6-13.8-68.1s4.6-46.3,13.8-68c8.9-20.9,21.5-39.6,37.5-55.6s34.6-28.5,55.6-37.5c21.7-9.1,44.6-13.8,68.1-13.8s46.8,4.6,68.1,13.8c20.9,8.9,39.6,21.5,55.6,37.5,15.9,15.9,28.5,34.6,37.5,55.6,9.1,21.7,13.8,44.6,13.8,68.1s-4.6,46.3-13.8,68c-8.9,20.9-21.5,39.6-37.5,55.6s-34.6,28.5-55.6,37.5c-21.9,9.2-44.7,13.8-68.2,13.8h0ZM512.1,331.6c-23.2,0-45.9,4.6-67.4,13.6-20.7,8.8-39.2,21.3-55,37.1-15.8,15.8-28.3,34.3-37.1,55-9,21.5-13.6,44.2-13.6,67.3s4.6,45.9,13.6,67.4c8.8,20.7,21.3,39.2,37.1,55,15.8,15.8,34.3,28.3,55,37.1,21.5,9,44.2,13.6,67.3,13.6s45.9-4.6,67.3-13.6c20.7-8.8,39.2-21.3,55-37.1s28.3-34.3,37.1-55c9-21.5,13.6-44.2,13.6-67.3s-4.6-45.8-13.6-67.3c-8.8-20.7-21.3-39.2-37.1-55s-34.3-28.3-55-37.1c-20.9-9.1-43.6-13.7-67.2-13.7h0ZM512.1,673.4c-93.1,0-168.9-75.8-168.9-168.9s75.8-168.9,168.9-168.9,168.9,75.8,168.9,168.9-75.8,168.9-168.9,168.9ZM512.1,337.4c-92.1,0-167.1,75-167.1,167.1s75,167.1,167.1,167.1,167.1-75,167.1-167.1-74.9-167.1-167.1-167.1Z"/>
    </g>
    <g id="sc-logo-arc-1">
      <path class="st0" d="M512.1,389.6c63.6,0,114.9,51.5,114.9,114.9s-51.5,114.9-114.9,114.9-114.9-51.5-114.9-114.9,51.5-114.9,114.9-114.9M512.1,378.1c-17.1,0-33.7,3.4-49.2,9.9-15.1,6.3-28.6,15.5-40.2,27-11.5,11.5-20.7,25.2-27,40.2-6.7,15.7-9.9,32.2-9.9,49.2s3.4,33.7,9.9,49.2c6.3,15.1,15.5,28.6,27,40.2,11.5,11.5,25.2,20.7,40.2,27,15.7,6.7,32.2,9.9,49.2,9.9s33.7-3.4,49.2-9.9c15.1-6.3,28.6-15.5,40.2-27,11.5-11.5,20.7-25.2,27-40.2,6.7-15.7,9.9-32.2,9.9-49.2s-3.4-33.7-9.9-49.2c-6.3-15.1-15.5-28.6-27-40.2-11.5-11.5-25.2-20.7-40.2-27-15.5-6.7-32.1-9.9-49.2-9.9h0Z"/>
      <path class="st0" d="M512.1,631.4c-17.3,0-33.9-3.4-49.5-10-15.2-6.4-28.8-15.6-40.4-27.2-11.8-11.8-20.9-25.4-27.2-40.4-6.6-15.8-10-32.5-10-49.5s3.4-33.9,10-49.5c6.4-15.2,15.6-28.8,27.2-40.4s25.4-20.9,40.4-27.2c15.8-6.6,32.5-10,49.5-10s34.1,3.4,49.5,10c15.2,6.4,28.8,15.6,40.4,27.2,11.8,11.8,20.9,25.4,27.2,40.4,6.6,15.8,10,32.5,10,49.5s-3.4,33.9-10,49.5c-6.4,15.2-15.6,28.8-27.2,40.4s-25.4,20.9-40.4,27.2c-15.8,6.7-32.4,10-49.5,10ZM512.1,379c-16.8,0-33.2,3.3-48.8,9.8-14.8,6.2-28.3,15.2-39.9,26.8-11.5,11.5-20.5,24.9-26.8,39.9-6.5,15.3-9.8,31.8-9.8,48.8s3.3,33.2,9.8,48.8c6.2,14.8,15.2,28.3,26.8,39.9,11.5,11.5,24.9,20.5,39.9,26.8,15.3,6.5,31.8,9.8,48.8,9.8s33.2-3.3,48.8-9.8c14.8-6.2,28.3-15.2,39.9-26.8,11.5-11.5,20.5-24.9,26.8-39.9,6.5-15.3,9.8-31.8,9.8-48.8s-3.3-33.2-9.8-48.8c-6.2-14.8-15.2-28.3-26.8-39.9-11.5-11.5-24.9-20.5-39.9-26.8-15.1-6.5-31.6-9.8-48.8-9.8ZM512.1,620.2c-63.8,0-115.8-51.9-115.8-115.8s51.9-115.8,115.8-115.8,115.8,51.9,115.8,115.8-51.9,115.8-115.8,115.8ZM512.1,390.5c-62.8,0-114,51.1-114,114s51.1,114,114,114,114-51.1,114-114-51.1-114-114-114Z"/>
    </g>
    <g id="sc-logo-bottom">
      <path class="st0" d="M464.2,717.1c-2.2.5-3.6,2.9-3.1,5l.9,3.4c.5,2.2,2.9,3.6,5,3.1l44.5-11.3c.2,0,.4-.2.7-.2.2,0,.4.2.7.2l44.5,11.3c2.2.5,4.5-.7,5-3.1l.9-3.4c.5-2.2-.7-4.5-3.1-5l-23.9-6.1h-48.1l-24,6.1h0Z"/>
      <path class="st0" d="M558.5,729.7c-.4,0-.8,0-1.2-.1l-44.4-11.3c-.3,0-.5-.1-.7-.2h-.1c-.1,0-.2.1-.4.1l-44.4,11.3c-1.3.3-2.7.1-3.8-.6-1.2-.7-2-1.8-2.3-3.1l-.9-3.4c-.7-2.6,1.1-5.5,3.7-6.1l24.3-6.1h48.2l24.1,6.1c1.3.3,2.4,1.1,3.1,2.2.7,1.2.9,2.6.6,3.9l-.9,3.4c-.3,1.3-1.1,2.4-2.2,3.1-.8.5-1.8.8-2.7.8h0ZM512.3,716.2c.3,0,.5.1.6.1h.3l44.5,11.3c.8.2,1.8.1,2.5-.4.7-.4,1.2-1.2,1.4-2l.9-3.4c.2-.8.1-1.8-.4-2.5-.4-.7-1.2-1.2-2-1.4l-23.9-6.1h-47.8l-24,6.1c-1.7.4-2.8,2.3-2.4,4l.9,3.4c.2.8.8,1.5,1.5,2,.8.5,1.6.6,2.4.4l44.6-11.4c.3,0,.5-.1.9-.1h0Z"/>
    </g>
  </g>
</svg>